<?xml version="1.0" encoding="UTF-8"?>
<svg xmlns="http://www.w3.org/2000/svg" xmlns:xlink="http://www.w3.org/1999/xlink" version="1.2" >
<font id="NextExitRound Light">
<font-face  font-family="NextExitRound" units-per-em="1000" ascent="700" descent="-300" font-style="normal" font-weight="300" font-stretch="normal" cap-height="599" x-height="432" underline-position="-118" underline-thickness="50" />
<missing-glyph  horiz-adv-x="500" d="M63 0 L63 700 L438 700 L438 0 L63 0 Z M125 63 L375 63 L375 638 L125 638 L125 63 Z " />
<glyph glyph-name="nonmarkingreturn" unicode="&#xd;" horiz-adv-x="160" d="" />
<glyph glyph-name="space" unicode="&#x20;" horiz-adv-x="160" d="" />
<glyph glyph-name="exclam" unicode="&#x21;" horiz-adv-x="155" d="M78 500 Q105 500 105 473 L105 191 Q105 174 101 158 L85 100 L70 100 L54 158 Q50 174 50 191 L50 473 Q50 500 77 500 L78 500 Z M83 64 Q110 64 110 37 L110 27 Q110 0 83 0 L73 0 Q46 0 46 27 L46 37 Q46 64 73 64 L83 64 Z " />
<glyph glyph-name="quotedbl" unicode="&#x22;" horiz-adv-x="309" d="M103 500 Q120 500 120 483 L120 442 Q120 430 111 421 L71 381 Q63 373 56.5 375.5 Q50 378 50 390 L50 483 Q50 500 67 500 L103 500 Z M242 500 Q259 500 259 483 L259 442 Q259 430 250 421 L210 381 Q202 373 195.5 375.5 Q189 378 189 390 L189 483 Q189 500 206 500 L242 500 Z " />
<glyph glyph-name="numbersign" unicode="&#x23;" horiz-adv-x="418" d="M312 500 Q339 500 336 471 L319 355 L368 355 Q397 355 394 328 L394 325 Q388 301 364 301 L312 301 L293 180 L342 180 Q372 180 367 151 L367 150 Q364 125 339 125 L285 125 L271 25 Q267 0 242 0 L239 0 Q212 0 215 29 L230 125 L150 125 L136 25 Q132 0 107 0 L104 0 Q77 0 80 29 L94 125 L49 125 Q19 125 24 154 L24 155 Q27 180 52 180 L102 180 L120 301 L75 301 Q61 301 54.5 308.5 Q48 316 50 330 Q53 355 78 355 L128 355 L145 475 Q149 500 174 500 L177 500 Q203 500 200 471 L183 355 L263 355 L280 475 Q284 500 309 500 L312 500 Z M158 180 L238 180 L255 301 L176 301 L158 180 Z " />
<glyph glyph-name="dollar" unicode="&#x24;" horiz-adv-x="363" d="M208 509 Q267 497 290 461 Q313 425 315 381 Q312 358 290 358 Q264 358 264 371 Q264 384 260.5 399.5 Q257 415 248 428.5 Q239 442 222.5 451 Q206 460 180 460 Q158 460 142.5 452 Q127 444 117.5 431 Q108 418 104 402.5 Q100 387 100 372 Q100 340 117 323 Q134 306 159 295 Q184 284 214 274 Q244 264 269 247 Q294 230 311 201 Q328 172 328 122 Q328 104 320 83 Q312 62 296.5 43 Q281 24 259 10 Q237 -4 208 -8 L208 -48 Q208 -75 181 -75 L180 -75 Q153 -75 153 -48 L153 -7 Q101 1 70 38.5 Q39 76 35 126 Q38 147 62 147 L65 147 Q92 147 92 137 Q92 107 101.5 88.5 Q111 70 125 59.5 Q139 49 154 45 Q169 41 181 41 Q205 41 222.5 50 Q240 59 251 72 Q262 85 267.5 100 Q273 115 273 127 Q273 164 256 185 Q239 206 214 219 Q189 232 159.5 242 Q130 252 105 267.5 Q80 283 63 308.5 Q46 334 46 378 Q46 428 75.5 464.5 Q105 501 153 509 L153 548 Q153 575 180 575 L181 575 Q208 575 208 548 L208 509 Z M315 381 L315 385 L315 371 L315 381 Z M35 126 L35 120 L35 137 L35 126 Z " />
<glyph glyph-name="percent" unicode="&#x25;" horiz-adv-x="591" d="M41 409 Q41 454 69 479.5 Q97 505 139 505 Q181 505 209 479.5 Q237 454 237 409 L237 338 Q237 292 209 267 Q181 242 139 242 Q97 242 69 267 Q41 292 41 338 L41 409 Z M414 500 Q426 500 430 491 Q434 482 427 468 L215 20 Q206 0 184 0 L178 0 Q165 0 161 9 Q157 18 164 32 L376 480 Q385 500 407 500 L414 500 Z M183 407 Q183 430 172.5 443.5 Q162 457 139 457 Q95 457 95 407 L95 340 Q95 290 139 290 Q183 290 183 340 L183 407 Z M354 162 Q354 208 382 233 Q410 258 452 258 Q494 258 522.5 233 Q551 208 551 162 L551 91 Q551 46 522.5 20.5 Q494 -5 452 -5 Q410 -5 382 20.5 Q354 46 354 91 L354 162 Z M496 160 Q496 184 485.5 197.5 Q475 211 452 211 Q429 211 418.5 197.5 Q408 184 408 160 L408 93 Q408 43 452 43 Q475 43 485.5 56.5 Q496 70 496 93 L496 160 Z " />
<glyph glyph-name="ampersand" unicode="&#x26;" horiz-adv-x="554" d="M249 608 Q300 608 334.5 577.5 Q369 547 369 493 Q369 463 358 438.5 Q347 414 330 393.5 Q313 373 291 355.5 Q269 338 246 321 Q281 272 314 222 Q347 172 385 130 Q404 159 418.5 190.5 Q433 222 441 256 Q448 281 473 277 Q500 272 492 245 Q469 161 423 95 Q440 78 459 65 Q478 52 501 46 Q526 40 526 17 Q526 5 518.5 -1 Q511 -7 497 -5 Q466 2 438 18 Q410 34 387 57 Q352 26 308 9 Q264 -8 216 -8 Q181 -8 148.5 1.5 Q116 11 91 30 Q66 49 51 78 Q36 107 36 146 Q36 179 43.5 204.5 Q51 230 67.5 252.5 Q84 275 110 296.5 Q136 318 173 343 Q153 373 139.5 409.5 Q126 446 126 482 Q126 542 159 575 Q192 608 249 608 Z M247 563 Q217 563 199 543 Q181 523 181 476 Q181 447 190.5 418.5 Q200 390 217 367 Q259 390 286.5 424.5 Q314 459 314 496 Q314 525 298 544 Q282 563 247 563 Z M199 299 Q174 285 154 270.5 Q134 256 120 237.5 Q106 219 98 196 Q90 173 90 143 Q90 116 101 96.5 Q112 77 130 63.5 Q148 50 171 43.5 Q194 37 218 37 Q245 37 266.5 43 Q288 49 304.5 58 Q321 67 333 77 Q345 87 352 95 Q337 109 315.5 135 Q294 161 272.5 190.5 Q251 220 231 249 Q211 278 199 299 Z " />
<glyph glyph-name="quotesingle" unicode="&#x27;" horiz-adv-x="170" d="M103 500 Q120 500 120 483 L120 442 Q120 430 111 421 L71 381 Q63 373 56.5 375.5 Q50 378 50 390 L50 483 Q50 500 67 500 L103 500 Z " />
<glyph glyph-name="parenleft" unicode="&#x28;" horiz-adv-x="256" d="M178 574 Q190 574 193.5 565 Q197 556 189 542 Q179 521 164.5 488 Q150 455 137 416 Q124 377 115 334 Q106 291 106 250 Q106 208 115 165.5 Q124 123 137 84 Q150 45 164.5 12 Q179 -21 189 -42 Q197 -56 193.5 -65 Q190 -74 178 -74 L172 -74 Q150 -74 140 -55 Q130 -37 115 -3.5 Q100 30 85.5 71 Q71 112 60.5 158.5 Q50 205 50 250 Q50 295 60.5 341 Q71 387 85.5 428.5 Q100 470 115 503.5 Q130 537 140 555 Q150 574 172 574 L178 574 Z " />
<glyph glyph-name="parenright" unicode="&#x29;" horiz-adv-x="256" d="M84 574 Q106 574 116 555 Q126 537 141 503.5 Q156 470 170.5 429 Q185 388 195.5 341.5 Q206 295 206 250 Q206 205 195.5 159 Q185 113 170.5 71.5 Q156 30 141 -3.5 Q126 -37 116 -55 Q106 -74 84 -74 L78 -74 Q66 -74 62.5 -65 Q59 -56 67 -42 Q78 -21 92 12 Q106 45 119 84 Q132 123 141 166 Q150 209 150 250 Q150 292 141 334.5 Q132 377 119 416 Q106 455 92 488 Q78 521 67 542 Q59 556 62.5 565 Q66 574 78 574 L84 574 Z " />
<glyph glyph-name="asterisk" unicode="&#x2a;" horiz-adv-x="295" d="M152 500 Q169 500 169 483 L169 434 L208 458 Q222 467 231 453 L236 445 Q245 430 229 422 L188 400 L228 378 Q243 369 234 354 L229 347 Q220 333 206 342 L169 366 L169 317 Q169 300 152 300 L142 300 Q125 300 125 317 L125 367 L86 342 Q72 333 63 347 L59 353 Q50 368 65 377 L107 400 L65 422 Q50 430 59 445 L63 452 Q72 467 87 458 L125 434 L125 483 Q125 500 142 500 L152 500 Z " />
<glyph glyph-name="plus" unicode="&#x2b;" horiz-adv-x="375" d="M188 390 Q215 390 215 363 L215 280 L298 280 Q325 280 325 253 L325 252 Q325 225 298 225 L215 225 L215 142 Q215 115 188 115 L187 115 Q160 115 160 142 L160 225 L77 225 Q50 225 50 252 L50 253 Q50 280 77 280 L160 280 L160 363 Q160 390 187 390 L188 390 Z " />
<glyph glyph-name="comma" unicode="&#x2c;" horiz-adv-x="164" d="M97 64 Q114 64 114 47 L114 -49 Q114 -61 105 -70 L71 -103 Q63 -111 56.5 -108.5 Q50 -106 50 -95 L50 47 Q50 64 67 64 L97 64 Z " />
<glyph glyph-name="hyphen" unicode="&#x2d;" horiz-adv-x="335" d="M258 280 Q285 280 285 253 L285 252 Q285 225 258 225 L77 225 Q50 225 50 252 L50 253 Q50 280 77 280 L258 280 Z " />
<glyph glyph-name="period" unicode="&#x2e;" horiz-adv-x="164" d="M97 64 Q114 64 114 47 L114 17 Q114 0 97 0 L67 0 Q50 0 50 17 L50 47 Q50 64 67 64 L97 64 Z " />
<glyph glyph-name="slash" unicode="&#x2f;" horiz-adv-x="305" d="M281 600 Q310 600 299 569 L62 -79 Q55 -101 31 -101 L25 -101 Q11 -101 6 -92.5 Q1 -84 6 -70 L244 578 Q251 600 275 600 L281 600 Z " />
<glyph glyph-name="zero" unicode="0" horiz-adv-x="365" d="M45 367 Q45 398 56 424.5 Q67 451 85.5 470 Q104 489 129 499.5 Q154 510 182 510 Q211 510 236 499.5 Q261 489 279.5 470 Q298 451 309 424.5 Q320 398 320 367 L320 133 Q320 102 309 75.5 Q298 49 279.5 30 Q261 11 236 0.5 Q211 -10 183 -10 Q155 -10 129.5 0.5 Q104 11 85.5 30 Q67 49 56 75.5 Q45 102 45 133 L45 367 Z M265 371 Q265 409 241 432 Q217 455 183 455 Q148 455 124 432 Q100 409 100 371 L100 127 Q100 89 124 66 Q148 43 182 43 Q217 43 241 66 Q265 89 265 127 L265 371 Z " />
<glyph glyph-name="one" unicode="1" horiz-adv-x="216" d="M139 500 Q166 500 166 473 L166 27 Q166 0 139 0 L138 0 Q111 0 111 27 L111 422 L68 382 Q55 370 45 374.5 Q35 379 35 396 L35 407 Q35 427 49 441 L97 487 Q111 500 130 500 L139 500 Z " />
<glyph glyph-name="two" unicode="2" horiz-adv-x="355" d="M40 369 Q40 397 50 422.5 Q60 448 78.5 467.5 Q97 487 123 498.5 Q149 510 182 510 Q211 510 236 498.5 Q261 487 280 468 Q299 449 309.5 423.5 Q320 398 320 371 Q320 344 313 317 Q306 290 284 264 L116 55 L293 55 Q320 55 320 28 L320 27 Q320 0 293 0 L71 0 Q44 0 44 27 L44 35 Q44 54 56 69 L243 302 Q253 315 260.5 333.5 Q268 352 268 369 Q268 383 263 398.5 Q258 414 247 427 Q236 440 220 449 Q204 458 181 458 Q139 458 115.5 431.5 Q92 405 92 367 L92 361 Q92 334 66 334 Q40 334 40 361 L40 369 Z " />
<glyph glyph-name="three" unicode="3" horiz-adv-x="363" d="M46 371 Q46 398 54 423.5 Q62 449 79 468.5 Q96 488 121.5 500 Q147 512 181 512 Q213 512 238.5 500.5 Q264 489 281 470.5 Q298 452 307 427.5 Q316 403 316 376 Q316 332 297 306 Q278 280 248 261 Q293 234 310.5 201 Q328 168 328 133 Q328 103 317 77 Q306 51 286.5 31.5 Q267 12 240 1 Q213 -10 181 -10 Q130 -10 92.5 17.5 Q55 45 41 88 Q36 102 43.5 110 Q51 118 65 118 L67 118 Q89 118 98 95 Q122 40 181 40 Q224 40 248 67.5 Q272 95 272 133 Q272 155 264 172 Q256 189 243.5 200.5 Q231 212 215.5 218 Q200 224 186 224 L180 224 Q153 224 153 251 L153 262 Q153 289 180 289 L185 289 Q194 289 207 293.5 Q220 298 232.5 308 Q245 318 254 334.5 Q263 351 263 376 Q263 415 239 438 Q215 461 181 461 Q166 461 151 456 Q136 451 124.5 440 Q113 429 105.5 412 Q98 395 98 371 L98 367 Q98 340 72 340 Q46 340 46 367 L46 371 Z " />
<glyph glyph-name="four" unicode="4" horiz-adv-x="385" d="M185 500 Q198 500 203 491.5 Q208 483 203 469 L88 155 L245 155 L245 253 Q245 280 272 280 L273 280 Q300 280 300 253 L300 155 L328 155 Q355 155 355 128 L355 127 Q355 100 328 100 L300 100 L300 27 Q300 0 273 0 L272 0 Q245 0 245 27 L245 100 L57 100 Q30 100 30 127 L30 138 Q30 147 31.5 154.5 Q33 162 36 171 L147 478 Q156 500 178 500 L185 500 Z " />
<glyph glyph-name="five" unicode="5" horiz-adv-x="370" d="M293 500 Q320 500 320 473 L320 472 Q320 445 293 445 L114 445 L114 300 Q117 303 121.5 307 Q126 311 134.5 315 Q143 319 156.5 321.5 Q170 324 192 324 Q217 324 242.5 315.5 Q268 307 288.5 289.5 Q309 272 322 245.5 Q335 219 335 182 L335 130 Q335 102 325.5 77 Q316 52 297.5 32.5 Q279 13 252.5 1.5 Q226 -10 192 -10 Q138 -10 102 16 Q66 42 52 86 Q48 98 53.5 107 Q59 116 76 116 Q88 116 94.5 110 Q101 104 106 93 Q114 73 134 58 Q154 43 192 43 Q208 43 224 47.5 Q240 52 252.5 62.5 Q265 73 272.5 89.5 Q280 106 280 130 L280 182 Q280 222 257 246 Q234 270 192 270 Q170 270 151.5 264.5 Q133 259 120 243 Q113 235 106 230 Q99 225 88 225 L85 225 Q60 225 60 252 L60 473 Q60 500 87 500 L293 500 Z " />
<glyph glyph-name="six" unicode="6" horiz-adv-x="345" d="M179 500 Q192 500 197 491.5 Q202 483 197 469 L142 320 Q181 329 212 319.5 Q243 310 264.5 289.5 Q286 269 298 240 Q310 211 310 181 L310 134 Q310 103 300 77 Q290 51 271.5 31.5 Q253 12 227.5 1 Q202 -10 171 -10 Q145 -10 120.5 0 Q96 10 77 28.5 Q58 47 46.5 73 Q35 99 35 130 L35 180 Q35 195 48 234 Q61 273 78 319.5 Q95 366 112.5 410.5 Q130 455 140 479 Q149 500 172 500 L179 500 Z M255 182 Q255 221 232 245.5 Q209 270 172 270 Q136 270 113 245.5 Q90 221 90 182 L90 130 Q90 90 114 66.5 Q138 43 170 43 Q212 43 233.5 69 Q255 95 255 134 L255 182 Z " />
<glyph glyph-name="seven" unicode="7" horiz-adv-x="323" d="M271 500 Q298 500 298 473 L298 463 Q298 454 296.5 446.5 Q295 439 292 430 L144 22 Q135 0 113 0 L107 0 Q93 0 88 8.5 Q83 17 88 31 L239 445 L80 445 L80 427 Q80 400 53 400 L52 400 Q25 400 25 427 L25 473 Q25 500 52 500 L271 500 Z " />
<glyph glyph-name="eight" unicode="8" horiz-adv-x="362" d="M181 511 Q211 511 236 501 Q261 491 279 473 Q297 455 307 430.5 Q317 406 317 378 Q317 338 299 308.5 Q281 279 247 261 Q284 241 305.5 209.5 Q327 178 327 133 Q327 102 316 76 Q305 50 285.5 31 Q266 12 239 1 Q212 -10 181 -10 Q150 -10 123 1 Q96 12 76.5 31 Q57 50 46 76 Q35 102 35 133 Q35 178 56 209.5 Q77 241 114 261 Q46 297 46 378 Q46 406 56 430.5 Q66 455 83.5 473 Q101 491 126 501 Q151 511 181 511 Z M181 460 Q145 460 122 436.5 Q99 413 99 376 Q99 339 122 315.5 Q145 292 181 292 Q218 292 240.5 315.5 Q263 339 263 376 Q263 413 240.5 436.5 Q218 460 181 460 Z M181 223 Q143 223 116.5 196.5 Q90 170 90 131 Q90 92 116.5 66 Q143 40 181 40 Q220 40 246 66 Q272 92 272 131 Q272 170 246 196.5 Q220 223 181 223 Z " />
<glyph glyph-name="nine" unicode="9" horiz-adv-x="345" d="M35 366 Q35 397 45 423 Q55 449 73.5 468.5 Q92 488 117.5 499 Q143 510 174 510 Q200 510 224.5 500 Q249 490 268 471.5 Q287 453 298.5 427 Q310 401 310 370 L310 320 Q310 310 303 286 Q296 262 285.5 231.5 Q275 201 262 166.5 Q249 132 237 101 Q225 70 215 45.5 Q205 21 200 9 Q196 0 173 0 L167 0 Q153 0 148 8.5 Q143 17 148 31 L203 180 Q164 171 133 180.5 Q102 190 80.5 210.5 Q59 231 47 260 Q35 289 35 319 L35 366 Z M255 370 Q255 410 231 433.5 Q207 457 175 457 Q133 457 111.5 431 Q90 405 90 366 L90 318 Q90 279 113 254.5 Q136 230 173 230 Q209 230 232 254.5 Q255 279 255 318 L255 370 Z " />
<glyph glyph-name="colon" unicode="&#x3a;" horiz-adv-x="164" d="M97 289 Q114 289 114 272 L114 242 Q114 225 97 225 L67 225 Q50 225 50 242 L50 272 Q50 289 67 289 L97 289 Z M97 64 Q114 64 114 47 L114 17 Q114 0 97 0 L67 0 Q50 0 50 17 L50 47 Q50 64 67 64 L97 64 Z " />
<glyph glyph-name="semicolon" unicode="&#x3b;" horiz-adv-x="164" d="M97 289 Q114 289 114 272 L114 242 Q114 225 97 225 L67 225 Q50 225 50 242 L50 272 Q50 289 67 289 L97 289 Z M97 64 Q114 64 114 47 L114 -49 Q114 -61 105 -70 L71 -103 Q63 -111 56.5 -108.5 Q50 -106 50 -95 L50 47 Q50 64 67 64 L97 64 Z " />
<glyph glyph-name="less" unicode="&#x3c;" horiz-adv-x="515" d="M179 372 Q194 372 196 362 Q198 352 185 339 L125 279 L453 279 Q480 279 480 252 L480 251 Q480 224 453 224 L125 224 L185 164 Q198 151 193.5 141 Q189 131 171 131 L160 131 Q140 131 126 145 L39 233 Q20 252 39 271 L126 358 Q140 372 160 372 L179 372 Z " />
<glyph glyph-name="equal" unicode="&#x3d;" horiz-adv-x="375" d="M298 340 Q325 340 325 313 L325 312 Q325 285 298 285 L77 285 Q50 285 50 312 L50 313 Q50 340 77 340 L298 340 Z M298 220 Q325 220 325 193 L325 192 Q325 165 298 165 L77 165 Q50 165 50 192 L50 193 Q50 220 77 220 L298 220 Z " />
<glyph glyph-name="greater" unicode="&#x3e;" horiz-adv-x="515" d="M355 371 Q375 371 389 357 L476 270 Q495 251 476 232 L389 145 Q375 131 355 131 L336 131 Q321 131 319 141 Q317 151 330 164 L390 224 L62 224 Q35 224 35 251 L35 252 Q35 279 62 279 L390 279 L331 338 Q317 351 321.5 361 Q326 371 344 371 L355 371 Z " />
<glyph glyph-name="question" unicode="&#x3f;" horiz-adv-x="350" d="M35 369 Q35 397 45 422.5 Q55 448 73.5 467.5 Q92 487 118 498.5 Q144 510 177 510 Q206 510 231 498.5 Q256 487 275 468 Q294 449 304.5 423.5 Q315 398 315 371 Q315 344 308 317 Q301 290 279 264 L237 211 Q225 196 225 177 L225 158 Q225 131 198 131 L197 131 Q170 131 170 158 L170 198 Q170 217 182 232 L238 302 Q248 315 255.5 333.5 Q263 352 263 369 Q263 383 258 398.5 Q253 414 242 427 Q231 440 215 449 Q199 458 176 458 Q134 458 110.5 431.5 Q87 405 87 367 Q87 340 61 340 Q35 340 35 367 L35 369 Z M202 64 Q229 64 229 37 L229 27 Q229 0 202 0 L192 0 Q165 0 165 27 L165 37 Q165 64 192 64 L202 64 Z " />
<glyph glyph-name="at" unicode="&#x40;" horiz-adv-x="664" d="M590 143 Q599 143 599.5 133.5 Q600 124 590 110 Q547 54 482.5 23 Q418 -8 348 -8 Q282 -8 226 16.5 Q170 41 128.5 83 Q87 125 63.5 181.5 Q40 238 40 302 Q40 365 64.5 421 Q89 477 130.5 518.5 Q172 560 227 584 Q282 608 344 608 Q403 608 454 589 Q505 570 542.5 535.5 Q580 501 602 454 Q624 407 624 351 Q624 303 606.5 260 Q589 217 562 184.5 Q535 152 501.5 133 Q468 114 436 114 Q414 114 397.5 128.5 Q381 143 379 172 L378 170 Q358 150 329.5 132 Q301 114 269 114 Q243 114 222 124 Q201 134 186.5 150.5 Q172 167 164 189.5 Q156 212 156 237 Q156 281 170.5 325 Q185 369 211.5 404 Q238 439 275.5 461 Q313 483 358 483 Q387 483 410.5 467 Q434 451 448 413 L461 446 Q470 467 493 467 Q515 467 505 436 L433 222 Q428 209 425 197 Q422 185 422 176 Q422 152 444 152 Q469 152 493.5 170 Q518 188 537.5 217 Q557 246 569 282 Q581 318 581 354 Q581 404 561.5 444 Q542 484 509.5 512 Q477 540 434.5 555.5 Q392 571 346 571 Q290 571 242 549 Q194 527 158.5 489 Q123 451 103 401.5 Q83 352 83 296 Q83 241 104 192 Q125 143 161 106.5 Q197 70 245 49 Q293 28 348 28 Q406 28 461.5 54 Q517 80 556 127 Q569 143 589 143 L590 143 Z M354 440 Q322 440 295 420.5 Q268 401 248.5 371 Q229 341 218.5 306.5 Q208 272 208 242 Q208 204 229 180.5 Q250 157 281 157 Q310 157 336 178 Q362 199 381 230 Q400 261 411 296 Q422 331 422 359 Q422 374 416 388.5 Q410 403 400.5 414.5 Q391 426 379 433 Q367 440 354 440 Z " />
<glyph glyph-name="A" unicode="A" horiz-adv-x="507" d="M273 599 Q296 599 303 577 L476 31 Q486 0 457 0 L451 0 Q427 0 420 22 L367 196 L140 196 L86 22 Q79 0 56 0 L50 0 Q21 0 31 31 L205 577 Q212 599 235 599 L273 599 Z M154 241 L354 241 L255 554 L253 554 L154 241 Z " />
<glyph glyph-name="B" unicode="B" horiz-adv-x="554" d="M251 599 Q362 599 412.5 563 Q463 527 463 449 Q463 400 443 370 Q423 340 378 320 Q428 298 457.5 259.5 Q487 221 487 164 Q487 118 472 86.5 Q457 55 429 35.5 Q401 16 361.5 8 Q322 0 274 0 L110 0 Q83 0 83 27 L83 572 Q83 599 110 599 L251 599 Z M138 334 L268 334 Q295 334 320 339 Q345 344 364.5 356.5 Q384 369 396 390.5 Q408 412 408 445 Q408 478 398 499 Q388 520 367.5 532.5 Q347 545 317 549.5 Q287 554 246 554 L138 554 L138 334 Z M138 45 L280 45 Q359 45 395.5 74.5 Q432 104 432 168 Q432 220 392.5 254.5 Q353 289 262 289 L138 289 L138 45 Z " />
<glyph glyph-name="C" unicode="C" horiz-adv-x="507" d="M271 608 Q344 608 388 566.5 Q432 525 454 461 Q464 434 437 429 Q413 423 404 448 Q383 503 349 533 Q315 563 266 563 Q221 563 189 542.5 Q157 522 136 486.5 Q115 451 105 403 Q95 355 95 300 Q95 245 105 197 Q115 149 136.5 113.5 Q158 78 191.5 57.5 Q225 37 271 37 Q303 37 327 46.5 Q351 56 368 72.5 Q385 89 396.5 111 Q408 133 415 158 Q423 182 448 178 Q474 173 468 146 Q449 77 403 34.5 Q357 -8 271 -8 Q216 -8 173 14 Q130 36 100.5 76.5 Q71 117 55.5 174 Q40 231 40 300 Q40 369 55.5 426 Q71 483 100.5 523.5 Q130 564 173 586 Q216 608 271 608 Z " />
<glyph glyph-name="D" unicode="D" horiz-adv-x="554" d="M252 599 Q322 599 371.5 575 Q421 551 452.5 509.5 Q484 468 498.5 414 Q513 360 513 300 Q513 240 498.5 185.5 Q484 131 452.5 89.5 Q421 48 371.5 24 Q322 0 252 0 L110 0 Q83 0 83 27 L83 572 Q83 599 110 599 L252 599 Z M138 45 L254 45 Q354 45 406 111.5 Q458 178 458 300 Q458 421 406 487.5 Q354 554 254 554 L138 554 L138 45 Z " />
<glyph glyph-name="E" unicode="E" horiz-adv-x="461" d="M398 599 Q425 599 425 577 Q425 554 398 554 L138 554 L138 334 L317 334 Q344 334 344 312 Q344 289 317 289 L138 289 L138 45 L414 45 Q441 45 441 23 Q441 0 414 0 L110 0 Q83 0 83 27 L83 572 Q83 599 110 599 L398 599 Z " />
<glyph glyph-name="F" unicode="F" horiz-adv-x="461" d="M408 599 Q435 599 435 577 Q435 554 408 554 L138 554 L138 334 L327 334 Q354 334 354 312 Q354 289 327 289 L138 289 L138 27 Q138 0 111 0 L110 0 Q83 0 83 27 L83 572 Q83 599 110 599 L408 599 Z " />
<glyph glyph-name="G" unicode="G" horiz-adv-x="554" d="M432 59 Q406 24 369.5 8 Q333 -8 270 -8 Q220 -8 177.5 12 Q135 32 104.5 71 Q74 110 57 167.5 Q40 225 40 300 Q40 374 58.5 431.5 Q77 489 108.5 528 Q140 567 182 587.5 Q224 608 272 608 Q348 608 398 567.5 Q448 527 468 461 Q476 434 448 429 Q424 424 416 450 Q399 498 364 530.5 Q329 563 269 563 Q230 563 197.5 544.5 Q165 526 142.5 492 Q120 458 107.5 409 Q95 360 95 300 Q95 252 103 204.5 Q111 157 132.5 120 Q154 83 191 60 Q228 37 286 37 Q318 37 344 48.5 Q370 60 388.5 79.5 Q407 99 417 125 Q427 151 427 181 L427 236 L303 236 Q276 236 276 259 Q276 281 303 281 L454 281 Q481 281 481 254 L481 27 Q481 0 458 0 Q434 0 434 27 L434 59 L432 59 Z " />
<glyph glyph-name="H" unicode="H" horiz-adv-x="599" d="M489 599 Q516 599 516 572 L516 27 Q516 0 489 0 L488 0 Q461 0 461 27 L461 289 L138 289 L138 27 Q138 0 111 0 L110 0 Q83 0 83 27 L83 572 Q83 599 110 599 L111 599 Q138 599 138 572 L138 334 L461 334 L461 572 Q461 599 488 599 L489 599 Z " />
<glyph glyph-name="I" unicode="I" horiz-adv-x="231" d="M116 599 Q143 599 143 572 L143 27 Q143 0 116 0 L115 0 Q88 0 88 27 L88 572 Q88 599 115 599 L116 599 Z " />
<glyph glyph-name="J" unicode="J" horiz-adv-x="369" d="M247 599 Q274 599 274 572 L274 126 Q274 59 236 25.5 Q198 -8 135 -8 Q89 -8 62 5.5 Q35 19 15 48 Q7 59 9 68.5 Q11 78 22 84 Q43 96 58 75 Q72 55 89.5 46 Q107 37 139 37 Q179 37 199 62 Q219 87 219 143 L219 572 Q219 599 246 599 L247 599 Z " />
<glyph glyph-name="K" unicode="K" horiz-adv-x="507" d="M446 599 Q460 599 461 589.5 Q462 580 451 566 L286 370 L483 32 Q491 18 488 9 Q485 0 472 0 L462 0 Q442 0 430 19 L251 330 L138 200 L138 27 Q138 0 111 0 L110 0 Q83 0 83 27 L83 572 Q83 599 110 599 L111 599 Q138 599 138 572 L138 274 L399 584 Q413 599 432 599 L446 599 Z " />
<glyph glyph-name="L" unicode="L" horiz-adv-x="415" d="M111 599 Q138 599 138 572 L138 45 L378 45 Q405 45 405 23 Q405 0 378 0 L110 0 Q83 0 83 27 L83 572 Q83 599 110 599 L111 599 Z " />
<glyph glyph-name="M" unicode="M" horiz-adv-x="691" d="M581 599 Q608 599 608 572 L608 27 Q608 0 581 0 Q554 0 554 27 L554 554 L552 554 L379 22 Q372 0 349 0 L343 0 Q320 0 313 22 L139 554 L138 554 L138 27 Q138 0 111 0 L110 0 Q83 0 83 27 L83 572 Q83 599 110 599 L156 599 Q179 599 186 577 L344 91 L346 91 L505 577 Q512 599 535 599 L581 599 Z " />
<glyph glyph-name="N" unicode="N" horiz-adv-x="599" d="M489 599 Q516 599 516 572 L516 27 Q516 0 489 0 L481 0 Q461 0 449 19 L139 554 L138 554 L138 27 Q138 0 111 0 L110 0 Q83 0 83 27 L83 572 Q83 599 110 599 L154 599 Q174 599 186 580 L460 100 L461 100 L461 572 Q461 599 488 599 L489 599 Z " />
<glyph glyph-name="O" unicode="O" horiz-adv-x="554" d="M276 608 Q333 608 377 584.5 Q421 561 451 520 Q481 479 497 422.5 Q513 366 513 300 Q513 234 497 177.5 Q481 121 451 79.5 Q421 38 377 15 Q333 -8 276 -8 Q220 -8 176 15 Q132 38 102 79.5 Q72 121 56 177.5 Q40 234 40 300 Q40 366 56 422.5 Q72 479 102 520 Q132 561 176 584.5 Q220 608 276 608 Z M276 563 Q193 563 144 495 Q95 427 95 300 Q95 172 144 104.5 Q193 37 276 37 Q360 37 409 104.5 Q458 172 458 300 Q458 427 409 495 Q360 563 276 563 Z " />
<glyph glyph-name="P" unicode="P" horiz-adv-x="507" d="M264 599 Q371 599 418.5 553.5 Q466 508 466 432 Q466 357 418.5 311.5 Q371 266 264 266 L138 266 L138 27 Q138 0 111 0 L110 0 Q83 0 83 27 L83 572 Q83 599 110 599 L264 599 Z M138 310 L264 310 Q342 310 377 341.5 Q412 373 412 432 Q412 492 377 523 Q342 554 264 554 L138 554 L138 310 Z " />
<glyph glyph-name="Q" unicode="Q" horiz-adv-x="554" d="M276 608 Q333 608 377 584.5 Q421 561 451 520 Q481 479 497 422.5 Q513 366 513 300 Q513 223 492.5 161 Q472 99 432 57 Q447 29 464.5 17 Q482 5 508 1 Q535 -2 535 -25 Q535 -37 528 -43.5 Q521 -50 507 -48 Q474 -43 444 -26 Q414 -9 394 26 Q345 -8 276 -8 Q220 -8 176 15 Q132 38 102 79.5 Q72 121 56 177.5 Q40 234 40 300 Q40 366 56 422.5 Q72 479 102 520 Q132 561 176 584.5 Q220 608 276 608 Z M292 157 Q292 170 300 175.5 Q308 181 322 176 Q373 156 408 105 Q458 172 458 300 Q458 427 409 495 Q360 563 276 563 Q193 563 144 495 Q95 427 95 300 Q95 172 144 104.5 Q193 37 276 37 Q332 37 371 66 Q356 91 343.5 104.5 Q331 118 315 124 Q304 129 298 135.5 Q292 142 292 154 L292 157 Z " />
<glyph glyph-name="R" unicode="R" horiz-adv-x="554" d="M286 599 Q374 599 422 555 Q470 511 470 437 Q470 377 440 338.5 Q410 300 345 284 L475 32 Q483 18 479.5 9 Q476 0 462 0 L454 0 Q432 0 422 20 L293 274 L138 274 L138 27 Q138 0 111 0 L110 0 Q83 0 83 27 L83 572 Q83 599 110 599 L286 599 Z M138 319 L286 319 Q346 319 380.5 350 Q415 381 415 437 Q415 492 383 523 Q351 554 286 554 L138 554 L138 319 Z " />
<glyph glyph-name="S" unicode="S" horiz-adv-x="461" d="M216 608 Q280 608 327 577.5 Q374 547 398 490 Q404 478 399.5 469.5 Q395 461 384 457 Q362 450 351 474 Q333 514 299.5 538.5 Q266 563 216 563 Q163 563 130.5 534.5 Q98 506 98 452 Q98 437 101.5 423.5 Q105 410 117.5 397 Q130 384 154.5 370.5 Q179 357 220 341 Q283 317 322.5 296.5 Q362 276 384 254.5 Q406 233 414 208 Q422 183 422 150 Q422 112 407 82.5 Q392 53 367 33 Q342 13 309 2.5 Q276 -8 240 -8 Q161 -8 111.5 24.5 Q62 57 36 126 Q25 152 52 160 Q76 168 85 142 Q105 87 145 62 Q185 37 248 37 Q305 37 336.5 69.5 Q368 102 368 156 Q368 196 344 220 Q320 244 284 260.5 Q248 277 205.5 290.5 Q163 304 127 323.5 Q91 343 67 372.5 Q43 402 43 452 Q43 485 54.5 513.5 Q66 542 88 563 Q110 584 142 596 Q174 608 216 608 Z " />
<glyph glyph-name="T" unicode="T" horiz-adv-x="461" d="M409 599 Q436 599 436 577 Q436 554 409 554 L258 554 L258 27 Q258 0 231 0 L230 0 Q203 0 203 27 L203 554 L53 554 Q26 554 26 577 Q26 599 53 599 L409 599 Z " />
<glyph glyph-name="U" unicode="U" horiz-adv-x="599" d="M489 599 Q516 599 516 572 L516 196 Q516 -8 300 -8 Q83 -8 83 196 L83 572 Q83 599 110 599 L111 599 Q138 599 138 572 L138 191 Q138 105 179 71 Q220 37 300 37 Q380 37 420.5 71 Q461 105 461 191 L461 572 Q461 599 488 599 L489 599 Z " />
<glyph glyph-name="V" unicode="V" horiz-adv-x="461" d="M426 599 Q455 599 445 568 L263 22 Q256 0 233 0 L224 0 Q201 0 194 22 L17 568 Q12 582 18.5 590.5 Q25 599 39 599 L42 599 Q65 599 72 577 L227 78 L229 78 L390 577 Q397 599 420 599 L426 599 Z " />
<glyph glyph-name="W" unicode="W" horiz-adv-x="691" d="M650 599 Q677 599 669 569 L523 23 Q517 0 493 0 L486 0 Q462 0 456 24 L345 493 L344 493 L233 24 Q227 0 203 0 L196 0 Q172 0 166 23 L21 569 Q13 599 44 599 L45 599 Q69 599 75 576 L197 100 L198 100 L312 576 Q318 599 342 599 L349 599 Q373 599 379 575 L490 100 L491 100 L616 576 Q622 599 646 599 L650 599 Z " />
<glyph glyph-name="X" unicode="X" horiz-adv-x="461" d="M402 599 Q416 599 419.5 590 Q423 581 414 567 L261 314 L432 32 Q441 18 437.5 9 Q434 0 420 0 L408 0 Q388 0 376 18 L229 262 L86 18 Q74 0 54 0 L43 0 Q29 0 25 9 Q21 18 29 32 L197 314 L41 566 Q33 580 37.5 589.5 Q42 599 59 599 L64 599 Q84 599 96 581 L229 360 L358 581 Q370 599 390 599 L402 599 Z " />
<glyph glyph-name="Y" unicode="Y" horiz-adv-x="461" d="M414 599 Q428 599 431.5 590 Q435 581 427 567 L255 254 L255 27 Q255 0 228 0 L227 0 Q200 0 200 27 L200 254 L34 567 Q26 581 31.5 590 Q37 599 53 599 L56 599 Q78 599 88 579 L226 303 L373 580 Q383 599 405 599 L414 599 Z " />
<glyph glyph-name="Z" unicode="Z" horiz-adv-x="461" d="M392 599 Q419 599 419 572 L419 571 Q419 561 417 553.5 Q415 546 410 538 L106 45 L396 45 Q423 45 423 23 Q423 0 396 0 L65 0 Q38 0 38 27 Q38 37 40 44.5 Q42 52 47 60 L351 554 L91 554 Q64 554 64 577 Q64 599 91 599 L392 599 Z " />
<glyph glyph-name="bracketleft" unicode="&#x5b;" horiz-adv-x="215" d="M153 647 Q180 647 180 620 L180 619 Q180 592 153 592 L105 592 L105 -95 L153 -95 Q180 -95 180 -122 L180 -123 Q180 -150 153 -150 L77 -150 Q50 -150 50 -123 L50 620 Q50 647 77 647 L153 647 Z " />
<glyph glyph-name="backslash" unicode="&#x5c;" horiz-adv-x="305" d="M31 600 Q55 600 62 578 L299 -70 Q310 -101 281 -101 L275 -101 Q251 -101 244 -79 L6 569 Q1 583 7 591.5 Q13 600 28 600 L31 600 Z " />
<glyph glyph-name="bracketright" unicode="&#x5d;" horiz-adv-x="215" d="M138 647 Q165 647 165 620 L165 -123 Q165 -150 138 -150 L62 -150 Q35 -150 35 -123 L35 -122 Q35 -95 62 -95 L110 -95 L110 592 L62 592 Q35 592 35 619 L35 620 Q35 647 62 647 L138 647 Z " />
<glyph glyph-name="asciicircum" unicode="&#x5e;" horiz-adv-x="498" d="M217 580 Q227 599 249 599 Q271 599 281 580 L436 278 Q443 264 440 255 Q437 246 425 246 L419 246 Q397 246 387 265 L247 540 L111 266 Q101 246 79 246 L74 246 Q61 246 58 255 Q55 264 62 278 L217 580 Z " />
<glyph glyph-name="underscore" unicode="&#x5f;" horiz-adv-x="415" d="M388 -62 Q415 -62 415 -83 Q415 -104 388 -104 L27 -104 Q0 -104 0 -83 Q0 -62 27 -62 L388 -62 Z " />
<glyph glyph-name="grave" unicode="&#x60;" horiz-adv-x="184" d="M39 594 Q51 594 60 584 L127 501 Q134 493 132.5 486.5 Q131 480 123 480 L114 480 Q102 480 93 489 L9 573 Q1 581 3.5 587.5 Q6 594 18 594 L39 594 Z " />
<glyph glyph-name="a" unicode="a" horiz-adv-x="415" d="M298 314 Q298 357 276.5 378.5 Q255 400 199 400 Q134 400 89 344 Q72 322 58 332 Q40 343 55 365 Q82 405 118 422.5 Q154 440 201 440 Q275 440 310 408.5 Q345 377 345 305 L345 27 Q345 0 321 0 Q297 0 297 27 L297 52 Q259 22 224.5 7 Q190 -8 140 -8 Q89 -8 55.5 21.5 Q22 51 22 105 Q22 149 40 177 Q58 205 92.5 223.5 Q127 242 179 255.5 Q231 269 298 284 L298 314 Z M295 244 Q221 228 177 212 Q133 196 109.5 179 Q86 162 78.5 144 Q71 126 71 105 Q71 70 93 51 Q115 32 149 32 Q184 32 223.5 51 Q263 70 295 103 L295 244 Z " />
<glyph glyph-name="b" unicode="b" horiz-adv-x="461" d="M76 572 Q76 599 101 599 Q126 599 126 572 L126 375 Q158 409 187.5 424.5 Q217 440 261 440 Q299 440 330.5 423 Q362 406 384.5 376.5 Q407 347 419.5 306.5 Q432 266 432 218 Q432 107 387.5 49.5 Q343 -8 258 -8 Q213 -8 178 7.5 Q143 23 120 56 L115 25 Q111 0 94 0 Q76 0 76 27 L76 572 Z M126 129 Q126 110 138 95 Q160 68 187 50 Q214 32 256 32 Q288 32 312 45.5 Q336 59 351.5 83 Q367 107 374.5 139.5 Q382 172 382 209 Q382 251 373.5 286 Q365 321 348.5 346.5 Q332 372 307 386 Q282 400 248 400 Q233 400 217 394.5 Q201 389 186 380 Q171 371 158.5 360 Q146 349 137 338 Q130 330 128 322.5 Q126 315 126 305 L126 129 Z " />
<glyph glyph-name="c" unicode="c" horiz-adv-x="415" d="M216 440 Q269 440 305 416 Q341 392 362 350 Q376 324 351 317 Q329 310 317 332 Q300 361 276 380.5 Q252 400 216 400 Q155 400 117.5 358 Q80 316 80 216 Q80 132 115 82 Q150 32 216 32 Q256 32 282 50 Q308 68 331 100 Q346 121 365 112 Q386 101 369 78 Q343 40 306.5 16 Q270 -8 216 -8 Q171 -8 136 8.5 Q101 25 77.5 55 Q54 85 42 126 Q30 167 30 216 Q30 328 81 384 Q132 440 216 440 Z " />
<glyph glyph-name="d" unicode="d" horiz-adv-x="461" d="M335 572 Q335 599 360 599 Q385 599 385 572 L385 27 Q385 0 368 0 Q350 0 346 25 L342 56 Q318 23 283 7.5 Q248 -8 203 -8 Q118 -8 74 49.5 Q30 107 30 218 Q30 266 42.5 306.5 Q55 347 77.5 376.5 Q100 406 131.5 423 Q163 440 200 440 Q244 440 273.5 424.5 Q303 409 335 375 L335 572 Z M335 305 Q335 315 333 322.5 Q331 330 325 338 Q316 349 303 360 Q290 371 275 380 Q260 389 244 394.5 Q228 400 213 400 Q180 400 155 386 Q130 372 113.5 346.5 Q97 321 88.5 286 Q80 251 80 209 Q80 172 87.5 139.5 Q95 107 110.5 83 Q126 59 150 45.5 Q174 32 206 32 Q247 32 274 50 Q301 68 324 95 Q335 110 335 129 L335 305 Z " />
<glyph glyph-name="e" unicode="e" horiz-adv-x="415" d="M80 214 Q80 177 88 144 Q96 111 112.5 86 Q129 61 155 46.5 Q181 32 218 32 Q255 32 279 45.5 Q303 59 329 97 Q344 118 365 108 Q386 97 369 73 Q339 29 304 10.5 Q269 -8 214 -8 Q129 -8 79.5 46.5 Q30 101 30 216 Q30 266 42.5 307 Q55 348 78 377.5 Q101 407 134 423.5 Q167 440 208 440 Q290 440 332 385.5 Q374 331 379 242 Q381 214 353 214 L80 214 Z M330 254 Q322 321 292.5 360 Q263 399 206 400 Q173 400 149.5 385.5 Q126 371 110.5 349 Q95 327 87.5 301 Q80 275 80 254 L330 254 Z " />
<glyph glyph-name="f" unicode="f" horiz-adv-x="231" d="M80 493 Q80 550 104 579 Q128 608 183 608 Q198 608 213 605 Q237 602 237 580 Q237 561 213 566 Q207 567 201 567.5 Q195 568 188 568 Q159 568 144 552.5 Q129 537 129 499 L129 432 L190 432 Q217 432 217 412 Q217 392 190 392 L129 392 L129 27 Q129 0 105 0 Q80 0 80 27 L80 392 L35 392 Q8 392 8 412 Q8 432 35 432 L80 432 L80 493 Z " />
<glyph glyph-name="g" unicode="g" horiz-adv-x="415" d="M92 42 Q69 47 52 59 Q35 71 35 99 Q35 126 55.5 146.5 Q76 167 100 172 Q71 192 54 221.5 Q37 251 37 285 Q37 356 83.5 398 Q130 440 208 440 Q240 440 264 432 Q288 424 309 410 Q337 438 371 445 Q384 448 391.5 442.5 Q399 437 399 426 Q399 405 373 402 Q361 400 349.5 395.5 Q338 391 330 383 Q344 366 352.5 345 Q361 324 361 293 Q361 253 348 224.5 Q335 196 312 177.5 Q289 159 259 150.5 Q229 142 194 142 Q174 142 157.5 146 Q141 150 125 155 Q104 147 94.5 136 Q85 125 85 114 Q85 105 89.5 97.5 Q94 90 108 85.5 Q122 81 148 78.5 Q174 76 218 76 Q316 76 359 47 Q402 18 402 -36 Q402 -60 392 -81 Q382 -102 359 -118 Q336 -134 298.5 -143.5 Q261 -153 205 -153 Q149 -153 112.5 -144 Q76 -135 55 -121 Q34 -107 25.5 -88.5 Q17 -70 17 -51 Q17 -22 32 1 Q47 24 92 41 L92 42 Z M199 400 Q146 400 116.5 370.5 Q87 341 87 290 Q87 234 120.5 208 Q154 182 199 182 Q252 182 281.5 207.5 Q311 233 311 290 Q311 347 281.5 373.5 Q252 400 199 400 Z M194 32 Q157 32 132.5 26 Q108 20 93 9.5 Q78 -1 72 -14.5 Q66 -28 66 -42 Q66 -74 98 -93.5 Q130 -113 198 -113 Q279 -113 315.5 -93 Q352 -73 352 -39 Q352 -26 345.5 -13 Q339 0 321.5 10 Q304 20 273.5 26 Q243 32 194 32 Z " />
<glyph glyph-name="h" unicode="h" horiz-adv-x="461" d="M68 572 Q68 599 93 599 Q118 599 118 572 L118 364 Q153 400 185.5 420 Q218 440 266 440 Q333 440 363 402.5 Q393 365 393 295 L393 27 Q393 0 369 0 Q344 0 344 27 L344 290 Q344 344 325 372 Q306 400 256 400 Q220 400 194 382 Q168 364 133 332 Q118 318 118 298 L118 27 Q118 0 93 0 Q68 0 68 27 L68 572 Z " />
<glyph glyph-name="i" unicode="i" horiz-adv-x="184" d="M67 572 Q67 599 92 599 Q117 599 117 572 L117 553 Q117 526 92 526 Q67 526 67 553 L67 572 Z M67 405 Q67 432 92 432 Q117 432 117 405 L117 27 Q117 0 92 0 Q67 0 67 27 L67 405 Z " />
<glyph glyph-name="j" unicode="j" horiz-adv-x="184" d="M67 572 Q67 599 92 599 Q117 599 117 572 L117 553 Q117 526 92 526 Q67 526 67 553 L67 572 Z M67 405 Q67 432 92 432 Q117 432 117 405 L117 -69 Q117 -116 94 -134.5 Q71 -153 28 -153 Q23 -153 17 -153 Q11 -153 5 -152 Q-17 -149 -17 -128 Q-17 -110 12 -113 L18 -113 Q43 -113 55 -102.5 Q67 -92 67 -68 L67 405 Z " />
<glyph glyph-name="k" unicode="k" horiz-adv-x="415" d="M68 572 Q68 599 93 599 Q118 599 118 572 L118 203 L305 417 Q317 432 338 432 L347 432 Q358 432 358 422.5 Q358 413 346 399 L235 271 L378 32 Q386 18 383.5 9 Q381 0 369 0 L362 0 Q342 0 330 18 L203 236 L118 139 L118 27 Q118 0 93 0 Q68 0 68 27 L68 572 Z " />
<glyph glyph-name="l" unicode="l" horiz-adv-x="184" d="M67 572 Q67 599 92 599 Q117 599 117 572 L117 27 Q117 0 92 0 Q67 0 67 27 L67 572 Z " />
<glyph glyph-name="m" unicode="m" horiz-adv-x="691" d="M118 366 Q135 384 149.5 397.5 Q164 411 180.5 420.5 Q197 430 216.5 435 Q236 440 261 440 Q298 440 327.5 418.5 Q357 397 366 361 Q395 396 428.5 418 Q462 440 509 440 Q566 440 594.5 410 Q623 380 623 323 L623 27 Q623 0 598 0 Q573 0 573 27 L573 328 Q573 364 553.5 382 Q534 400 498 400 Q486 400 470.5 394.5 Q455 389 439 379.5 Q423 370 408 358 Q393 346 381 333 Q374 325 372 317.5 Q370 310 370 300 L370 27 Q370 0 345 0 Q320 0 320 27 L320 328 Q320 400 246 400 Q233 400 217.5 394.5 Q202 389 186 379.5 Q170 370 155 358 Q140 346 129 333 Q122 325 120 317.5 Q118 310 118 300 L118 27 Q118 0 93 0 Q68 0 68 27 L68 405 Q68 432 93 432 Q118 432 118 405 L118 366 Z " />
<glyph glyph-name="n" unicode="n" horiz-adv-x="461" d="M118 364 Q153 400 185.5 420 Q218 440 266 440 Q333 440 363 402.5 Q393 365 393 295 L393 27 Q393 0 369 0 Q344 0 344 27 L344 290 Q344 344 325 372 Q306 400 256 400 Q220 400 194 382 Q168 364 133 332 Q118 318 118 298 L118 27 Q118 0 93 0 Q68 0 68 27 L68 405 Q68 432 93 432 Q118 432 118 405 L118 364 Z " />
<glyph glyph-name="o" unicode="o" horiz-adv-x="415" d="M208 440 Q258 440 292 421.5 Q326 403 346.5 372 Q367 341 376 300.5 Q385 260 385 216 Q385 172 376 131.5 Q367 91 346.5 60 Q326 29 292 10.5 Q258 -8 208 -8 Q157 -8 123 10.5 Q89 29 68.5 60 Q48 91 39 131.5 Q30 172 30 216 Q30 260 39 300.5 Q48 341 68.5 372 Q89 403 123 421.5 Q157 440 208 440 Z M208 400 Q141 400 110.5 352 Q80 304 80 216 Q80 128 110.5 80 Q141 32 208 32 Q274 32 304.5 80 Q335 128 335 216 Q335 304 304.5 352 Q274 400 208 400 Z " />
<glyph glyph-name="p" unicode="p" horiz-adv-x="461" d="M128 365 Q154 403 185 421.5 Q216 440 258 440 Q300 440 332.5 421.5 Q365 403 387 371.5 Q409 340 420.5 299 Q432 258 432 213 Q432 101 384.5 46.5 Q337 -8 261 -8 Q217 -8 187.5 7.5 Q158 23 126 56 L126 -126 Q126 -153 101 -153 Q76 -153 76 -126 L76 405 Q76 432 101 432 Q126 432 126 405 L126 365 L128 365 Z M126 127 Q126 117 128 109.5 Q130 102 137 94 Q146 84 158.5 73 Q171 62 186 53 Q201 44 217 38 Q233 32 248 32 Q316 32 349 82 Q382 132 382 222 Q382 256 374.5 288 Q367 320 351.5 345 Q336 370 312 385 Q288 400 256 400 Q219 400 192.5 382 Q166 364 139 335 Q126 321 126 302 L126 127 Z " />
<glyph glyph-name="q" unicode="q" horiz-adv-x="461" d="M335 56 Q303 23 273.5 7.5 Q244 -8 200 -8 Q163 -8 131.5 8.5 Q100 25 77.5 54.5 Q55 84 42.5 124 Q30 164 30 212 Q30 322 74 379.5 Q118 437 203 437 Q248 437 281.5 419.5 Q315 402 342 373 L346 403 Q350 428 368 428 Q385 428 385 401 L385 -126 Q385 -153 360 -153 Q335 -153 335 -126 L335 56 Z M335 300 Q335 319 324 334 Q301 362 274 379.5 Q247 397 206 397 Q174 397 150 383.5 Q126 370 110.5 346 Q95 322 87.5 290 Q80 258 80 221 Q80 138 113 85 Q146 32 213 32 Q228 32 244 37.5 Q260 43 275 52 Q290 61 303 72 Q316 83 325 93 Q331 101 333 108.5 Q335 116 335 126 L335 300 Z " />
<glyph glyph-name="r" unicode="r" horiz-adv-x="276" d="M238 440 L236 440 L241 440 L238 440 Z M116 349 Q133 389 165 414 Q197 439 238 440 Q263 439 263 416 Q263 392 252 392 L241 392 Q220 392 198 380.5 Q176 369 157.5 349 Q139 329 127 302 Q115 275 115 244 L115 27 Q115 0 90 0 Q65 0 65 27 L65 405 Q65 432 90 432 Q115 432 115 405 L115 349 L116 349 Z " />
<glyph glyph-name="s" unicode="s" horiz-adv-x="369" d="M170 440 Q216 440 248 425.5 Q280 411 303 384 Q320 362 300 349 Q282 336 264 355 Q245 376 222.5 388 Q200 400 168 400 Q132 400 107.5 382 Q83 364 83 325 Q83 299 102 284.5 Q121 270 149 260.5 Q177 251 210 242.5 Q243 234 271 219.5 Q299 205 318 180.5 Q337 156 337 114 Q337 85 324.5 62.5 Q312 40 291.5 24 Q271 8 244 0 Q217 -8 188 -8 Q144 -8 105.5 7.5 Q67 23 37 57 Q20 79 39 92 Q57 104 73 83 Q99 52 126.5 42 Q154 32 191 32 Q233 32 260 55.5 Q287 79 287 114 Q287 145 268 162 Q249 179 221 189.5 Q193 200 160 207.5 Q127 215 99 227.5 Q71 240 52 262 Q33 284 33 322 Q33 352 44 374.5 Q55 397 74 411.5 Q93 426 118 433 Q143 440 170 440 Z " />
<glyph glyph-name="t" unicode="t" horiz-adv-x="231" d="M73 546 Q73 573 98 573 Q123 573 123 546 L123 432 L190 432 Q217 432 217 412 Q217 392 190 392 L123 392 L123 76 Q123 32 167 32 Q180 32 192 35 Q217 40 217 20 Q217 -1 192 -5 Q180 -8 167 -8 Q113 -8 93 10 Q73 28 73 67 L73 392 L35 392 Q8 392 8 412 Q8 432 35 432 L73 432 L73 546 Z " />
<glyph glyph-name="u" unicode="u" horiz-adv-x="461" d="M344 405 Q344 432 369 432 Q393 432 393 405 L393 27 Q393 0 369 0 Q344 0 344 27 L344 68 Q309 32 276.5 12 Q244 -8 196 -8 Q128 -8 98 29 Q68 66 68 137 L68 405 Q68 432 93 432 Q118 432 118 405 L118 142 Q118 88 136.5 60 Q155 32 206 32 Q242 32 268 50 Q294 68 329 100 Q344 114 344 134 L344 405 Z " />
<glyph glyph-name="v" unicode="v" horiz-adv-x="369" d="M331 432 Q357 432 346 401 L216 22 Q207 0 185 0 L182 0 Q159 0 152 22 L22 401 Q12 432 42 432 Q65 432 72 410 L183 76 L184 76 L297 410 Q304 432 327 432 L331 432 Z " />
<glyph glyph-name="w" unicode="w" horiz-adv-x="554" d="M522 432 Q533 432 538 424 Q543 416 538 402 L429 23 Q422 0 398 0 L397 0 Q373 0 367 23 L276 347 L274 347 L184 23 Q178 0 154 0 L150 0 Q126 0 120 23 L14 402 Q10 416 15 424 Q20 432 32 432 Q56 432 62 409 L151 85 L153 85 L245 409 Q251 432 275 432 L276 432 Q300 432 306 409 L397 85 L398 85 L490 409 Q496 432 520 432 L522 432 Z " />
<glyph glyph-name="x" unicode="x" horiz-adv-x="369" d="M314 432 Q327 432 329.5 422.5 Q332 413 323 399 L214 229 L339 33 Q348 19 345.5 9.5 Q343 0 330 0 L321 0 Q300 0 289 18 L184 182 L79 18 Q68 0 47 0 L38 0 Q25 0 22.5 9.5 Q20 19 29 33 L154 229 L46 399 Q37 413 42 422.5 Q47 432 64 432 Q85 432 96 414 L184 276 L273 414 Q284 432 305 432 L314 432 Z " />
<glyph glyph-name="y" unicode="y" horiz-adv-x="369" d="M332 432 Q344 432 348.5 423.5 Q353 415 348 401 L198 -31 Q187 -63 175 -86 Q163 -109 147 -124 Q131 -139 110 -146 Q89 -153 60 -153 Q53 -153 47 -153 Q41 -153 36 -152 Q13 -149 13 -128 Q13 -107 42 -112 Q47 -112 52.5 -112.5 Q58 -113 63 -113 Q89 -113 115.5 -86.5 Q142 -60 160 7 L21 401 Q16 415 22 423.5 Q28 432 42 432 Q65 432 72 410 L183 81 L185 81 L297 410 Q306 432 328 432 L332 432 Z " />
<glyph glyph-name="z" unicode="z" horiz-adv-x="369" d="M309 432 Q336 432 336 416 Q336 401 326 385 L87 40 L316 40 Q343 40 343 20 Q343 0 316 0 L48 0 Q21 0 21 16 Q21 31 31 47 L270 392 L68 392 Q41 392 41 412 Q41 432 68 432 L309 432 Z " />
<glyph glyph-name="braceleft" unicode="&#x7b;" horiz-adv-x="265" d="M202 650 Q229 650 229 623 L229 619 Q229 592 202 592 L181 592 Q154 592 154 565 L154 352 Q154 322 149 304 Q144 286 135.5 275 Q127 264 115 257.5 Q103 251 89 244 Q103 237 115 230.5 Q127 224 136 213 Q145 202 150 184.5 Q155 167 155 137 L155 -76 Q155 -103 182 -103 L203 -103 Q230 -103 230 -130 L230 -134 Q230 -161 204 -161 L178 -161 Q146 -161 123 -137 Q100 -113 100 -79 L100 137 Q100 163 86.5 182 Q73 201 50 209 Q38 213 31.5 219 Q25 225 25 238 L25 251 Q25 264 31.5 270 Q38 276 50 280 Q73 288 86 307 Q99 326 99 352 L99 568 Q99 602 121.5 626 Q144 650 176 650 L202 650 Z " />
<glyph glyph-name="verticalbar" unicode="&#x7c;" horiz-adv-x="155" d="M78 650 Q105 650 105 623 L105 -123 Q105 -150 78 -150 L77 -150 Q50 -150 50 -123 L50 623 Q50 650 77 650 L78 650 Z " />
<glyph glyph-name="braceright" unicode="&#x7d;" horiz-adv-x="265" d="M89 650 Q121 650 144 626 Q167 602 167 568 L167 352 Q167 326 180 307 Q193 288 215 280 Q227 276 233.5 270 Q240 264 240 251 L240 238 Q240 225 233.5 219 Q227 213 215 209 Q192 201 178.5 182 Q165 163 165 137 L165 -79 Q165 -113 142.5 -137 Q120 -161 88 -161 L62 -161 Q35 -161 35 -134 L35 -130 Q35 -103 62 -103 L83 -103 Q110 -103 110 -76 L110 137 Q110 167 115 184.5 Q120 202 129 213 Q138 224 150 230.5 Q162 237 176 244 Q162 251 150 257.5 Q138 264 129.5 275 Q121 286 116.5 304 Q112 322 112 352 L112 565 Q112 592 85 592 L64 592 Q37 592 37 619 L37 623 Q37 650 64 650 L89 650 Z " />
<glyph glyph-name="asciitilde" unicode="&#x7e;" horiz-adv-x="498" d="M154 266 Q177 266 202 258.5 Q227 251 253 240 Q278 229 302 220.5 Q326 212 345 212 Q365 212 379.5 222 Q394 232 406 246 Q424 269 440 252 Q458 234 443 215 Q428 195 404.5 180 Q381 165 344 165 Q321 165 296 173 Q271 181 245 192 Q220 202 196 211 Q172 220 153 220 Q133 220 118.5 210 Q104 200 92 186 Q74 163 58 180 Q40 198 55 217 Q70 237 94 251.5 Q118 266 154 266 Z " />
<glyph glyph-name="uni00A0" unicode="&#xa0;" horiz-adv-x="160" d="" />
<glyph glyph-name="exclamdown" unicode="&#xa1;" horiz-adv-x="184" d="M101 432 Q128 432 128 405 L128 384 Q128 357 101 357 L83 357 Q56 357 56 384 L56 405 Q56 432 83 432 L101 432 Z M70 221 Q72 247 92 247 Q112 247 114 221 L127 -141 Q129 -168 100 -168 L84 -168 Q55 -168 57 -141 L70 221 Z " />
<glyph glyph-name="cent" unicode="&#xa2;" horiz-adv-x="461" d="M310 500 Q317 522 340 522 Q362 522 352 491 L327 416 Q363 393 386 350 Q398 324 374 317 Q353 310 340 332 Q329 353 312 370 L203 37 Q211 34 220.5 33 Q230 32 239 32 Q279 32 305.5 50 Q332 68 355 100 Q370 121 389 112 Q409 101 392 78 Q366 41 329.5 16.5 Q293 -8 239 -8 Q226 -8 214 -7 Q202 -6 191 -2 L166 -78 Q159 -100 137 -100 Q115 -100 125 -69 L151 12 Q102 38 77.5 91.5 Q53 145 53 216 Q53 328 104 384 Q155 440 239 440 Q252 440 264.5 438 Q277 436 288 433 L310 500 Z M276 393 Q261 400 239 400 Q178 400 140.5 358 Q103 316 103 216 Q103 161 119 119.5 Q135 78 165 56 L276 393 Z " />
<glyph glyph-name="sterling" unicode="&#xa3;" horiz-adv-x="390" d="M77 351 Q77 388 89 417.5 Q101 447 122 468 Q143 489 172.5 500 Q202 511 236 511 Q293 511 333 481 Q355 463 334 442 L332 440 Q314 424 294 439 Q283 447 269.5 451.5 Q256 456 236 456 Q188 456 163 427 Q138 398 138 344 L138 277 L212 277 Q239 277 239 254 Q239 231 212 231 L138 231 L138 55 L326 55 Q353 55 353 28 L353 27 Q353 0 326 0 L104 0 Q77 0 77 27 L77 231 L60 231 Q33 231 33 254 Q33 277 60 277 L77 277 L77 351 Z " />
<glyph glyph-name="currency" unicode="&#xa4;" horiz-adv-x="461" d="M103 460 Q130 483 163 494 Q196 505 231 505 Q266 505 298.5 494 Q331 483 359 460 L386 487 Q405 506 421 490 Q436 473 418 455 L392 429 Q415 402 426 368.5 Q437 335 437 300 Q437 265 426 231.5 Q415 198 392 170 L418 144 Q437 126 421 110 Q405 94 386 113 L359 139 Q331 116 298.5 105 Q266 94 231 94 Q196 94 163 105 Q130 116 103 139 L76 113 Q56 95 41 110 Q25 125 44 144 L70 170 Q46 198 35.5 231.5 Q25 265 25 300 Q25 335 35.5 368.5 Q46 402 70 429 L44 455 Q25 474 41 490 Q57 506 75 487 L103 460 Z M231 466 Q198 466 168.5 452.5 Q139 439 117 416.5 Q95 394 82.5 363.5 Q70 333 70 300 Q70 266 82.5 236 Q95 206 117 183.5 Q139 161 168.5 147.5 Q198 134 231 134 Q264 134 293.5 147.5 Q323 161 345 183.5 Q367 206 379.5 236 Q392 266 392 300 Q392 333 379.5 363.5 Q367 394 345 416.5 Q323 439 293.5 452.5 Q264 466 231 466 Z " />
<glyph glyph-name="yen" unicode="&#xa5;" horiz-adv-x="461" d="M411 599 Q423 599 426 590 Q429 581 421 567 L314 365 L374 365 Q401 365 401 345 Q401 325 374 325 L293 325 L255 254 L255 244 L374 244 Q401 244 401 224 Q401 204 374 204 L255 204 L255 27 Q255 0 228 0 L227 0 Q200 0 200 27 L200 204 L81 204 Q54 204 54 224 Q54 244 81 244 L200 244 L200 254 L164 325 L81 325 Q54 325 54 345 Q54 365 81 365 L144 365 L40 567 Q32 581 37 590 Q42 599 56 599 Q78 599 88 579 L226 303 L373 580 Q383 599 405 599 L411 599 Z " />
<glyph glyph-name="brokenbar" unicode="&#xa6;" horiz-adv-x="242" d="M127 552 Q154 552 154 525 L154 333 Q154 306 127 306 L110 306 Q83 306 83 333 L83 525 Q83 552 110 552 L127 552 Z M127 194 Q154 194 154 167 L154 -25 Q154 -52 127 -52 L110 -52 Q83 -52 83 -25 L83 167 Q83 194 110 194 L127 194 Z " />
<glyph glyph-name="section" unicode="&#xa7;" horiz-adv-x="415" d="M150 415 Q130 430 114 454 Q98 478 98 511 Q98 554 128.5 581 Q159 608 208 608 Q244 608 271.5 592.5 Q299 577 318 549 Q332 528 315 516 Q299 506 284 529 Q270 549 250.5 560 Q231 571 203 571 Q175 571 157 555.5 Q139 540 139 505 Q139 488 155 467.5 Q171 447 195 424.5 Q219 402 246.5 377.5 Q274 353 298 328 Q322 303 338 276.5 Q354 250 354 224 Q354 173 328 153 Q302 133 263 131 Q283 108 296 82 Q309 56 309 26 Q309 2 299 -15.5 Q289 -33 272.5 -44.5 Q256 -56 235.5 -61 Q215 -66 193 -66 Q161 -66 132 -52 Q103 -38 84 -12 Q76 -1 78 8 Q80 17 89 22 Q104 32 119 9 Q133 -8 151.5 -19 Q170 -30 193 -30 Q228 -30 247.5 -15 Q267 0 267 32 Q267 51 251 73 Q235 95 211 120 Q187 145 159 171.5 Q131 198 107 225 Q83 252 67 278.5 Q51 305 51 329 Q51 369 79.5 391 Q108 413 149 413 L150 415 Z M148 387 Q129 387 111 373.5 Q93 360 93 337 Q93 320 113.5 290 Q134 260 161 230.5 Q188 201 215 179.5 Q242 158 256 158 Q282 158 297 174.5 Q312 191 312 216 Q312 230 293 258.5 Q274 287 248 315.5 Q222 344 194 365.5 Q166 387 148 387 Z " />
<glyph glyph-name="dieresis" unicode="&#xa8;" horiz-adv-x="184" d="M38 566 Q55 566 55 549 L55 505 Q55 488 38 488 L17 488 Q0 488 0 505 L0 549 Q0 566 17 566 L38 566 Z M167 566 Q184 566 184 549 L184 505 Q184 488 167 488 L146 488 Q129 488 129 505 L129 549 Q129 566 146 566 L167 566 Z " />
<glyph glyph-name="copyright" unicode="&#xa9;" horiz-adv-x="626" d="M313 510 Q366 510 413 490 Q460 470 495 435 Q530 400 550 353 Q570 306 570 253 Q570 200 550 153 Q530 106 495 71 Q460 36 413 16 Q366 -4 313 -4 Q260 -4 213 16 Q166 36 131 71 Q96 106 75.5 153 Q55 200 55 253 Q55 306 75.5 353 Q96 400 131 435 Q166 470 213 490 Q260 510 313 510 Z M313 472 Q268 472 228.5 454.5 Q189 437 160 407.5 Q131 378 114 338 Q97 298 97 253 Q97 208 114 168 Q131 128 160 98.5 Q189 69 228.5 51.5 Q268 34 313 34 Q358 34 397 51.5 Q436 69 465.5 98.5 Q495 128 512 168 Q529 208 529 253 Q529 298 512 338 Q495 378 465.5 407.5 Q436 437 397 454.5 Q358 472 313 472 Z M397 159 Q411 145 396 134 Q379 121 360 115 Q341 109 316 109 Q254 109 222 149.5 Q190 190 190 253 Q190 316 222 357 Q254 398 316 398 Q341 398 359.5 392 Q378 386 396 372 Q410 359 397 348 L395 346 Q385 336 371 345 Q357 355 345 359 Q333 363 316 363 Q268 363 249 330.5 Q230 298 230 253 Q230 208 249 176 Q268 144 316 144 Q333 144 345 148 Q357 152 371 161 Q385 170 396 160 L397 159 Z " />
<glyph glyph-name="ordfeminine" unicode="&#xaa;" horiz-adv-x="249" d="M179 538 Q179 554 168 564 Q157 574 126 574 Q103 574 87.5 567 Q72 560 59 546 Q49 535 36 542 Q22 550 32 565 Q65 608 130 608 Q178 608 199.5 589 Q221 570 221 528 L221 362 Q221 345 204 345 L202 345 Q185 345 185 362 L185 377 Q163 358 141.5 349 Q120 340 88 340 Q55 340 32.5 358 Q10 376 10 408 Q10 441 29 459.5 Q48 478 74.5 489 Q101 500 130 505.5 Q159 511 179 517 L179 538 Z M179 481 Q166 477 144 472 Q122 467 101.5 459.5 Q81 452 66 439.5 Q51 427 51 408 Q51 393 62 383.5 Q73 374 93 374 Q116 374 140.5 384.5 Q165 395 179 412 L179 481 Z " />
<glyph glyph-name="guillemotleft" unicode="&#xab;" horiz-adv-x="415" d="M196 344 Q207 344 210 337.5 Q213 331 206 323 L130 229 Q120 217 130 205 L206 109 Q213 100 210 94 Q207 88 196 88 L181 88 Q169 88 160 98 L77 205 Q68 217 77 229 L160 334 Q169 344 181 344 L196 344 Z M320 344 Q331 344 334 337.5 Q337 331 330 323 L253 229 Q243 217 253 205 L330 109 Q337 100 334 94 Q331 88 320 88 L305 88 Q293 88 284 98 L200 205 Q191 217 200 229 L284 334 Q293 344 305 344 L320 344 Z " />
<glyph glyph-name="logicalnot" unicode="&#xac;" horiz-adv-x="498" d="M448 321 Q465 321 465 304 L465 127 Q465 110 448 110 L437 110 Q420 110 420 127 L420 259 Q420 276 403 276 L50 276 Q33 276 33 293 L33 304 Q33 321 50 321 L448 321 Z " />
<glyph glyph-name="registered" unicode="&#xae;" horiz-adv-x="626" d="M313 510 Q366 510 413 490 Q460 470 495 435 Q530 400 550 353 Q570 306 570 253 Q570 200 550 153 Q530 106 495 71 Q460 36 413 16 Q366 -4 313 -4 Q260 -4 213 16 Q166 36 131 71 Q96 106 75.5 153 Q55 200 55 253 Q55 306 75.5 353 Q96 400 131 435 Q166 470 213 490 Q260 510 313 510 Z M313 473 Q268 473 228.5 455.5 Q189 438 160 408 Q131 378 114 338 Q97 298 97 253 Q97 208 114 168 Q131 128 160 98 Q189 68 228.5 50.5 Q268 33 313 33 Q358 33 397.5 50.5 Q437 68 466.5 98 Q496 128 513 168 Q530 208 530 253 Q530 298 513 338 Q496 378 466.5 408 Q437 438 397.5 455.5 Q358 473 313 473 Z M325 395 Q362 395 388 370.5 Q414 346 414 310 Q414 279 396.5 259.5 Q379 240 353 232 L403 144 Q411 130 409.5 121 Q408 112 398 112 L397 112 Q375 112 365 131 L311 228 L268 228 L268 139 Q268 112 249 112 Q229 112 229 139 L229 368 Q229 395 256 395 L325 395 Z M268 261 L321 261 Q344 261 359 275 Q374 289 374 310 Q374 331 359 345.5 Q344 360 321 360 L268 360 L268 261 Z " />
<glyph glyph-name="overscore" unicode="&#xaf;" horiz-adv-x="184" d="M188 549 Q215 549 215 531 Q215 512 188 512 L-4 512 Q-31 512 -31 531 Q-31 549 -4 549 L188 549 Z " />
<glyph glyph-name="degree" unicode="&#xb0;" horiz-adv-x="329" d="M165 510 Q189 510 210 501 Q231 492 247 476 Q263 460 272 439 Q281 418 281 394 Q281 370 272 348.5 Q263 327 247 311 Q231 295 210 286 Q189 277 165 277 Q141 277 119.5 286 Q98 295 82 311 Q66 327 57 348.5 Q48 370 48 394 Q48 418 57 439 Q66 460 82 476 Q98 492 119.5 501 Q141 510 165 510 Z M164 469 Q132 469 111.5 447.5 Q91 426 91 394 Q91 362 112 340 Q133 318 165 318 Q197 318 217.5 340 Q238 362 238 394 Q238 426 217 447.5 Q196 469 164 469 Z " />
<glyph glyph-name="plusminus" unicode="&#xb1;" horiz-adv-x="498" d="M227 405 Q227 432 249 432 Q271 432 271 405 L271 278 L438 278 Q465 278 465 256 Q465 233 438 233 L271 233 L271 107 Q271 80 249 80 Q227 80 227 107 L227 233 L60 233 Q33 233 33 256 Q33 278 60 278 L227 278 L227 405 Z M438 45 Q465 45 465 23 Q465 0 438 0 L60 0 Q33 0 33 23 Q33 45 60 45 L438 45 Z " />
<glyph glyph-name="twosuperior" unicode="&#xb2;" horiz-adv-x="246" d="M86 417 Q86 390 59 390 Q32 390 32 416 Q32 457 58 480 Q84 503 123 503 Q163 503 188.5 480 Q214 457 214 416 Q214 394 205.5 379.5 Q197 365 182 347 L97 249 L187 249 Q214 249 214 225 Q214 200 187 200 L59 200 Q32 200 32 227 L32 230 Q32 249 45 263 L145 379 Q160 397 160 416 Q160 433 150.5 443.5 Q141 454 123 454 Q109 454 97.5 446 Q86 438 86 416 L86 417 Z " />
<glyph glyph-name="threesuperior" unicode="&#xb3;" horiz-adv-x="254" d="M63 418 Q50 418 43 425.5 Q36 433 41 447 Q50 473 73.5 488 Q97 503 127 503 Q167 503 192.5 479 Q218 455 218 417 Q218 393 208.5 378 Q199 363 183 355 Q200 346 211.5 330 Q223 314 223 286 Q223 241 194.5 219 Q166 197 128 197 Q97 197 71 211 Q45 225 36 256 Q32 270 39.5 277.5 Q47 285 61 285 L63 285 Q74 285 79.5 279.5 Q85 274 92 263 Q104 245 128 245 Q146 245 157.5 256.5 Q169 268 169 288 Q169 307 158 318.5 Q147 330 126 330 L145 330 Q118 330 118 353 Q118 376 126 376 Q146 376 155.5 387 Q165 398 165 415 Q165 435 153.5 444.5 Q142 454 127 454 Q107 454 96 440 Q89 429 83.5 423.5 Q78 418 66 418 L63 418 Z " />
<glyph glyph-name="acute" unicode="&#xb4;" horiz-adv-x="184" d="M166 594 Q178 594 180.5 587.5 Q183 581 175 573 L91 489 Q82 480 70 480 L61 480 Q53 480 51.5 486.5 Q50 493 57 501 L124 584 Q133 594 145 594 L166 594 Z " />
<glyph glyph-name="paragraph" unicode="&#xb6;" horiz-adv-x="415" d="M390 599 Q417 599 417 581 Q417 563 390 563 L355 563 L355 -39 Q355 -66 335 -66 Q314 -66 314 -39 L314 563 L227 563 L227 -39 Q227 -66 206 -66 Q185 -66 185 -39 L185 279 Q149 279 117.5 291.5 Q86 304 62.5 325.5 Q39 347 26 376 Q13 405 13 437 Q13 515 61.5 557 Q110 599 198 599 L390 599 Z " />
<glyph glyph-name="periodcentered" unicode="&#xb7;" horiz-adv-x="192" d="M102 225 Q129 225 129 198 L129 185 Q129 158 102 158 L89 158 Q62 158 62 185 L62 198 Q62 225 89 225 L102 225 Z " />
<glyph glyph-name="cedilla" unicode="&#xb8;" horiz-adv-x="184" d="M95 0 Q101 0 100.5 -6.5 Q100 -13 93 -21 L75 -42 L76 -43 Q80 -41 87 -39.5 Q94 -38 102 -38 Q132 -38 149.5 -57 Q167 -76 167 -108 Q167 -125 158.5 -137 Q150 -149 137 -157 Q124 -165 109 -169 Q94 -173 80 -173 Q45 -173 15 -163 Q0 -157 6 -141 Q12 -126 28 -132 Q36 -135 44.5 -137 Q53 -139 61 -139 Q115 -139 115 -105 Q115 -88 103.5 -79.5 Q92 -71 78 -71 Q66 -71 55 -74 Q42 -78 36 -74 Q28 -68 39 -55 L71 -10 Q80 0 92 0 L95 0 Z " />
<glyph glyph-name="onesuperior" unicode="&#xb9;" horiz-adv-x="195" d="M126 500 Q143 500 143 483 L143 217 Q143 200 126 200 L106 200 Q89 200 89 217 L89 440 L49 404 Q41 397 34.5 400 Q28 403 28 414 L28 434 Q28 446 38 455 L80 492 Q88 500 101 500 L126 500 Z " />
<glyph glyph-name="ordmasculine" unicode="&#xba;" horiz-adv-x="249" d="M125 608 Q158 608 180 597 Q202 586 215.5 567.5 Q229 549 234.5 524.5 Q240 500 240 474 Q240 448 234.5 423.5 Q229 399 215.5 380.5 Q202 362 180 351 Q158 340 125 340 Q92 340 69.5 351 Q47 362 33.5 380.5 Q20 399 14 423.5 Q8 448 8 474 Q8 500 14 524.5 Q20 549 33.5 567.5 Q47 586 69.5 597 Q92 608 125 608 Z M125 569 Q84 569 69.5 544.5 Q55 520 55 474 Q55 426 69.5 402 Q84 378 125 378 Q164 378 178.5 402 Q193 426 193 474 Q193 520 178.5 544.5 Q164 569 125 569 Z " />
<glyph glyph-name="guillemotright" unicode="&#xbb;" horiz-adv-x="415" d="M110 344 Q122 344 131 334 L215 226 Q224 214 214 202 L131 98 Q122 88 110 88 L95 88 Q84 88 81 94.5 Q78 101 85 109 L162 202 Q173 214 162 226 L85 323 Q78 332 81 338 Q84 344 95 344 L110 344 Z M234 344 Q246 344 255 334 L338 226 Q347 214 338 202 L255 98 Q246 88 234 88 L219 88 Q208 88 205 94.5 Q202 101 209 109 L285 202 Q296 214 285 226 L208 323 Q201 332 204.5 338 Q208 344 219 344 L234 344 Z " />
<glyph glyph-name="onequarter" unicode="&#xbc;" horiz-adv-x="567" d="M126 500 Q143 500 143 483 L143 217 Q143 200 126 200 L106 200 Q89 200 89 217 L89 440 L49 404 Q41 397 34.5 400 Q28 403 28 414 L28 434 Q28 446 38 455 L80 492 Q88 500 101 500 L126 500 Z M397 500 Q418 500 410 480 L189 13 Q183 0 169 0 L148 0 Q127 0 135 20 L356 487 Q362 500 376 500 L397 500 Z M476 300 Q499 300 489 280 L395 93 L459 93 L459 134 Q459 151 476 151 L494 151 Q511 151 511 134 L511 93 L522 93 Q539 93 539 76 L539 60 Q539 43 525 43 L511 43 L511 17 Q511 0 494 0 L476 0 Q459 0 459 17 L459 43 L354 43 Q337 43 337 60 L337 82 Q337 94 342 103 L434 288 Q440 300 454 300 L476 300 Z " />
<glyph glyph-name="onehalf" unicode="&#xbd;" horiz-adv-x="581" d="M126 500 Q143 500 143 483 L143 217 Q143 200 126 200 L106 200 Q89 200 89 217 L89 440 L49 404 Q41 397 34.5 400 Q28 403 28 414 L28 434 Q28 446 38 455 L80 492 Q88 500 101 500 L126 500 Z M391 500 Q412 500 404 480 L184 13 Q178 0 164 0 L143 0 Q122 0 130 20 L350 487 Q356 500 370 500 L391 500 Z M385 216 Q366 216 369 234 Q374 266 398.5 284.5 Q423 303 458 303 Q497 303 523 280 Q549 257 549 216 Q549 194 540.5 179 Q532 164 517 147 L432 48 L532 48 Q549 48 549 31 L549 17 Q549 0 532 0 L384 0 Q367 0 367 17 L367 36 Q367 49 375 57 L480 179 Q495 197 495 216 Q495 233 485.5 243.5 Q476 254 458 254 Q447 254 437.5 249 Q428 244 423 232 Q421 224 417 220 Q413 216 405 216 L385 216 Z " />
<glyph glyph-name="threequarters" unicode="&#xbe;" horiz-adv-x="593" d="M54 418 Q35 418 38 436 Q45 468 69.5 485.5 Q94 503 127 503 Q167 503 192.5 479 Q218 455 218 417 Q218 393 208.5 378 Q199 363 183 355 Q200 346 211.5 330 Q223 314 223 286 Q223 241 194.5 219 Q166 197 128 197 Q95 197 67.5 213.5 Q40 230 33 267 Q32 285 50 285 L70 285 Q78 285 82 281.5 Q86 278 89 270 Q94 257 104.5 251 Q115 245 128 245 Q146 245 157.5 256.5 Q169 268 169 288 Q169 307 158 318.5 Q147 330 126 330 L135 330 Q118 330 118 347 L118 359 Q118 376 126 376 Q146 376 155.5 387 Q165 398 165 415 Q165 435 153.5 444.5 Q142 454 127 454 Q101 454 92 433 Q88 418 74 418 L54 418 Z M426 500 Q447 500 439 480 L219 13 Q213 0 199 0 L178 0 Q157 0 165 20 L385 487 Q391 500 405 500 L426 500 Z M502 300 Q525 300 515 280 L421 93 L485 93 L485 134 Q485 151 502 151 L519 151 Q536 151 536 134 L536 93 L548 93 Q565 93 565 76 L565 60 Q565 43 551 43 L536 43 L536 17 Q536 0 519 0 L502 0 Q485 0 485 17 L485 43 L380 43 Q363 43 363 60 L363 82 Q363 94 368 103 L460 288 Q466 300 480 300 L502 300 Z " />
<glyph glyph-name="questiondown" unicode="&#xbf;" horiz-adv-x="323" d="M200 432 Q227 432 227 405 L227 384 Q227 357 200 357 L182 357 Q155 357 155 384 L155 405 Q155 432 182 432 L200 432 Z M166 222 Q166 249 189 249 Q211 249 211 222 L211 189 Q211 157 190.5 130 Q170 103 145.5 75.5 Q121 48 100.5 17.5 Q80 -13 80 -51 Q80 -90 104 -110.5 Q128 -131 163 -131 Q194 -131 214 -114.5 Q234 -98 245 -78 Q258 -54 278 -64 Q301 -74 288 -98 Q269 -134 238 -155 Q207 -176 162 -176 Q135 -176 110 -167.5 Q85 -159 66.5 -141.5 Q48 -124 36.5 -99 Q25 -74 25 -41 Q25 1 47 30.5 Q69 60 95.5 87 Q122 114 144 142 Q166 170 166 209 L166 222 Z " />
<glyph glyph-name="Agrave" unicode="&#xc0;" horiz-adv-x="507" d="M225 761 Q237 761 246 751 L313 668 Q320 660 318.5 653.5 Q317 647 309 647 L300 647 Q288 647 279 656 L195 740 Q187 748 189.5 754.5 Q192 761 204 761 L225 761 Z M273 599 Q296 599 303 577 L476 31 Q486 0 457 0 L451 0 Q427 0 420 22 L367 196 L140 196 L86 22 Q79 0 56 0 L50 0 Q21 0 31 31 L205 577 Q212 599 235 599 L273 599 Z M354 241 L255 554 L253 554 L154 241 L354 241 Z " />
<glyph glyph-name="Aacute" unicode="&#xc1;" horiz-adv-x="507" d="M304 761 Q316 761 318.5 754.5 Q321 748 313 740 L229 656 Q220 647 208 647 L199 647 Q191 647 189.5 653.5 Q188 660 195 668 L262 751 Q271 761 283 761 L304 761 Z M273 599 Q296 599 303 577 L476 31 Q486 0 457 0 L451 0 Q427 0 420 22 L367 196 L140 196 L86 22 Q79 0 56 0 L50 0 Q21 0 31 31 L205 577 Q212 599 235 599 L273 599 Z M354 241 L255 554 L253 554 L154 241 L354 241 Z " />
<glyph glyph-name="Acircumflex" unicode="&#xc2;" horiz-adv-x="507" d="M269 761 Q281 761 290 751 L360 668 Q367 660 364 653.5 Q361 647 350 647 L335 647 Q323 647 314 657 L254 731 L194 657 Q185 647 173 647 L158 647 Q147 647 144 653.5 Q141 660 148 668 L218 751 Q227 761 239 761 L269 761 Z M273 599 Q296 599 303 577 L476 31 Q486 0 457 0 L451 0 Q427 0 420 22 L367 196 L140 196 L86 22 Q79 0 56 0 L50 0 Q21 0 31 31 L205 577 Q212 599 235 599 L273 599 Z M354 241 L255 554 L253 554 L154 241 L354 241 Z " />
<glyph glyph-name="Atilde" unicode="&#xc3;" horiz-adv-x="507" d="M369 741 Q385 741 380 722 Q373 696 358 678 Q343 660 311 660 Q297 660 282 666 Q267 672 251 679 Q235 686 220.5 691.5 Q206 697 194 697 Q180 697 172 689 Q164 681 159 670 Q153 656 140 656 L139 656 Q132 656 128.5 661 Q125 666 127 674 Q134 698 152.5 717 Q171 736 197 736 Q213 736 228 730.5 Q243 725 258 718 Q274 711 288 705.5 Q302 700 316 700 Q329 700 337 707.5 Q345 715 349 726 Q355 741 368 741 L369 741 Z M273 599 Q296 599 303 577 L476 31 Q486 0 457 0 L451 0 Q427 0 420 22 L367 196 L140 196 L86 22 Q79 0 56 0 L50 0 Q21 0 31 31 L205 577 Q212 599 235 599 L273 599 Z M354 241 L255 554 L253 554 L154 241 L354 241 Z " />
<glyph glyph-name="Adieresis" unicode="&#xc4;" horiz-adv-x="507" d="M200 733 Q217 733 217 716 L217 672 Q217 655 200 655 L179 655 Q162 655 162 672 L162 716 Q162 733 179 733 L200 733 Z M329 733 Q346 733 346 716 L346 672 Q346 655 329 655 L308 655 Q291 655 291 672 L291 716 Q291 733 308 733 L329 733 Z M273 599 Q296 599 303 577 L476 31 Q486 0 457 0 L451 0 Q427 0 420 22 L367 196 L140 196 L86 22 Q79 0 56 0 L50 0 Q21 0 31 31 L205 577 Q212 599 235 599 L273 599 Z M354 241 L255 554 L253 554 L154 241 L354 241 Z " />
<glyph glyph-name="Aring" unicode="&#xc5;" horiz-adv-x="507" d="M254 809 Q288 809 312.5 785 Q337 761 337 726 Q337 691 312.5 667 Q288 643 254 643 Q220 643 195.5 667 Q171 691 171 726 Q171 761 195.5 785 Q220 809 254 809 Z M254 781 Q231 781 215 765 Q199 749 199 726 Q199 703 215 687.5 Q231 672 254 672 Q277 672 293 687.5 Q309 703 309 726 Q309 749 293 765 Q277 781 254 781 Z M273 599 Q296 599 303 577 L476 31 Q486 0 457 0 L451 0 Q427 0 420 22 L367 196 L140 196 L86 22 Q79 0 56 0 L50 0 Q21 0 31 31 L205 577 Q212 599 235 599 L273 599 Z M354 241 L255 554 L253 554 L154 241 L354 241 Z " />
<glyph glyph-name="AE" unicode="&#xc6;" horiz-adv-x="784" d="M708 599 Q735 599 735 577 Q735 554 708 554 L452 554 L452 334 L627 334 Q654 334 654 312 Q654 289 627 289 L452 289 L452 45 L723 45 Q750 45 750 23 Q750 0 723 0 L425 0 Q398 0 398 27 L398 196 L181 196 L86 19 Q76 0 54 0 L46 0 Q32 0 28.5 9 Q25 18 33 32 L338 580 Q350 599 371 599 L708 599 Z M208 241 L398 241 L398 553 L383 553 L208 241 Z " />
<glyph glyph-name="Ccedilla" unicode="&#xc7;" horiz-adv-x="507" d="M243 -6 Q195 0 157 24 Q119 48 93 88 Q67 128 53.5 181.5 Q40 235 40 300 Q40 369 55.5 426 Q71 483 100.5 523.5 Q130 564 173 586 Q216 608 271 608 Q344 608 388 566.5 Q432 525 454 461 Q464 434 437 429 Q413 423 404 448 Q383 503 349 533 Q315 563 266 563 Q221 563 189 542.5 Q157 522 136 486.5 Q115 451 105 403 Q95 355 95 300 Q95 245 105 197 Q115 149 136.5 113.5 Q158 78 191.5 57.5 Q225 37 271 37 Q303 37 327 46.5 Q351 56 368 72.5 Q385 89 396.5 111 Q408 133 415 158 Q423 182 448 178 Q474 173 468 146 Q449 77 403 34.5 Q357 -8 271 -8 L268 -8 Q266 -14 261 -21 L243 -42 L244 -43 Q248 -41 255 -39.5 Q262 -38 270 -38 Q300 -38 317.5 -57 Q335 -76 335 -108 Q335 -125 326.5 -137 Q318 -149 305 -157 Q292 -165 277 -169 Q262 -173 248 -173 Q213 -173 183 -163 Q168 -157 174 -141 Q180 -126 196 -132 Q204 -135 212.5 -137 Q221 -139 229 -139 Q283 -139 283 -105 Q283 -88 271.5 -79.5 Q260 -71 246 -71 Q234 -71 223 -74 Q210 -78 204 -74 Q196 -68 207 -55 L239 -10 L243 -6 Z " />
<glyph glyph-name="Egrave" unicode="&#xc8;" horiz-adv-x="461" d="M202 761 Q214 761 223 751 L290 668 Q297 660 295.5 653.5 Q294 647 286 647 L277 647 Q265 647 256 656 L172 740 Q164 748 166.5 754.5 Q169 761 181 761 L202 761 Z M398 599 Q425 599 425 577 Q425 554 398 554 L138 554 L138 334 L317 334 Q344 334 344 312 Q344 289 317 289 L138 289 L138 45 L414 45 Q441 45 441 23 Q441 0 414 0 L110 0 Q83 0 83 27 L83 572 Q83 599 110 599 L398 599 Z " />
<glyph glyph-name="Eacute" unicode="&#xc9;" horiz-adv-x="461" d="M281 761 Q293 761 295.5 754.5 Q298 748 290 740 L206 656 Q197 647 185 647 L176 647 Q168 647 166.5 653.5 Q165 660 172 668 L239 751 Q248 761 260 761 L281 761 Z M398 599 Q425 599 425 577 Q425 554 398 554 L138 554 L138 334 L317 334 Q344 334 344 312 Q344 289 317 289 L138 289 L138 45 L414 45 Q441 45 441 23 Q441 0 414 0 L110 0 Q83 0 83 27 L83 572 Q83 599 110 599 L398 599 Z " />
<glyph glyph-name="Ecircumflex" unicode="&#xca;" horiz-adv-x="461" d="M246 761 Q258 761 267 751 L337 668 Q344 660 341 653.5 Q338 647 327 647 L312 647 Q300 647 291 657 L231 731 L171 657 Q162 647 150 647 L135 647 Q124 647 121 653.5 Q118 660 125 668 L195 751 Q204 761 216 761 L246 761 Z M398 599 Q425 599 425 577 Q425 554 398 554 L138 554 L138 334 L317 334 Q344 334 344 312 Q344 289 317 289 L138 289 L138 45 L414 45 Q441 45 441 23 Q441 0 414 0 L110 0 Q83 0 83 27 L83 572 Q83 599 110 599 L398 599 Z " />
<glyph glyph-name="Edieresis" unicode="&#xcb;" horiz-adv-x="461" d="M177 733 Q194 733 194 716 L194 672 Q194 655 177 655 L156 655 Q139 655 139 672 L139 716 Q139 733 156 733 L177 733 Z M306 733 Q323 733 323 716 L323 672 Q323 655 306 655 L285 655 Q268 655 268 672 L268 716 Q268 733 285 733 L306 733 Z M398 599 Q425 599 425 577 Q425 554 398 554 L138 554 L138 334 L317 334 Q344 334 344 312 Q344 289 317 289 L138 289 L138 45 L414 45 Q441 45 441 23 Q441 0 414 0 L110 0 Q83 0 83 27 L83 572 Q83 599 110 599 L398 599 Z " />
<glyph glyph-name="Igrave" unicode="&#xcc;" horiz-adv-x="231" d="M87 761 Q99 761 108 751 L175 668 Q182 660 180.5 653.5 Q179 647 171 647 L162 647 Q150 647 141 656 L57 740 Q49 748 51.5 754.5 Q54 761 66 761 L87 761 Z M116 599 Q143 599 143 572 L143 27 Q143 0 116 0 L115 0 Q88 0 88 27 L88 572 Q88 599 115 599 L116 599 Z " />
<glyph glyph-name="Iacute" unicode="&#xcd;" horiz-adv-x="231" d="M166 761 Q178 761 180.5 754.5 Q183 748 175 740 L91 656 Q82 647 70 647 L61 647 Q53 647 51.5 653.5 Q50 660 57 668 L124 751 Q133 761 145 761 L166 761 Z M116 599 Q143 599 143 572 L143 27 Q143 0 116 0 L115 0 Q88 0 88 27 L88 572 Q88 599 115 599 L116 599 Z " />
<glyph glyph-name="Icircumflex" unicode="&#xce;" horiz-adv-x="231" d="M131 761 Q143 761 152 751 L222 668 Q229 660 226 653.5 Q223 647 212 647 L197 647 Q185 647 176 657 L116 731 L56 657 Q47 647 35 647 L20 647 Q9 647 6 653.5 Q3 660 10 668 L80 751 Q89 761 101 761 L131 761 Z M116 599 Q143 599 143 572 L143 27 Q143 0 116 0 L115 0 Q88 0 88 27 L88 572 Q88 599 115 599 L116 599 Z " />
<glyph glyph-name="Idieresis" unicode="&#xcf;" horiz-adv-x="231" d="M62 733 Q79 733 79 716 L79 672 Q79 655 62 655 L41 655 Q24 655 24 672 L24 716 Q24 733 41 733 L62 733 Z M191 733 Q208 733 208 716 L208 672 Q208 655 191 655 L170 655 Q153 655 153 672 L153 716 Q153 733 170 733 L191 733 Z M116 599 Q143 599 143 572 L143 27 Q143 0 116 0 L115 0 Q88 0 88 27 L88 572 Q88 599 115 599 L116 599 Z " />
<glyph glyph-name="Eth" unicode="&#xd0;" horiz-adv-x="554" d="M252 599 Q322 599 371.5 575 Q421 551 452.5 509.5 Q484 468 498.5 414 Q513 360 513 300 Q513 240 498.5 185.5 Q484 131 452.5 89.5 Q421 48 371.5 24 Q322 0 252 0 L110 0 Q83 0 83 27 L83 289 L35 289 Q8 289 8 312 Q8 334 35 334 L83 334 L83 572 Q83 599 110 599 L252 599 Z M138 334 L273 334 Q300 334 300 312 Q300 289 273 289 L138 289 L138 45 L254 45 Q354 45 406 111.5 Q458 178 458 300 Q458 421 406 487.5 Q354 554 254 554 L138 554 L138 334 Z " />
<glyph glyph-name="Ntilde" unicode="&#xd1;" horiz-adv-x="599" d="M415 741 Q431 741 426 722 Q419 696 404 678 Q389 660 357 660 Q343 660 328 666 Q313 672 297 679 Q281 686 266.5 691.5 Q252 697 240 697 Q226 697 218 689 Q210 681 205 670 Q199 656 186 656 L185 656 Q178 656 174.5 661 Q171 666 173 674 Q180 698 198.5 717 Q217 736 243 736 Q259 736 274 730.5 Q289 725 304 718 Q320 711 334 705.5 Q348 700 362 700 Q375 700 383 707.5 Q391 715 395 726 Q401 741 414 741 L415 741 Z M489 599 Q516 599 516 572 L516 27 Q516 0 489 0 L481 0 Q461 0 449 19 L139 554 L138 554 L138 27 Q138 0 111 0 L110 0 Q83 0 83 27 L83 572 Q83 599 110 599 L154 599 Q174 599 186 580 L460 100 L461 100 L461 572 Q461 599 488 599 L489 599 Z " />
<glyph glyph-name="Ograve" unicode="&#xd2;" horiz-adv-x="554" d="M248 761 Q260 761 269 751 L336 668 Q343 660 341.5 653.5 Q340 647 332 647 L323 647 Q311 647 302 656 L218 740 Q210 748 212.5 754.5 Q215 761 227 761 L248 761 Z M276 608 Q333 608 377 584.5 Q421 561 451 520 Q481 479 497 422.5 Q513 366 513 300 Q513 234 497 177.5 Q481 121 451 79.5 Q421 38 377 15 Q333 -8 276 -8 Q220 -8 176 15 Q132 38 102 79.5 Q72 121 56 177.5 Q40 234 40 300 Q40 366 56 422.5 Q72 479 102 520 Q132 561 176 584.5 Q220 608 276 608 Z M276 563 Q193 563 144 495 Q95 427 95 300 Q95 172 144 104.5 Q193 37 276 37 Q360 37 409 104.5 Q458 172 458 300 Q458 427 409 495 Q360 563 276 563 Z " />
<glyph glyph-name="Oacute" unicode="&#xd3;" horiz-adv-x="554" d="M327 761 Q339 761 341.5 754.5 Q344 748 336 740 L252 656 Q243 647 231 647 L222 647 Q214 647 212.5 653.5 Q211 660 218 668 L285 751 Q294 761 306 761 L327 761 Z M276 608 Q333 608 377 584.5 Q421 561 451 520 Q481 479 497 422.5 Q513 366 513 300 Q513 234 497 177.5 Q481 121 451 79.5 Q421 38 377 15 Q333 -8 276 -8 Q220 -8 176 15 Q132 38 102 79.5 Q72 121 56 177.5 Q40 234 40 300 Q40 366 56 422.5 Q72 479 102 520 Q132 561 176 584.5 Q220 608 276 608 Z M276 563 Q193 563 144 495 Q95 427 95 300 Q95 172 144 104.5 Q193 37 276 37 Q360 37 409 104.5 Q458 172 458 300 Q458 427 409 495 Q360 563 276 563 Z " />
<glyph glyph-name="Ocircumflex" unicode="&#xd4;" horiz-adv-x="554" d="M292 761 Q304 761 313 751 L383 668 Q390 660 387 653.5 Q384 647 373 647 L358 647 Q346 647 337 657 L277 731 L217 657 Q208 647 196 647 L181 647 Q170 647 167 653.5 Q164 660 171 668 L241 751 Q250 761 262 761 L292 761 Z M276 608 Q333 608 377 584.5 Q421 561 451 520 Q481 479 497 422.5 Q513 366 513 300 Q513 234 497 177.5 Q481 121 451 79.5 Q421 38 377 15 Q333 -8 276 -8 Q220 -8 176 15 Q132 38 102 79.5 Q72 121 56 177.5 Q40 234 40 300 Q40 366 56 422.5 Q72 479 102 520 Q132 561 176 584.5 Q220 608 276 608 Z M276 563 Q193 563 144 495 Q95 427 95 300 Q95 172 144 104.5 Q193 37 276 37 Q360 37 409 104.5 Q458 172 458 300 Q458 427 409 495 Q360 563 276 563 Z " />
<glyph glyph-name="Otilde" unicode="&#xd5;" horiz-adv-x="554" d="M392 741 Q408 741 403 722 Q396 696 381 678 Q366 660 334 660 Q320 660 305 666 Q290 672 274 679 Q258 686 243.5 691.5 Q229 697 217 697 Q203 697 195 689 Q187 681 182 670 Q176 656 163 656 L162 656 Q155 656 151.5 661 Q148 666 150 674 Q157 698 175.5 717 Q194 736 220 736 Q236 736 251 730.5 Q266 725 281 718 Q297 711 311 705.5 Q325 700 339 700 Q352 700 360 707.5 Q368 715 372 726 Q378 741 391 741 L392 741 Z M276 608 Q333 608 377 584.5 Q421 561 451 520 Q481 479 497 422.5 Q513 366 513 300 Q513 234 497 177.5 Q481 121 451 79.5 Q421 38 377 15 Q333 -8 276 -8 Q220 -8 176 15 Q132 38 102 79.5 Q72 121 56 177.5 Q40 234 40 300 Q40 366 56 422.5 Q72 479 102 520 Q132 561 176 584.5 Q220 608 276 608 Z M276 563 Q193 563 144 495 Q95 427 95 300 Q95 172 144 104.5 Q193 37 276 37 Q360 37 409 104.5 Q458 172 458 300 Q458 427 409 495 Q360 563 276 563 Z " />
<glyph glyph-name="Odieresis" unicode="&#xd6;" horiz-adv-x="554" d="M223 733 Q240 733 240 716 L240 672 Q240 655 223 655 L202 655 Q185 655 185 672 L185 716 Q185 733 202 733 L223 733 Z M352 733 Q369 733 369 716 L369 672 Q369 655 352 655 L331 655 Q314 655 314 672 L314 716 Q314 733 331 733 L352 733 Z M276 608 Q333 608 377 584.5 Q421 561 451 520 Q481 479 497 422.5 Q513 366 513 300 Q513 234 497 177.5 Q481 121 451 79.5 Q421 38 377 15 Q333 -8 276 -8 Q220 -8 176 15 Q132 38 102 79.5 Q72 121 56 177.5 Q40 234 40 300 Q40 366 56 422.5 Q72 479 102 520 Q132 561 176 584.5 Q220 608 276 608 Z M276 563 Q193 563 144 495 Q95 427 95 300 Q95 172 144 104.5 Q193 37 276 37 Q360 37 409 104.5 Q458 172 458 300 Q458 427 409 495 Q360 563 276 563 Z " />
<glyph glyph-name="multiply" unicode="&#xd7;" horiz-adv-x="375" d="M285 349 Q304 330 285 311 L226 253 L285 194 Q304 175 285 156 Q266 136 247 155 L188 214 L128 155 Q109 136 90 156 Q71 175 90 194 L149 253 L90 311 Q71 330 90 349 L91 350 Q110 369 129 350 L188 291 L246 350 Q265 369 284 350 L285 349 Z " />
<glyph glyph-name="Oslash" unicode="&#xd8;" horiz-adv-x="554" d="M494 639 Q505 639 506.5 629.5 Q508 620 499 606 L447 525 Q479 484 496 426.5 Q513 369 513 300 Q513 234 497 177.5 Q481 121 451 79.5 Q421 38 377 15 Q333 -8 276 -8 Q234 -8 199.5 5 Q165 18 138 41 L97 -22 Q86 -40 65 -40 L60 -40 Q49 -40 47.5 -30.5 Q46 -21 55 -7 L106 74 Q73 116 56.5 173.5 Q40 231 40 300 Q40 366 56 422.5 Q72 479 102 520 Q132 561 176 584.5 Q220 608 276 608 Q318 608 353 594.5 Q388 581 416 558 L456 621 Q467 639 488 639 L494 639 Z M389 516 Q345 563 276 563 Q193 563 144 495 Q95 427 95 300 Q95 188 135 120 L389 516 Z M164 82 Q186 59 214.5 48 Q243 37 276 37 Q360 37 409 104.5 Q458 172 458 300 Q458 415 417 479 L164 82 Z " />
<glyph glyph-name="Ugrave" unicode="&#xd9;" horiz-adv-x="599" d="M271 761 Q283 761 292 751 L359 668 Q366 660 364.5 653.5 Q363 647 355 647 L346 647 Q334 647 325 656 L241 740 Q233 748 235.5 754.5 Q238 761 250 761 L271 761 Z M489 599 Q516 599 516 572 L516 196 Q516 -8 300 -8 Q83 -8 83 196 L83 572 Q83 599 110 599 L111 599 Q138 599 138 572 L138 191 Q138 105 179 71 Q220 37 300 37 Q380 37 420.5 71 Q461 105 461 191 L461 572 Q461 599 488 599 L489 599 Z " />
<glyph glyph-name="Uacute" unicode="&#xda;" horiz-adv-x="599" d="M350 761 Q362 761 364.5 754.5 Q367 748 359 740 L275 656 Q266 647 254 647 L245 647 Q237 647 235.5 653.5 Q234 660 241 668 L308 751 Q317 761 329 761 L350 761 Z M489 599 Q516 599 516 572 L516 196 Q516 -8 300 -8 Q83 -8 83 196 L83 572 Q83 599 110 599 L111 599 Q138 599 138 572 L138 191 Q138 105 179 71 Q220 37 300 37 Q380 37 420.5 71 Q461 105 461 191 L461 572 Q461 599 488 599 L489 599 Z " />
<glyph glyph-name="Ucircumflex" unicode="&#xdb;" horiz-adv-x="599" d="M315 761 Q327 761 336 751 L406 668 Q413 660 410 653.5 Q407 647 396 647 L381 647 Q369 647 360 657 L300 731 L240 657 Q231 647 219 647 L204 647 Q193 647 190 653.5 Q187 660 194 668 L264 751 Q273 761 285 761 L315 761 Z M489 599 Q516 599 516 572 L516 196 Q516 -8 300 -8 Q83 -8 83 196 L83 572 Q83 599 110 599 L111 599 Q138 599 138 572 L138 191 Q138 105 179 71 Q220 37 300 37 Q380 37 420.5 71 Q461 105 461 191 L461 572 Q461 599 488 599 L489 599 Z " />
<glyph glyph-name="Udieresis" unicode="&#xdc;" horiz-adv-x="599" d="M246 733 Q263 733 263 716 L263 672 Q263 655 246 655 L225 655 Q208 655 208 672 L208 716 Q208 733 225 733 L246 733 Z M375 733 Q392 733 392 716 L392 672 Q392 655 375 655 L354 655 Q337 655 337 672 L337 716 Q337 733 354 733 L375 733 Z M489 599 Q516 599 516 572 L516 196 Q516 -8 300 -8 Q83 -8 83 196 L83 572 Q83 599 110 599 L111 599 Q138 599 138 572 L138 191 Q138 105 179 71 Q220 37 300 37 Q380 37 420.5 71 Q461 105 461 191 L461 572 Q461 599 488 599 L489 599 Z " />
<glyph glyph-name="Yacute" unicode="&#xdd;" horiz-adv-x="461" d="M281 761 Q293 761 295.5 754.5 Q298 748 290 740 L206 656 Q197 647 185 647 L176 647 Q168 647 166.5 653.5 Q165 660 172 668 L239 751 Q248 761 260 761 L281 761 Z M414 599 Q428 599 431.5 590 Q435 581 427 567 L255 254 L255 27 Q255 0 228 0 L227 0 Q200 0 200 27 L200 254 L34 567 Q26 581 31.5 590 Q37 599 53 599 L56 599 Q78 599 88 579 L226 303 L373 580 Q383 599 405 599 L414 599 Z " />
<glyph glyph-name="Thorn" unicode="&#xde;" horiz-adv-x="507" d="M111 599 Q138 599 138 572 L138 475 L264 475 Q371 475 418.5 429 Q466 383 466 308 Q466 233 418.5 187 Q371 141 264 141 L138 141 L138 27 Q138 0 111 0 L110 0 Q83 0 83 27 L83 572 Q83 599 110 599 L111 599 Z M138 186 L264 186 Q342 186 377 217 Q412 248 412 308 Q412 368 377 399 Q342 430 264 430 L138 430 L138 186 Z " />
<glyph glyph-name="germandbls" unicode="&#xdf;" horiz-adv-x="415" d="M63 442 Q63 513 99 556 Q135 599 209 599 Q241 599 267.5 587.5 Q294 576 312.5 556.5 Q331 537 341.5 510 Q352 483 352 452 Q352 410 332.5 377.5 Q313 345 276 327 Q332 310 360.5 268 Q389 226 389 167 Q389 86 352.5 39 Q316 -8 247 -8 Q223 -8 196 0 Q183 5 179 13 Q175 21 180 30 Q187 46 212 38 Q232 32 250 32 Q293 32 316 66.5 Q339 101 339 161 Q339 230 307.5 261.5 Q276 293 215 298 Q188 300 188 319 Q188 336 214 341 Q257 347 279.5 373 Q302 399 302 453 Q302 504 277.5 531.5 Q253 559 202 559 Q176 559 158.5 549 Q141 539 131 522.5 Q121 506 117 486 Q113 466 113 445 L113 27 Q113 0 88 0 Q63 0 63 27 L63 442 Z " />
<glyph glyph-name="agrave" unicode="&#xe0;" horiz-adv-x="415" d="M179 594 Q191 594 200 584 L267 501 Q274 493 272.5 486.5 Q271 480 263 480 L254 480 Q242 480 233 489 L149 573 Q141 581 143.5 587.5 Q146 594 158 594 L179 594 Z M298 314 Q298 357 276.5 378.5 Q255 400 199 400 Q134 400 89 344 Q72 322 58 332 Q40 343 55 365 Q82 405 118 422.5 Q154 440 201 440 Q275 440 310 408.5 Q345 377 345 305 L345 27 Q345 0 321 0 Q297 0 297 27 L297 52 Q259 22 224.5 7 Q190 -8 140 -8 Q89 -8 55.5 21.5 Q22 51 22 105 Q22 149 40 177 Q58 205 92.5 223.5 Q127 242 179 255.5 Q231 269 298 284 L298 314 Z M295 244 Q221 228 177 212 Q133 196 109.5 179 Q86 162 78.5 144 Q71 126 71 105 Q71 70 93 51 Q115 32 149 32 Q184 32 223.5 51 Q263 70 295 103 L295 244 Z " />
<glyph glyph-name="aacute" unicode="&#xe1;" horiz-adv-x="415" d="M258 594 Q270 594 272.5 587.5 Q275 581 267 573 L183 489 Q174 480 162 480 L153 480 Q145 480 143.5 486.5 Q142 493 149 501 L216 584 Q225 594 237 594 L258 594 Z M298 314 Q298 357 276.5 378.5 Q255 400 199 400 Q134 400 89 344 Q72 322 58 332 Q40 343 55 365 Q82 405 118 422.5 Q154 440 201 440 Q275 440 310 408.5 Q345 377 345 305 L345 27 Q345 0 321 0 Q297 0 297 27 L297 52 Q259 22 224.5 7 Q190 -8 140 -8 Q89 -8 55.5 21.5 Q22 51 22 105 Q22 149 40 177 Q58 205 92.5 223.5 Q127 242 179 255.5 Q231 269 298 284 L298 314 Z M295 244 Q221 228 177 212 Q133 196 109.5 179 Q86 162 78.5 144 Q71 126 71 105 Q71 70 93 51 Q115 32 149 32 Q184 32 223.5 51 Q263 70 295 103 L295 244 Z " />
<glyph glyph-name="acircumflex" unicode="&#xe2;" horiz-adv-x="415" d="M223 594 Q235 594 244 584 L314 501 Q321 493 318 486.5 Q315 480 304 480 L289 480 Q277 480 268 490 L208 564 L148 490 Q139 480 127 480 L112 480 Q101 480 98 486.5 Q95 493 102 501 L172 584 Q181 594 193 594 L223 594 Z M298 314 Q298 357 276.5 378.5 Q255 400 199 400 Q134 400 89 344 Q72 322 58 332 Q40 343 55 365 Q82 405 118 422.5 Q154 440 201 440 Q275 440 310 408.5 Q345 377 345 305 L345 27 Q345 0 321 0 Q297 0 297 27 L297 52 Q259 22 224.5 7 Q190 -8 140 -8 Q89 -8 55.5 21.5 Q22 51 22 105 Q22 149 40 177 Q58 205 92.5 223.5 Q127 242 179 255.5 Q231 269 298 284 L298 314 Z M295 244 Q221 228 177 212 Q133 196 109.5 179 Q86 162 78.5 144 Q71 126 71 105 Q71 70 93 51 Q115 32 149 32 Q184 32 223.5 51 Q263 70 295 103 L295 244 Z " />
<glyph glyph-name="atilde" unicode="&#xe3;" horiz-adv-x="415" d="M323 574 Q339 574 334 555 Q327 529 312 511 Q297 493 265 493 Q251 493 236 499 Q221 505 205 512 Q189 519 174.5 524.5 Q160 530 148 530 Q134 530 126 522 Q118 514 113 503 Q107 489 94 489 L93 489 Q86 489 82.5 494 Q79 499 81 507 Q88 531 106.5 550 Q125 569 151 569 Q167 569 182 563.5 Q197 558 212 551 Q228 544 242 538.5 Q256 533 270 533 Q283 533 291 540.5 Q299 548 303 559 Q309 574 322 574 L323 574 Z M298 314 Q298 357 276.5 378.5 Q255 400 199 400 Q134 400 89 344 Q72 322 58 332 Q40 343 55 365 Q82 405 118 422.5 Q154 440 201 440 Q275 440 310 408.5 Q345 377 345 305 L345 27 Q345 0 321 0 Q297 0 297 27 L297 52 Q259 22 224.5 7 Q190 -8 140 -8 Q89 -8 55.5 21.5 Q22 51 22 105 Q22 149 40 177 Q58 205 92.5 223.5 Q127 242 179 255.5 Q231 269 298 284 L298 314 Z M295 244 Q221 228 177 212 Q133 196 109.5 179 Q86 162 78.5 144 Q71 126 71 105 Q71 70 93 51 Q115 32 149 32 Q184 32 223.5 51 Q263 70 295 103 L295 244 Z " />
<glyph glyph-name="adieresis" unicode="&#xe4;" horiz-adv-x="415" d="M154 566 Q171 566 171 549 L171 505 Q171 488 154 488 L133 488 Q116 488 116 505 L116 549 Q116 566 133 566 L154 566 Z M283 566 Q300 566 300 549 L300 505 Q300 488 283 488 L262 488 Q245 488 245 505 L245 549 Q245 566 262 566 L283 566 Z M298 314 Q298 357 276.5 378.5 Q255 400 199 400 Q134 400 89 344 Q72 322 58 332 Q40 343 55 365 Q82 405 118 422.5 Q154 440 201 440 Q275 440 310 408.5 Q345 377 345 305 L345 27 Q345 0 321 0 Q297 0 297 27 L297 52 Q259 22 224.5 7 Q190 -8 140 -8 Q89 -8 55.5 21.5 Q22 51 22 105 Q22 149 40 177 Q58 205 92.5 223.5 Q127 242 179 255.5 Q231 269 298 284 L298 314 Z M295 244 Q221 228 177 212 Q133 196 109.5 179 Q86 162 78.5 144 Q71 126 71 105 Q71 70 93 51 Q115 32 149 32 Q184 32 223.5 51 Q263 70 295 103 L295 244 Z " />
<glyph glyph-name="aring" unicode="&#xe5;" horiz-adv-x="415" d="M208 642 Q242 642 266.5 618 Q291 594 291 559 Q291 524 266.5 500 Q242 476 208 476 Q174 476 149.5 500 Q125 524 125 559 Q125 594 149.5 618 Q174 642 208 642 Z M208 614 Q185 614 169 598 Q153 582 153 559 Q153 536 169 520.5 Q185 505 208 505 Q231 505 247 520.5 Q263 536 263 559 Q263 582 247 598 Q231 614 208 614 Z M298 314 Q298 357 276.5 378.5 Q255 400 199 400 Q134 400 89 344 Q72 322 58 332 Q40 343 55 365 Q82 405 118 422.5 Q154 440 201 440 Q275 440 310 408.5 Q345 377 345 305 L345 27 Q345 0 321 0 Q297 0 297 27 L297 52 Q259 22 224.5 7 Q190 -8 140 -8 Q89 -8 55.5 21.5 Q22 51 22 105 Q22 149 40 177 Q58 205 92.5 223.5 Q127 242 179 255.5 Q231 269 298 284 L298 314 Z M295 244 Q221 228 177 212 Q133 196 109.5 179 Q86 162 78.5 144 Q71 126 71 105 Q71 70 93 51 Q115 32 149 32 Q184 32 223.5 51 Q263 70 295 103 L295 244 Z " />
<glyph glyph-name="ae" unicode="&#xe6;" horiz-adv-x="646" d="M281 314 Q281 347 260 373.5 Q239 400 189 400 Q152 400 127.5 386 Q103 372 88 346 Q74 321 58 331 Q38 342 50 365 Q73 405 106 422.5 Q139 440 186 440 Q225 440 261 425.5 Q297 411 317 369 Q341 404 374.5 422 Q408 440 448 440 Q529 440 567.5 385.5 Q606 331 610 242 Q612 214 584 214 L330 214 Q330 177 336 144 Q342 111 356.5 86 Q371 61 393.5 46.5 Q416 32 449 32 Q486 32 510 45.5 Q534 59 560 97 Q575 118 596 108 Q617 97 600 73 Q569 29 534.5 10.5 Q500 -8 445 -8 Q401 -8 366.5 11.5 Q332 31 307 65 Q272 21 230 6.5 Q188 -8 140 -8 Q89 -8 55.5 21.5 Q22 51 22 105 Q22 149 39.5 177 Q57 205 90.5 223.5 Q124 242 172 255.5 Q220 269 281 284 L281 314 Z M561 254 Q553 321 527.5 360.5 Q502 400 447 400 Q419 400 398 388.5 Q377 377 362.5 357 Q348 337 340 310.5 Q332 284 330 254 L561 254 Z M281 244 Q212 228 171 212 Q130 196 107.5 179 Q85 162 78 144 Q71 126 71 105 Q71 70 93 51 Q115 32 149 32 Q184 32 221.5 51 Q259 70 281 103 L281 244 Z " />
<glyph glyph-name="ccedilla" unicode="&#xe7;" horiz-adv-x="415" d="M196 -7 Q156 -3 125 15 Q94 33 73 62 Q52 91 41 130.5 Q30 170 30 216 Q30 328 81 384 Q132 440 216 440 Q269 440 305 416 Q341 392 362 350 Q376 324 351 317 Q329 310 317 332 Q300 361 276 380.5 Q252 400 216 400 Q155 400 117.5 358 Q80 316 80 216 Q80 132 115 82 Q150 32 216 32 Q256 32 282 50 Q308 68 331 100 Q346 121 365 112 Q386 101 369 78 Q343 41 308 17.5 Q273 -6 222 -8 Q220 -14 215 -21 L197 -42 L198 -43 Q202 -41 209 -39.5 Q216 -38 224 -38 Q254 -38 271.5 -57 Q289 -76 289 -108 Q289 -125 280.5 -137 Q272 -149 259 -157 Q246 -165 231 -169 Q216 -173 202 -173 Q167 -173 137 -163 Q122 -157 128 -141 Q134 -126 150 -132 Q158 -135 166.5 -137 Q175 -139 183 -139 Q237 -139 237 -105 Q237 -88 225.5 -79.5 Q214 -71 200 -71 Q188 -71 177 -74 Q164 -78 158 -74 Q150 -68 161 -55 L193 -10 L196 -7 Z " />
<glyph glyph-name="egrave" unicode="&#xe8;" horiz-adv-x="415" d="M179 594 Q191 594 200 584 L267 501 Q274 493 272.5 486.5 Q271 480 263 480 L254 480 Q242 480 233 489 L149 573 Q141 581 143.5 587.5 Q146 594 158 594 L179 594 Z M80 214 Q80 177 88 144 Q96 111 112.5 86 Q129 61 155 46.5 Q181 32 218 32 Q255 32 279 45.5 Q303 59 329 97 Q344 118 365 108 Q386 97 369 73 Q339 29 304 10.5 Q269 -8 214 -8 Q129 -8 79.5 46.5 Q30 101 30 216 Q30 266 42.5 307 Q55 348 78 377.5 Q101 407 134 423.5 Q167 440 208 440 Q290 440 332 385.5 Q374 331 379 242 Q381 214 353 214 L80 214 Z M330 254 Q322 321 292.5 360 Q263 399 206 400 Q173 400 149.5 385.5 Q126 371 110.5 349 Q95 327 87.5 301 Q80 275 80 254 L330 254 Z " />
<glyph glyph-name="eacute" unicode="&#xe9;" horiz-adv-x="415" d="M258 594 Q270 594 272.5 587.5 Q275 581 267 573 L183 489 Q174 480 162 480 L153 480 Q145 480 143.5 486.5 Q142 493 149 501 L216 584 Q225 594 237 594 L258 594 Z M80 214 Q80 177 88 144 Q96 111 112.5 86 Q129 61 155 46.5 Q181 32 218 32 Q255 32 279 45.5 Q303 59 329 97 Q344 118 365 108 Q386 97 369 73 Q339 29 304 10.5 Q269 -8 214 -8 Q129 -8 79.5 46.5 Q30 101 30 216 Q30 266 42.5 307 Q55 348 78 377.5 Q101 407 134 423.5 Q167 440 208 440 Q290 440 332 385.5 Q374 331 379 242 Q381 214 353 214 L80 214 Z M330 254 Q322 321 292.5 360 Q263 399 206 400 Q173 400 149.5 385.5 Q126 371 110.5 349 Q95 327 87.5 301 Q80 275 80 254 L330 254 Z " />
<glyph glyph-name="ecircumflex" unicode="&#xea;" horiz-adv-x="415" d="M223 594 Q235 594 244 584 L314 501 Q321 493 318 486.5 Q315 480 304 480 L289 480 Q277 480 268 490 L208 564 L148 490 Q139 480 127 480 L112 480 Q101 480 98 486.5 Q95 493 102 501 L172 584 Q181 594 193 594 L223 594 Z M80 214 Q80 177 88 144 Q96 111 112.5 86 Q129 61 155 46.5 Q181 32 218 32 Q255 32 279 45.5 Q303 59 329 97 Q344 118 365 108 Q386 97 369 73 Q339 29 304 10.5 Q269 -8 214 -8 Q129 -8 79.5 46.5 Q30 101 30 216 Q30 266 42.5 307 Q55 348 78 377.5 Q101 407 134 423.5 Q167 440 208 440 Q290 440 332 385.5 Q374 331 379 242 Q381 214 353 214 L80 214 Z M330 254 Q322 321 292.5 360 Q263 399 206 400 Q173 400 149.5 385.5 Q126 371 110.5 349 Q95 327 87.5 301 Q80 275 80 254 L330 254 Z " />
<glyph glyph-name="edieresis" unicode="&#xeb;" horiz-adv-x="415" d="M154 566 Q171 566 171 549 L171 505 Q171 488 154 488 L133 488 Q116 488 116 505 L116 549 Q116 566 133 566 L154 566 Z M283 566 Q300 566 300 549 L300 505 Q300 488 283 488 L262 488 Q245 488 245 505 L245 549 Q245 566 262 566 L283 566 Z M80 214 Q80 177 88 144 Q96 111 112.5 86 Q129 61 155 46.5 Q181 32 218 32 Q255 32 279 45.5 Q303 59 329 97 Q344 118 365 108 Q386 97 369 73 Q339 29 304 10.5 Q269 -8 214 -8 Q129 -8 79.5 46.5 Q30 101 30 216 Q30 266 42.5 307 Q55 348 78 377.5 Q101 407 134 423.5 Q167 440 208 440 Q290 440 332 385.5 Q374 331 379 242 Q381 214 353 214 L80 214 Z M330 254 Q322 321 292.5 360 Q263 399 206 400 Q173 400 149.5 385.5 Q126 371 110.5 349 Q95 327 87.5 301 Q80 275 80 254 L330 254 Z " />
<glyph glyph-name="igrave" unicode="&#xec;" horiz-adv-x="184" d="M63 594 Q75 594 84 584 L151 501 Q158 493 156.5 486.5 Q155 480 147 480 L138 480 Q126 480 117 489 L33 573 Q25 581 27.5 587.5 Q30 594 42 594 L63 594 Z M67 405 Q67 432 92 432 Q117 432 117 405 L117 27 Q117 0 92 0 Q67 0 67 27 L67 405 Z " />
<glyph glyph-name="iacute" unicode="&#xed;" horiz-adv-x="184" d="M142 594 Q154 594 156.5 587.5 Q159 581 151 573 L67 489 Q58 480 46 480 L37 480 Q29 480 27.5 486.5 Q26 493 33 501 L100 584 Q109 594 121 594 L142 594 Z M67 405 Q67 432 92 432 Q117 432 117 405 L117 27 Q117 0 92 0 Q67 0 67 27 L67 405 Z " />
<glyph glyph-name="icircumflex" unicode="&#xee;" horiz-adv-x="184" d="M107 594 Q119 594 128 584 L198 501 Q205 493 202 486.5 Q199 480 188 480 L173 480 Q161 480 152 490 L92 564 L32 490 Q23 480 11 480 L-4 480 Q-15 480 -18 486.5 Q-21 493 -14 501 L56 584 Q65 594 77 594 L107 594 Z M67 405 Q67 432 92 432 Q117 432 117 405 L117 27 Q117 0 92 0 Q67 0 67 27 L67 405 Z " />
<glyph glyph-name="idieresis" unicode="&#xef;" horiz-adv-x="184" d="M38 566 Q55 566 55 549 L55 505 Q55 488 38 488 L17 488 Q0 488 0 505 L0 549 Q0 566 17 566 L38 566 Z M167 566 Q184 566 184 549 L184 505 Q184 488 167 488 L146 488 Q129 488 129 505 L129 549 Q129 566 146 566 L167 566 Z M67 405 Q67 432 92 432 Q117 432 117 405 L117 27 Q117 0 92 0 Q67 0 67 27 L67 405 Z " />
<glyph glyph-name="eth" unicode="&#xf0;" horiz-adv-x="415" d="M204 534 Q197 540 190 546 Q183 552 175 557 Q162 567 160 576 Q158 585 169 590 Q189 599 206 587 Q229 572 247 555 L309 587 Q331 599 343 583 Q354 566 329 552 L277 525 Q309 491 330 453 Q351 415 363 375.5 Q375 336 380 296 Q385 256 385 216 Q385 172 376 131.5 Q367 91 346.5 60 Q326 29 292 10.5 Q258 -8 208 -8 Q157 -8 123 10.5 Q89 29 68.5 60 Q48 91 39 131.5 Q30 172 30 216 Q30 260 39 300.5 Q48 341 68.5 372 Q89 403 123 421.5 Q157 440 208 440 Q233 440 253 435 Q273 430 290 422 L291 423 Q269 465 235 504 L173 472 Q150 460 139 477 Q126 493 152 507 L204 534 Z M208 400 Q141 400 110.5 352 Q80 304 80 216 Q80 128 110.5 80 Q141 32 208 32 Q274 32 304.5 80 Q335 128 335 216 Q335 304 304.5 352 Q274 400 208 400 Z " />
<glyph glyph-name="ntilde" unicode="&#xf1;" horiz-adv-x="461" d="M346 574 Q362 574 357 555 Q350 529 335 511 Q320 493 288 493 Q274 493 259 499 Q244 505 228 512 Q212 519 197.5 524.5 Q183 530 171 530 Q157 530 149 522 Q141 514 136 503 Q130 489 117 489 L116 489 Q109 489 105.5 494 Q102 499 104 507 Q111 531 129.5 550 Q148 569 174 569 Q190 569 205 563.5 Q220 558 235 551 Q251 544 265 538.5 Q279 533 293 533 Q306 533 314 540.5 Q322 548 326 559 Q332 574 345 574 L346 574 Z M118 364 Q153 400 185.5 420 Q218 440 266 440 Q333 440 363 402.5 Q393 365 393 295 L393 27 Q393 0 369 0 Q344 0 344 27 L344 290 Q344 344 325 372 Q306 400 256 400 Q220 400 194 382 Q168 364 133 332 Q118 318 118 298 L118 27 Q118 0 93 0 Q68 0 68 27 L68 405 Q68 432 93 432 Q118 432 118 405 L118 364 Z " />
<glyph glyph-name="ograve" unicode="&#xf2;" horiz-adv-x="415" d="M179 594 Q191 594 200 584 L267 501 Q274 493 272.5 486.5 Q271 480 263 480 L254 480 Q242 480 233 489 L149 573 Q141 581 143.5 587.5 Q146 594 158 594 L179 594 Z M208 440 Q258 440 292 421.5 Q326 403 346.5 372 Q367 341 376 300.5 Q385 260 385 216 Q385 172 376 131.5 Q367 91 346.5 60 Q326 29 292 10.5 Q258 -8 208 -8 Q157 -8 123 10.5 Q89 29 68.5 60 Q48 91 39 131.5 Q30 172 30 216 Q30 260 39 300.5 Q48 341 68.5 372 Q89 403 123 421.5 Q157 440 208 440 Z M208 400 Q141 400 110.5 352 Q80 304 80 216 Q80 128 110.5 80 Q141 32 208 32 Q274 32 304.5 80 Q335 128 335 216 Q335 304 304.5 352 Q274 400 208 400 Z " />
<glyph glyph-name="oacute" unicode="&#xf3;" horiz-adv-x="415" d="M258 594 Q270 594 272.5 587.5 Q275 581 267 573 L183 489 Q174 480 162 480 L153 480 Q145 480 143.5 486.5 Q142 493 149 501 L216 584 Q225 594 237 594 L258 594 Z M208 440 Q258 440 292 421.5 Q326 403 346.5 372 Q367 341 376 300.5 Q385 260 385 216 Q385 172 376 131.5 Q367 91 346.5 60 Q326 29 292 10.5 Q258 -8 208 -8 Q157 -8 123 10.5 Q89 29 68.5 60 Q48 91 39 131.5 Q30 172 30 216 Q30 260 39 300.5 Q48 341 68.5 372 Q89 403 123 421.5 Q157 440 208 440 Z M208 400 Q141 400 110.5 352 Q80 304 80 216 Q80 128 110.5 80 Q141 32 208 32 Q274 32 304.5 80 Q335 128 335 216 Q335 304 304.5 352 Q274 400 208 400 Z " />
<glyph glyph-name="ocircumflex" unicode="&#xf4;" horiz-adv-x="415" d="M223 594 Q235 594 244 584 L314 501 Q321 493 318 486.5 Q315 480 304 480 L289 480 Q277 480 268 490 L208 564 L148 490 Q139 480 127 480 L112 480 Q101 480 98 486.5 Q95 493 102 501 L172 584 Q181 594 193 594 L223 594 Z M208 440 Q258 440 292 421.5 Q326 403 346.5 372 Q367 341 376 300.5 Q385 260 385 216 Q385 172 376 131.5 Q367 91 346.5 60 Q326 29 292 10.5 Q258 -8 208 -8 Q157 -8 123 10.5 Q89 29 68.5 60 Q48 91 39 131.5 Q30 172 30 216 Q30 260 39 300.5 Q48 341 68.5 372 Q89 403 123 421.5 Q157 440 208 440 Z M208 400 Q141 400 110.5 352 Q80 304 80 216 Q80 128 110.5 80 Q141 32 208 32 Q274 32 304.5 80 Q335 128 335 216 Q335 304 304.5 352 Q274 400 208 400 Z " />
<glyph glyph-name="otilde" unicode="&#xf5;" horiz-adv-x="415" d="M323 574 Q339 574 334 555 Q327 529 312 511 Q297 493 265 493 Q251 493 236 499 Q221 505 205 512 Q189 519 174.5 524.5 Q160 530 148 530 Q134 530 126 522 Q118 514 113 503 Q107 489 94 489 L93 489 Q86 489 82.5 494 Q79 499 81 507 Q88 531 106.5 550 Q125 569 151 569 Q167 569 182 563.5 Q197 558 212 551 Q228 544 242 538.5 Q256 533 270 533 Q283 533 291 540.5 Q299 548 303 559 Q309 574 322 574 L323 574 Z M208 440 Q258 440 292 421.5 Q326 403 346.5 372 Q367 341 376 300.5 Q385 260 385 216 Q385 172 376 131.5 Q367 91 346.5 60 Q326 29 292 10.5 Q258 -8 208 -8 Q157 -8 123 10.5 Q89 29 68.5 60 Q48 91 39 131.5 Q30 172 30 216 Q30 260 39 300.5 Q48 341 68.5 372 Q89 403 123 421.5 Q157 440 208 440 Z M208 400 Q141 400 110.5 352 Q80 304 80 216 Q80 128 110.5 80 Q141 32 208 32 Q274 32 304.5 80 Q335 128 335 216 Q335 304 304.5 352 Q274 400 208 400 Z " />
<glyph glyph-name="odieresis" unicode="&#xf6;" horiz-adv-x="415" d="M154 566 Q171 566 171 549 L171 505 Q171 488 154 488 L133 488 Q116 488 116 505 L116 549 Q116 566 133 566 L154 566 Z M283 566 Q300 566 300 549 L300 505 Q300 488 283 488 L262 488 Q245 488 245 505 L245 549 Q245 566 262 566 L283 566 Z M208 440 Q258 440 292 421.5 Q326 403 346.5 372 Q367 341 376 300.5 Q385 260 385 216 Q385 172 376 131.5 Q367 91 346.5 60 Q326 29 292 10.5 Q258 -8 208 -8 Q157 -8 123 10.5 Q89 29 68.5 60 Q48 91 39 131.5 Q30 172 30 216 Q30 260 39 300.5 Q48 341 68.5 372 Q89 403 123 421.5 Q157 440 208 440 Z M208 400 Q141 400 110.5 352 Q80 304 80 216 Q80 128 110.5 80 Q141 32 208 32 Q274 32 304.5 80 Q335 128 335 216 Q335 304 304.5 352 Q274 400 208 400 Z " />
<glyph glyph-name="divide" unicode="&#xf7;" horiz-adv-x="498" d="M249 443 Q269 443 282.5 429.5 Q296 416 296 396 Q296 376 282.5 362.5 Q269 349 249 349 Q229 349 215.5 362.5 Q202 376 202 396 Q202 416 215.5 429.5 Q229 443 249 443 Z M438 238 Q465 238 465 216 Q465 193 438 193 L60 193 Q33 193 33 216 Q33 238 60 238 L438 238 Z M249 83 Q269 83 282.5 69 Q296 55 296 36 Q296 16 282.5 2 Q269 -12 249 -12 Q229 -12 215.5 2 Q202 16 202 36 Q202 55 215.5 69 Q229 83 249 83 Z " />
<glyph glyph-name="oslash" unicode="&#xf8;" horiz-adv-x="415" d="M382 498 Q392 498 392.5 488.5 Q393 479 385 465 L336 386 Q363 354 374 309.5 Q385 265 385 216 Q385 172 376 131.5 Q367 91 346.5 60 Q326 29 292 10.5 Q258 -8 208 -8 Q148 -8 110 19 L69 -48 Q57 -66 37 -66 L35 -66 Q25 -66 24.5 -57 Q24 -48 32 -34 L80 45 Q52 77 41 121.5 Q30 166 30 216 Q30 260 39 300.5 Q48 341 68.5 372 Q89 403 123 421.5 Q157 440 208 440 Q267 440 305 413 L347 480 Q358 498 379 498 L382 498 Z M283 375 Q254 400 208 400 Q141 400 110.5 352 Q80 304 80 216 Q80 133 106 88 L283 375 Z M133 56 Q162 32 208 32 Q274 32 304.5 80 Q335 128 335 216 Q335 300 310 343 L133 56 Z " />
<glyph glyph-name="ugrave" unicode="&#xf9;" horiz-adv-x="461" d="M202 594 Q214 594 223 584 L290 501 Q297 493 295.5 486.5 Q294 480 286 480 L277 480 Q265 480 256 489 L172 573 Q164 581 166.5 587.5 Q169 594 181 594 L202 594 Z M344 405 Q344 432 369 432 Q393 432 393 405 L393 27 Q393 0 369 0 Q344 0 344 27 L344 68 Q309 32 276.5 12 Q244 -8 196 -8 Q128 -8 98 29 Q68 66 68 137 L68 405 Q68 432 93 432 Q118 432 118 405 L118 142 Q118 88 136.5 60 Q155 32 206 32 Q242 32 268 50 Q294 68 329 100 Q344 114 344 134 L344 405 Z " />
<glyph glyph-name="uacute" unicode="&#xfa;" horiz-adv-x="461" d="M281 594 Q293 594 295.5 587.5 Q298 581 290 573 L206 489 Q197 480 185 480 L176 480 Q168 480 166.5 486.5 Q165 493 172 501 L239 584 Q248 594 260 594 L281 594 Z M344 405 Q344 432 369 432 Q393 432 393 405 L393 27 Q393 0 369 0 Q344 0 344 27 L344 68 Q309 32 276.5 12 Q244 -8 196 -8 Q128 -8 98 29 Q68 66 68 137 L68 405 Q68 432 93 432 Q118 432 118 405 L118 142 Q118 88 136.5 60 Q155 32 206 32 Q242 32 268 50 Q294 68 329 100 Q344 114 344 134 L344 405 Z " />
<glyph glyph-name="ucircumflex" unicode="&#xfb;" horiz-adv-x="461" d="M246 594 Q258 594 267 584 L337 501 Q344 493 341 486.5 Q338 480 327 480 L312 480 Q300 480 291 490 L231 564 L171 490 Q162 480 150 480 L135 480 Q124 480 121 486.5 Q118 493 125 501 L195 584 Q204 594 216 594 L246 594 Z M344 405 Q344 432 369 432 Q393 432 393 405 L393 27 Q393 0 369 0 Q344 0 344 27 L344 68 Q309 32 276.5 12 Q244 -8 196 -8 Q128 -8 98 29 Q68 66 68 137 L68 405 Q68 432 93 432 Q118 432 118 405 L118 142 Q118 88 136.5 60 Q155 32 206 32 Q242 32 268 50 Q294 68 329 100 Q344 114 344 134 L344 405 Z " />
<glyph glyph-name="udieresis" unicode="&#xfc;" horiz-adv-x="461" d="M177 566 Q194 566 194 549 L194 505 Q194 488 177 488 L156 488 Q139 488 139 505 L139 549 Q139 566 156 566 L177 566 Z M306 566 Q323 566 323 549 L323 505 Q323 488 306 488 L285 488 Q268 488 268 505 L268 549 Q268 566 285 566 L306 566 Z M344 405 Q344 432 369 432 Q393 432 393 405 L393 27 Q393 0 369 0 Q344 0 344 27 L344 68 Q309 32 276.5 12 Q244 -8 196 -8 Q128 -8 98 29 Q68 66 68 137 L68 405 Q68 432 93 432 Q118 432 118 405 L118 142 Q118 88 136.5 60 Q155 32 206 32 Q242 32 268 50 Q294 68 329 100 Q344 114 344 134 L344 405 Z " />
<glyph glyph-name="yacute" unicode="&#xfd;" horiz-adv-x="369" d="M235 594 Q247 594 249.5 587.5 Q252 581 244 573 L160 489 Q151 480 139 480 L130 480 Q122 480 120.5 486.5 Q119 493 126 501 L193 584 Q202 594 214 594 L235 594 Z M332 432 Q344 432 348.5 423.5 Q353 415 348 401 L198 -31 Q187 -63 175 -86 Q163 -109 147 -124 Q131 -139 110 -146 Q89 -153 60 -153 Q53 -153 47 -153 Q41 -153 36 -152 Q13 -149 13 -128 Q13 -107 42 -112 Q47 -112 52.5 -112.5 Q58 -113 63 -113 Q89 -113 115.5 -86.5 Q142 -60 160 7 L21 401 Q16 415 22 423.5 Q28 432 42 432 Q65 432 72 410 L183 81 L185 81 L297 410 Q306 432 328 432 L332 432 Z " />
<glyph glyph-name="thorn" unicode="&#xfe;" horiz-adv-x="461" d="M76 572 Q76 599 101 599 Q126 599 126 572 L126 365 L128 365 Q154 403 185 421.5 Q216 440 258 440 Q300 440 332.5 421.5 Q365 403 387 371.5 Q409 340 420.5 299 Q432 258 432 213 Q432 101 384.5 46.5 Q337 -8 261 -8 Q217 -8 187.5 7.5 Q158 23 126 56 L126 -126 Q126 -153 101 -153 Q76 -153 76 -126 L76 572 Z M126 109 Q132 98 145 84.5 Q158 71 175 59.5 Q192 48 211 40 Q230 32 248 32 Q316 32 349 82 Q382 132 382 222 Q382 256 374.5 288 Q367 320 351.5 345 Q336 370 312 385 Q288 400 256 400 Q214 400 186 377.5 Q158 355 126 321 L126 109 Z " />
<glyph glyph-name="ydieresis" unicode="&#xff;" horiz-adv-x="369" d="M131 566 Q148 566 148 549 L148 505 Q148 488 131 488 L110 488 Q93 488 93 505 L93 549 Q93 566 110 566 L131 566 Z M260 566 Q277 566 277 549 L277 505 Q277 488 260 488 L239 488 Q222 488 222 505 L222 549 Q222 566 239 566 L260 566 Z M332 432 Q344 432 348.5 423.5 Q353 415 348 401 L198 -31 Q187 -63 175 -86 Q163 -109 147 -124 Q131 -139 110 -146 Q89 -153 60 -153 Q53 -153 47 -153 Q41 -153 36 -152 Q13 -149 13 -128 Q13 -107 42 -112 Q47 -112 52.5 -112.5 Q58 -113 63 -113 Q89 -113 115.5 -86.5 Q142 -60 160 7 L21 401 Q16 415 22 423.5 Q28 432 42 432 Q65 432 72 410 L183 81 L185 81 L297 410 Q306 432 328 432 L332 432 Z " />
<glyph glyph-name="dotlessi" unicode="&#x131;" horiz-adv-x="184" d="M67 405 Q67 432 92 432 Q117 432 117 405 L117 27 Q117 0 92 0 Q67 0 67 27 L67 405 Z " />
<glyph glyph-name="Lslash" unicode="&#x141;" horiz-adv-x="415" d="M111 599 Q138 599 138 572 L138 343 L248 387 Q279 398 279 371 Q279 348 258 340 L138 291 L138 45 L378 45 Q405 45 405 23 Q405 0 378 0 L110 0 Q83 0 83 27 L83 269 L44 254 Q13 241 13 269 Q13 293 34 300 L83 320 L83 572 Q83 599 110 599 L111 599 Z " />
<glyph glyph-name="lslash" unicode="&#x142;" horiz-adv-x="184" d="M67 572 Q67 599 92 599 Q117 599 117 572 L117 356 L151 373 Q165 381 174 377 Q183 373 183 359 Q183 337 164 327 L117 303 L117 27 Q117 0 92 0 Q67 0 67 27 L67 277 L33 259 Q19 251 10 255 Q1 259 1 273 Q1 295 20 305 L67 330 L67 572 Z " />
<glyph glyph-name="OE" unicode="&#x152;" horiz-adv-x="830" d="M461 0 Q420 0 379.5 -4 Q339 -8 307 -8 Q235 -8 184.5 14.5 Q134 37 101.5 77.5 Q69 118 54.5 175 Q40 232 40 300 Q40 363 57 419 Q74 475 107.5 517 Q141 559 191 583.5 Q241 608 307 608 Q325 608 345.5 606.5 Q366 605 386.5 603.5 Q407 602 426 600.5 Q445 599 458 599 L754 599 Q781 599 781 577 Q781 554 754 554 L498 554 L498 334 L674 334 Q701 334 701 312 Q701 289 674 289 L498 289 L498 45 L770 45 Q797 45 797 23 Q797 0 770 0 L461 0 Z M443 480 Q443 520 414 541.5 Q385 563 325 563 Q267 563 223.5 544 Q180 525 151.5 490 Q123 455 109 407 Q95 359 95 300 Q95 173 149.5 105 Q204 37 325 37 Q443 37 443 120 L443 480 Z " />
<glyph glyph-name="oe" unicode="&#x153;" horiz-adv-x="691" d="M374 214 Q374 177 380 144 Q386 111 400 86 Q414 61 437.5 46.5 Q461 32 495 32 Q532 32 556 45.5 Q580 59 606 97 Q621 118 642 108 Q663 97 646 73 Q615 29 580.5 10.5 Q546 -8 491 -8 Q438 -8 403 15.5 Q368 39 345 86 Q328 46 294.5 19 Q261 -8 204 -8 Q155 -8 121.5 10.5 Q88 29 68 60 Q48 91 39 131.5 Q30 172 30 216 Q30 260 39 300.5 Q48 341 68 372 Q88 403 121.5 421.5 Q155 440 204 440 Q261 440 295.5 413 Q330 386 347 346 Q354 363 365.5 379.5 Q377 396 394.5 409.5 Q412 423 435.5 431.5 Q459 440 490 440 Q570 440 610.5 385.5 Q651 331 656 242 Q658 214 630 214 L374 214 Z M204 400 Q140 400 110 352 Q80 304 80 216 Q80 128 110 80 Q140 32 204 32 Q265 32 294.5 80 Q324 128 324 216 Q324 304 294.5 352 Q265 400 204 400 Z M607 254 Q599 321 572 360.5 Q545 400 489 400 Q459 400 438 388.5 Q417 377 403 357 Q389 337 382.5 310.5 Q376 284 374 254 L607 254 Z " />
<glyph glyph-name="Scaron" unicode="&#x160;" horiz-adv-x="461" d="M327 761 Q338 761 341 754.5 Q344 748 337 740 L267 657 Q258 647 246 647 L216 647 Q204 647 195 657 L125 740 Q118 748 121 754.5 Q124 761 135 761 L150 761 Q162 761 171 751 L231 677 L291 751 Q300 761 312 761 L327 761 Z M216 608 Q280 608 327 577.5 Q374 547 398 490 Q404 478 399.5 469.5 Q395 461 384 457 Q362 450 351 474 Q333 514 299.5 538.5 Q266 563 216 563 Q163 563 130.5 534.5 Q98 506 98 452 Q98 437 101.5 423.5 Q105 410 117.5 397 Q130 384 154.5 370.5 Q179 357 220 341 Q283 317 322.5 296.5 Q362 276 384 254.5 Q406 233 414 208 Q422 183 422 150 Q422 112 407 82.5 Q392 53 367 33 Q342 13 309 2.5 Q276 -8 240 -8 Q161 -8 111.5 24.5 Q62 57 36 126 Q25 152 52 160 Q76 168 85 142 Q105 87 145 62 Q185 37 248 37 Q305 37 336.5 69.5 Q368 102 368 156 Q368 196 344 220 Q320 244 284 260.5 Q248 277 205.5 290.5 Q163 304 127 323.5 Q91 343 67 372.5 Q43 402 43 452 Q43 485 54.5 513.5 Q66 542 88 563 Q110 584 142 596 Q174 608 216 608 Z " />
<glyph glyph-name="scaron" unicode="&#x161;" horiz-adv-x="369" d="M281 594 Q292 594 295 587.5 Q298 581 291 573 L221 490 Q212 480 200 480 L170 480 Q158 480 149 490 L79 573 Q72 581 75 587.5 Q78 594 89 594 L104 594 Q116 594 125 584 L185 510 L245 584 Q254 594 266 594 L281 594 Z M170 440 Q216 440 248 425.5 Q280 411 303 384 Q320 362 300 349 Q282 336 264 355 Q245 376 222.5 388 Q200 400 168 400 Q132 400 107.5 382 Q83 364 83 325 Q83 299 102 284.5 Q121 270 149 260.5 Q177 251 210 242.5 Q243 234 271 219.5 Q299 205 318 180.5 Q337 156 337 114 Q337 85 324.5 62.5 Q312 40 291.5 24 Q271 8 244 0 Q217 -8 188 -8 Q144 -8 105.5 7.5 Q67 23 37 57 Q20 79 39 92 Q57 104 73 83 Q99 52 126.5 42 Q154 32 191 32 Q233 32 260 55.5 Q287 79 287 114 Q287 145 268 162 Q249 179 221 189.5 Q193 200 160 207.5 Q127 215 99 227.5 Q71 240 52 262 Q33 284 33 322 Q33 352 44 374.5 Q55 397 74 411.5 Q93 426 118 433 Q143 440 170 440 Z " />
<glyph glyph-name="Ydieresis" unicode="&#x178;" horiz-adv-x="461" d="M177 733 Q194 733 194 716 L194 672 Q194 655 177 655 L156 655 Q139 655 139 672 L139 716 Q139 733 156 733 L177 733 Z M306 733 Q323 733 323 716 L323 672 Q323 655 306 655 L285 655 Q268 655 268 672 L268 716 Q268 733 285 733 L306 733 Z M414 599 Q428 599 431.5 590 Q435 581 427 567 L255 254 L255 27 Q255 0 228 0 L227 0 Q200 0 200 27 L200 254 L34 567 Q26 581 31.5 590 Q37 599 53 599 L56 599 Q78 599 88 579 L226 303 L373 580 Q383 599 405 599 L414 599 Z " />
<glyph glyph-name="Zcaron" unicode="&#x17d;" horiz-adv-x="461" d="M327 761 Q338 761 341 754.5 Q344 748 337 740 L267 657 Q258 647 246 647 L216 647 Q204 647 195 657 L125 740 Q118 748 121 754.5 Q124 761 135 761 L150 761 Q162 761 171 751 L231 677 L291 751 Q300 761 312 761 L327 761 Z M392 599 Q419 599 419 572 L419 571 Q419 561 417 553.5 Q415 546 410 538 L106 45 L396 45 Q423 45 423 23 Q423 0 396 0 L65 0 Q38 0 38 27 Q38 37 40 44.5 Q42 52 47 60 L351 554 L91 554 Q64 554 64 577 Q64 599 91 599 L392 599 Z " />
<glyph glyph-name="zcaron" unicode="&#x17e;" horiz-adv-x="369" d="M281 594 Q292 594 295 587.5 Q298 581 291 573 L221 490 Q212 480 200 480 L170 480 Q158 480 149 490 L79 573 Q72 581 75 587.5 Q78 594 89 594 L104 594 Q116 594 125 584 L185 510 L245 584 Q254 594 266 594 L281 594 Z M309 432 Q336 432 336 416 Q336 401 326 385 L87 40 L316 40 Q343 40 343 20 Q343 0 316 0 L48 0 Q21 0 21 16 Q21 31 31 47 L270 392 L68 392 Q41 392 41 412 Q41 432 68 432 L309 432 Z " />
<glyph glyph-name="florin" unicode="&#x192;" horiz-adv-x="461" d="M218 361 Q222 394 228.5 437 Q235 480 250.5 518 Q266 556 293 582 Q320 608 365 608 Q371 608 377.5 608 Q384 608 390 607 Q402 606 407.5 599.5 Q413 593 411 584 Q409 574 398.5 571 Q388 568 380 568 Q342 568 322 548 Q302 528 291.5 497 Q281 466 277 429.5 Q273 393 267 361 L346 361 Q373 361 373 341 Q373 321 346 321 L263 321 L214 -9 Q210 -38 199.5 -64.5 Q189 -91 171.5 -110.5 Q154 -130 129.5 -141.5 Q105 -153 73 -153 Q69 -153 65 -153 Q61 -153 57 -152 Q41 -150 44 -128 Q45 -117 55 -114.5 Q65 -112 74 -113 L76 -113 Q123 -113 142.5 -73.5 Q162 -34 172 32 L214 321 L130 321 Q103 321 103 341 Q103 361 130 361 L218 361 Z " />
<glyph glyph-name="circumflex" unicode="&#x2c6;" horiz-adv-x="184" d="M107 594 Q119 594 128 584 L198 501 Q205 493 202 486.5 Q199 480 188 480 L173 480 Q161 480 152 490 L92 564 L32 490 Q23 480 11 480 L-4 480 Q-15 480 -18 486.5 Q-21 493 -14 501 L56 584 Q65 594 77 594 L107 594 Z " />
<glyph glyph-name="caron" unicode="&#x2c7;" horiz-adv-x="184" d="M188 594 Q199 594 202 587.5 Q205 581 198 573 L128 490 Q119 480 107 480 L77 480 Q65 480 56 490 L-14 573 Q-21 581 -18 587.5 Q-15 594 -4 594 L11 594 Q23 594 32 584 L92 510 L152 584 Q161 594 173 594 L188 594 Z " />
<glyph glyph-name="breve" unicode="&#x2d8;" horiz-adv-x="184" d="M196 588 Q213 588 210 570 Q202 529 171 506 Q140 483 92 483 Q44 483 13.5 506 Q-17 529 -25 570 Q-28 588 -11 588 Q4 588 8 573 Q18 545 40.5 533 Q63 521 92 521 Q121 521 143.5 533 Q166 545 176 573 Q181 588 195 588 L196 588 Z " />
<glyph glyph-name="dotaccent" unicode="&#x2d9;" horiz-adv-x="184" d="M103 566 Q120 566 120 549 L120 505 Q120 488 103 488 L82 488 Q65 488 65 505 L65 549 Q65 566 82 566 L103 566 Z " />
<glyph glyph-name="ring" unicode="&#x2da;" horiz-adv-x="184" d="M92 642 Q126 642 150.5 618 Q175 594 175 559 Q175 524 150.5 500 Q126 476 92 476 Q58 476 33.5 500 Q9 524 9 559 Q9 594 33.5 618 Q58 642 92 642 Z M92 614 Q69 614 53 598 Q37 582 37 559 Q37 536 53 520.5 Q69 505 92 505 Q115 505 131 520.5 Q147 536 147 559 Q147 582 131 598 Q115 614 92 614 Z " />
<glyph glyph-name="ogonek" unicode="&#x2db;" horiz-adv-x="184" d="M178 8 Q160 1 138.5 -8 Q117 -17 98 -29.5 Q79 -42 66 -59 Q53 -76 53 -99 Q53 -113 67.5 -125.5 Q82 -138 100 -138 Q116 -138 135 -129.5 Q154 -121 171 -112 Q186 -103 192 -116 Q198 -128 184 -136 Q161 -150 133.5 -160.5 Q106 -171 80 -171 Q48 -171 25 -156.5 Q2 -142 2 -105 Q2 -74 21 -53 Q40 -32 67.5 -18.5 Q95 -5 125.5 3 Q156 11 178 16 L178 8 Z " />
<glyph glyph-name="tilde" unicode="&#x2dc;" horiz-adv-x="184" d="M207 574 Q223 574 218 555 Q211 529 196 511 Q181 493 149 493 Q135 493 120 499 Q105 505 89 512 Q73 519 58.5 524.5 Q44 530 32 530 Q18 530 10 522 Q2 514 -3 503 Q-9 489 -22 489 L-23 489 Q-30 489 -33.5 494 Q-37 499 -35 507 Q-28 531 -9.5 550 Q9 569 35 569 Q51 569 66 563.5 Q81 558 96 551 Q112 544 126 538.5 Q140 533 154 533 Q167 533 175 540.5 Q183 548 187 559 Q193 574 206 574 L207 574 Z " />
<glyph glyph-name="hungarumlaut" unicode="&#x2dd;" horiz-adv-x="184" d="M106 594 Q117 594 120 587.5 Q123 581 116 573 L42 489 Q33 480 21 480 L14 480 Q5 480 3 486 Q1 492 7 501 L64 583 Q71 594 84 594 L106 594 Z M220 594 Q232 594 234.5 587.5 Q237 581 229 573 L145 489 Q136 480 124 480 L115 480 Q107 480 105.5 486.5 Q104 493 111 501 L178 584 Q187 594 199 594 L220 594 Z " />
<glyph glyph-name="mu" unicode="&#x3bc;" horiz-adv-x="461" d="M344 405 Q344 432 369 432 Q393 432 393 405 L393 27 Q393 0 369 0 Q344 0 344 27 L344 68 Q309 32 276.5 12 Q244 -8 196 -8 Q172 -8 152 -3.5 Q132 1 118 12 L118 -126 Q118 -153 93 -153 Q68 -153 68 -126 L68 405 Q68 432 93 432 Q118 432 118 405 L118 142 Q118 88 136.5 60 Q155 32 206 32 Q226 32 242.5 38 Q259 44 274.5 54.5 Q290 65 306.5 80 Q323 95 344 114 L344 405 Z " />
<glyph glyph-name="uni05BE" unicode="&#x5be;" horiz-adv-x="245" d="M178 500 Q195 500 195 483 L195 462 Q195 445 178 445 L67 445 Q50 445 50 462 L50 483 Q50 500 67 500 L178 500 Z " />
<glyph glyph-name="uni05D0" unicode="&#x5d0;" horiz-adv-x="430" d="M350 500 Q377 500 377 473 L377 274 Q377 253 362 241 L291 176 L364 32 Q371 18 367 9 Q363 0 349 0 L339 0 Q317 0 307 20 L178 278 L120 225 Q105 213 105 192 L105 27 Q105 0 78 0 L77 0 Q50 0 50 27 L50 215 Q50 236 65 248 L152 329 L81 468 Q74 482 79.5 491 Q85 500 101 500 L106 500 Q128 500 138 480 L266 226 L307 264 Q322 276 322 297 L322 473 Q322 500 349 500 L350 500 Z " />
<glyph glyph-name="uni05D1" unicode="&#x5d1;" horiz-adv-x="400" d="M298 500 Q325 500 325 473 L325 55 L338 55 Q365 55 365 28 L365 27 Q365 0 338 0 L67 0 Q40 0 40 27 L40 28 Q40 55 67 55 L270 55 L270 445 L87 445 Q60 445 60 472 L60 473 Q60 500 87 500 L298 500 Z " />
<glyph glyph-name="uni05D2" unicode="&#x5d2;" horiz-adv-x="273" d="M154 500 Q179 500 183 475 L249 29 Q252 0 225 0 L222 0 Q197 0 193 25 L167 205 L94 21 Q87 0 63 0 L56 0 Q26 0 37 31 L106 204 Q114 225 137 225 L164 225 L130 445 L63 445 Q36 445 36 472 L36 473 Q36 500 63 500 L154 500 Z " />
<glyph glyph-name="uni05D3" unicode="&#x5d3;" horiz-adv-x="385" d="M318 500 Q345 500 345 473 L345 472 Q345 445 325 445 L305 445 L305 27 Q305 0 278 0 L277 0 Q250 0 250 27 L250 445 L47 445 Q20 445 20 472 L20 473 Q20 500 47 500 L318 500 Z " />
<glyph glyph-name="uni05D4" unicode="&#x5d4;" horiz-adv-x="425" d="M348 500 Q375 500 375 473 L375 27 Q375 0 348 0 L347 0 Q320 0 320 27 L320 445 L77 445 Q50 445 50 472 L50 473 Q50 500 77 500 L348 500 Z M78 280 Q105 280 105 253 L105 27 Q105 0 78 0 L77 0 Q50 0 50 27 L50 253 Q50 280 77 280 L78 280 Z " />
<glyph glyph-name="uni05D5" unicode="&#x5d5;" horiz-adv-x="215" d="M138 500 Q165 500 165 473 L165 27 Q165 0 138 0 L137 0 Q110 0 110 27 L110 445 L67 445 Q40 445 40 472 L40 473 Q40 500 67 500 L138 500 Z " />
<glyph glyph-name="uni05D6" unicode="&#x5d6;" horiz-adv-x="235" d="M178 500 Q205 500 205 473 L205 472 Q205 445 186 445 L156 445 Q143 407 137.5 380.5 Q132 354 132 324 Q132 297 139 269 Q146 241 155 212.5 Q164 184 171 156.5 Q178 129 178 105 Q178 85 175 63.5 Q172 42 169 24 Q165 0 139 0 L137 0 Q110 0 116 29 Q119 47 121 67 Q123 87 123 105 Q123 134 116 163 Q109 192 100 220 Q91 248 84 274 Q77 300 77 324 Q77 348 82 373.5 Q87 399 101 445 L57 445 Q30 445 30 472 L30 473 Q30 500 57 500 L178 500 Z " />
<glyph glyph-name="uni05D7" unicode="&#x5d7;" horiz-adv-x="415" d="M338 500 Q365 500 365 473 L365 27 Q365 0 338 0 L337 0 Q310 0 310 27 L310 445 L135 445 L135 27 Q135 0 108 0 L107 0 Q80 0 80 27 L80 445 L67 445 Q40 445 40 472 L40 473 Q40 500 67 500 L338 500 Z " />
<glyph glyph-name="uni05D8" unicode="&#x5d8;" horiz-adv-x="428" d="M323 500 Q346 500 362 485 Q378 470 378 445 L378 27 Q378 0 351 0 L77 0 Q50 0 50 27 L50 473 Q50 500 77 500 L78 500 Q105 500 105 473 L105 55 L323 55 L323 445 L253 445 L240 350 Q237 325 212 325 L209 325 Q180 325 185 354 L202 475 Q205 500 230 500 L323 500 Z " />
<glyph glyph-name="uni05D9" unicode="&#x5d9;" horiz-adv-x="200" d="M123 500 Q150 500 150 473 L150 252 Q150 225 123 225 L122 225 Q95 225 95 252 L95 445 L52 445 Q25 445 25 472 L25 473 Q25 500 52 500 L123 500 Z " />
<glyph glyph-name="uni05DA" unicode="&#x5da;" horiz-adv-x="345" d="M268 500 Q295 500 295 473 L295 -73 Q295 -100 268 -100 L267 -100 Q240 -100 240 -73 L240 445 L67 445 Q40 445 40 472 L40 473 Q40 500 67 500 L268 500 Z " />
<glyph glyph-name="uni05DB" unicode="&#x5db;" horiz-adv-x="375" d="M298 500 Q325 500 325 473 L325 55 Q325 40 319.5 30 Q314 20 305.5 13 Q297 6 287.5 3 Q278 0 270 0 L77 0 Q50 0 50 27 L50 28 Q50 55 77 55 L270 55 L270 445 L77 445 Q50 445 50 472 L50 473 Q50 500 77 500 L298 500 Z " />
<glyph glyph-name="uni05DC" unicode="&#x5dc;" horiz-adv-x="360" d="M53 600 Q80 600 80 573 L80 500 L283 500 Q310 500 310 473 L310 165 Q310 136 297 106.5 Q284 77 263.5 53.5 Q243 30 217 15 Q191 0 165 0 L149 0 Q122 0 122 27 L122 28 Q122 55 149 55 L165 55 Q180 55 196 65.5 Q212 76 225 92 Q238 108 246.5 126.5 Q255 145 255 161 L255 445 L25 445 L25 573 Q25 600 52 600 L53 600 Z " />
<glyph glyph-name="uni05DD" unicode="&#x5dd;" horiz-adv-x="415" d="M338 500 Q365 500 365 473 L365 27 Q365 0 338 0 L107 0 Q80 0 80 27 L80 445 L67 445 Q40 445 40 472 L40 473 Q40 500 67 500 L338 500 Z M135 55 L310 55 L310 445 L135 445 L135 55 Z " />
<glyph glyph-name="uni05DE" unicode="&#x5de;" horiz-adv-x="445" d="M368 500 Q395 500 395 473 L395 27 Q395 0 368 0 L270 0 Q243 0 243 27 L243 28 Q243 55 270 55 L340 55 L340 445 L230 445 L135 404 L135 27 Q135 0 108 0 L107 0 Q80 0 80 27 L80 445 L67 445 Q40 445 40 472 L40 473 Q40 500 67 500 L108 500 Q135 500 135 473 L135 462 L214 494 Q223 497 230.5 498.5 Q238 500 247 500 L368 500 Z " />
<glyph glyph-name="uni05DF" unicode="&#x5df;" horiz-adv-x="215" d="M138 500 Q165 500 165 473 L165 -73 Q165 -100 138 -100 L137 -100 Q110 -100 110 -73 L110 445 L67 445 Q40 445 40 472 L40 473 Q40 500 67 500 L138 500 Z " />
<glyph glyph-name="uni05E0" unicode="&#x5e0;" horiz-adv-x="245" d="M168 500 Q195 500 195 473 L195 55 Q195 27 176 13.5 Q157 0 141 0 L47 0 Q20 0 20 27 L20 28 Q20 55 47 55 L140 55 L140 445 L97 445 Q70 445 70 472 L70 473 Q70 500 97 500 L168 500 Z " />
<glyph glyph-name="uni05E1" unicode="&#x5e1;" horiz-adv-x="421" d="M367 500 Q381 500 387.5 492.5 Q394 485 392 471 L335 55 Q334 45 331 35.5 Q328 26 321 18 Q314 10 302.5 5 Q291 0 272 0 L115 0 Q89 0 87 26 L59 445 L42 445 Q15 445 15 472 L15 473 Q15 500 42 500 L367 500 Z M140 55 L254 55 Q279 55 282 80 L333 445 L114 445 L140 55 Z " />
<glyph glyph-name="uni05E2" unicode="&#x5e2;" horiz-adv-x="403" d="M350 500 Q379 500 374 471 L317 55 Q313 26 299 13 Q285 0 253 0 L62 0 Q35 0 35 27 L35 28 Q35 55 62 55 L109 55 L53 471 Q51 484 56 492 Q61 500 78 500 Q103 500 106 475 L164 55 L237 55 Q262 55 265 80 L319 475 Q322 500 347 500 L350 500 Z " />
<glyph glyph-name="uni05E3" unicode="&#x5e3;" horiz-adv-x="385" d="M308 500 Q335 500 335 473 L335 -73 Q335 -100 308 -100 L307 -100 Q280 -100 280 -73 L280 445 L95 445 L95 280 L123 280 Q150 280 150 253 L150 252 Q150 225 123 225 L67 225 Q40 225 40 252 L40 473 Q40 500 67 500 L308 500 Z " />
<glyph glyph-name="uni05E4" unicode="&#x5e4;" horiz-adv-x="415" d="M338 500 Q365 500 365 473 L365 56 Q365 40 359.5 29.5 Q354 19 345.5 12.5 Q337 6 327.5 3 Q318 0 310 0 L77 0 Q50 0 50 27 L50 28 Q50 55 77 55 L283 55 Q310 55 310 82 L310 445 L105 445 L105 280 L158 280 Q185 280 185 253 L185 252 Q185 225 158 225 L77 225 Q50 225 50 252 L50 473 Q50 500 77 500 L338 500 Z " />
<glyph glyph-name="uni05E5" unicode="&#x5e5;" horiz-adv-x="375" d="M318 500 Q345 500 345 473 L345 345 Q345 324 330 312 L135 135 L135 -73 Q135 -100 108 -100 L107 -100 Q80 -100 80 -73 L80 445 L67 445 Q40 445 40 472 L40 473 Q40 500 67 500 L108 500 Q135 500 135 473 L135 210 L275 336 Q290 348 290 369 L290 473 Q290 500 317 500 L318 500 Z " />
<glyph glyph-name="uni05E6" unicode="&#x5e6;" horiz-adv-x="427" d="M347 500 Q374 500 371 471 L335 225 Q331 200 306 200 L291 200 L382 69 Q392 53 392 36 L392 27 Q392 0 365 0 L47 0 Q20 0 20 27 L20 28 Q20 55 47 55 L323 55 L42 467 Q33 481 38 490.5 Q43 500 60 500 L65 500 Q87 500 98 483 L278 219 L315 475 Q319 500 344 500 L347 500 Z " />
<glyph glyph-name="uni05E7" unicode="&#x5e7;" horiz-adv-x="405" d="M328 500 Q355 500 355 473 L355 133 Q355 105 345 80.5 Q335 56 318 38 Q301 20 277.5 10 Q254 0 228 0 L187 0 Q160 0 160 27 L160 28 Q160 55 187 55 L228 55 Q258 55 279 78 Q300 101 300 133 L300 445 L77 445 Q50 445 50 472 L50 473 Q50 500 77 500 L328 500 Z M78 325 Q105 325 105 298 L105 -73 Q105 -100 78 -100 L77 -100 Q50 -100 50 -73 L50 298 Q50 325 77 325 L78 325 Z " />
<glyph glyph-name="uni05E8" unicode="&#x5e8;" horiz-adv-x="340" d="M235 500 Q250 500 260.5 494 Q271 488 277.5 479.5 Q284 471 287 461.5 Q290 452 290 445 L290 27 Q290 0 263 0 L262 0 Q235 0 235 27 L235 418 Q235 445 208 445 L62 445 Q35 445 35 472 L35 473 Q35 500 62 500 L235 500 Z " />
<glyph glyph-name="uni05E9" unicode="&#x5e9;" horiz-adv-x="463" d="M410 500 Q437 500 434 471 L388 160 Q382 117 363.5 87 Q345 57 321 37.5 Q297 18 270 9 Q243 0 220 0 L119 0 Q94 0 91 25 L29 471 Q27 485 33.5 492.5 Q40 500 54 500 L56 500 Q81 500 84 475 L122 201 L159 230 Q174 242 177 261 L207 475 Q211 500 236 500 L239 500 Q266 500 263 471 L228 233 Q225 214 210 202 L130 140 L142 55 L221 55 Q242 55 261 64 Q280 73 295 87 Q310 101 319.5 117.5 Q329 134 331 150 L378 475 Q382 500 407 500 L410 500 Z " />
<glyph glyph-name="uni05EA" unicode="&#x5ea;" horiz-adv-x="425" d="M348 500 Q375 500 375 473 L375 27 Q375 0 348 0 L347 0 Q320 0 320 27 L320 445 L145 445 L145 27 Q145 0 118 0 L67 0 Q40 0 40 27 L40 28 Q40 55 67 55 L90 55 L90 445 L77 445 Q50 445 50 472 L50 473 Q50 500 77 500 L348 500 Z " />
<glyph glyph-name="gereshhebrew" unicode="&#x5f3;" horiz-adv-x="170" d="M103 500 Q120 500 120 483 L120 442 Q120 430 111 421 L71 381 Q63 373 56.5 375.5 Q50 378 50 390 L50 483 Q50 500 67 500 L103 500 Z " />
<glyph glyph-name="gershayimhebrew" unicode="&#x5f4;" horiz-adv-x="309" d="M103 500 Q120 500 120 483 L120 442 Q120 430 111 421 L71 381 Q63 373 56.5 375.5 Q50 378 50 390 L50 483 Q50 500 67 500 L103 500 Z M242 500 Q259 500 259 483 L259 442 Q259 430 250 421 L210 381 Q202 373 195.5 375.5 Q189 378 189 390 L189 483 Q189 500 206 500 L242 500 Z " />
<glyph glyph-name="hyphen1" unicode="&#x2010;" horiz-adv-x="335" d="M258 280 Q285 280 285 253 L285 252 Q285 225 258 225 L77 225 Q50 225 50 252 L50 253 Q50 280 77 280 L258 280 Z " />
<glyph glyph-name="endash" unicode="&#x2013;" horiz-adv-x="385" d="M308 280 Q335 280 335 253 L335 252 Q335 225 308 225 L77 225 Q50 225 50 252 L50 253 Q50 280 77 280 L308 280 Z " />
<glyph glyph-name="emdash" unicode="&#x2014;" horiz-adv-x="515" d="M438 280 Q465 280 465 253 L465 252 Q465 225 438 225 L77 225 Q50 225 50 252 L50 253 Q50 280 77 280 L438 280 Z " />
<glyph glyph-name="quoteleft" unicode="&#x2018;" horiz-adv-x="184" d="M118 608 Q134 608 126 588 L86 483 L104 483 Q121 483 121 466 L121 425 Q121 408 104 408 L67 408 Q50 408 50 425 L50 472 Q50 484 54 493 L97 595 Q101 608 116 608 L118 608 Z " />
<glyph glyph-name="quoteright" unicode="&#x2019;" horiz-adv-x="185" d="M118 599 Q135 599 135 582 L135 536 Q135 524 131 515 L88 413 Q82 400 68 400 L66 400 Q50 400 58 420 L98 525 L80 525 Q63 525 63 542 L63 582 Q63 599 80 599 L118 599 Z " />
<glyph glyph-name="quotesinglbase" unicode="&#x201a;" horiz-adv-x="184" d="M117 75 Q134 75 134 58 L134 11 Q134 -1 130 -10 L87 -112 Q83 -125 68 -125 L66 -125 Q50 -125 58 -105 L98 0 L80 0 Q63 0 63 17 L63 58 Q63 75 80 75 L117 75 Z " />
<glyph glyph-name="quotedblleft" unicode="&#x201c;" horiz-adv-x="369" d="M149 608 Q165 608 157 588 L117 483 L135 483 Q152 483 152 466 L152 425 Q152 408 135 408 L98 408 Q81 408 81 425 L81 472 Q81 484 85 493 L128 595 Q132 608 147 608 L149 608 Z M288 608 Q295 608 297.5 602.5 Q300 597 296 588 L256 483 L274 483 Q291 483 291 466 L291 425 Q291 408 274 408 L236 408 Q219 408 219 425 L219 472 Q219 484 223 493 L266 595 Q270 608 285 608 L288 608 Z " />
<glyph glyph-name="quotedblright" unicode="&#x201d;" horiz-adv-x="369" d="M132 599 Q149 599 149 582 L149 536 Q149 524 145 515 L102 413 Q98 400 83 400 L81 400 Q65 400 73 420 L113 525 L95 525 Q78 525 78 542 L78 582 Q78 599 95 599 L132 599 Z M271 599 Q288 599 288 582 L288 536 Q288 524 284 515 L241 413 Q237 400 222 400 L220 400 Q203 400 211 420 L251 525 L234 525 Q217 525 217 542 L217 582 Q217 599 234 599 L271 599 Z " />
<glyph glyph-name="quotedblbase" unicode="&#x201e;" horiz-adv-x="369" d="M132 75 Q149 75 149 58 L149 11 Q149 -1 145 -10 L102 -112 Q98 -125 83 -125 L81 -125 Q65 -125 73 -105 L113 0 L95 0 Q78 0 78 17 L78 58 Q78 75 95 75 L132 75 Z M271 75 Q288 75 288 58 L288 11 Q288 -1 284 -10 L241 -112 Q237 -125 222 -125 L220 -125 Q203 -125 211 -105 L251 0 L234 0 Q217 0 217 17 L217 58 Q217 75 234 75 L271 75 Z " />
<glyph glyph-name="dagger" unicode="&#x2020;" horiz-adv-x="509" d="M257 599 Q284 599 284 572 L284 428 L420 428 Q447 428 447 402 Q447 375 420 375 L284 375 L284 27 Q284 0 257 0 L250 0 Q223 0 223 27 L223 375 L89 375 Q62 375 62 402 Q62 428 89 428 L223 428 L223 572 Q223 599 250 599 L257 599 Z " />
<glyph glyph-name="daggerdbl" unicode="&#x2021;" horiz-adv-x="509" d="M257 599 Q284 599 284 572 L284 428 L420 428 Q447 428 447 402 Q447 375 420 375 L284 375 L284 40 L420 40 Q447 40 447 14 Q447 -13 420 -13 L284 -13 L284 -158 Q284 -185 257 -185 L250 -185 Q223 -185 223 -158 L223 -13 L89 -13 Q62 -13 62 14 Q62 40 89 40 L223 40 L223 375 L89 375 Q62 375 62 402 Q62 428 89 428 L223 428 L223 572 Q223 599 250 599 L257 599 Z " />
<glyph glyph-name="bullet" unicode="&#x2022;" horiz-adv-x="346" d="M173 393 Q203 393 229 382 Q255 371 274.5 351.5 Q294 332 305 306 Q316 280 316 250 Q316 220 305 194 Q294 168 274.5 148.5 Q255 129 229 118 Q203 107 173 107 Q143 107 117 118 Q91 129 71.5 148.5 Q52 168 41 194 Q30 220 30 250 Q30 280 41 306 Q52 332 71.5 351.5 Q91 371 117 382 Q143 393 173 393 Z " />
<glyph glyph-name="ellipsis" unicode="&#x2026;" horiz-adv-x="830" d="M147 75 Q174 75 174 48 L174 27 Q174 0 147 0 L130 0 Q103 0 103 27 L103 48 Q103 75 130 75 L147 75 Z M424 75 Q451 75 451 48 L451 27 Q451 0 424 0 L406 0 Q379 0 379 27 L379 48 Q379 75 406 75 L424 75 Z M700 75 Q727 75 727 48 L727 27 Q727 0 700 0 L683 0 Q656 0 656 27 L656 48 Q656 75 683 75 L700 75 Z " />
<glyph glyph-name="perthousand" unicode="&#x2030;" horiz-adv-x="840" d="M41 409 Q41 454 69 479.5 Q97 505 139 505 Q181 505 209 479.5 Q237 454 237 409 L237 338 Q237 292 209 267 Q181 242 139 242 Q97 242 69 267 Q41 292 41 338 L41 409 Z M414 500 Q426 500 430 491 Q434 482 427 468 L215 20 Q206 0 184 0 L178 0 Q165 0 161 9 Q157 18 164 32 L376 480 Q385 500 407 500 L414 500 Z M183 407 Q183 430 172.5 443.5 Q162 457 139 457 Q95 457 95 407 L95 340 Q95 290 139 290 Q183 290 183 340 L183 407 Z M354 162 Q354 208 382 233 Q410 258 452 258 Q494 258 522.5 233 Q551 208 551 162 L551 91 Q551 46 522.5 20.5 Q494 -5 452 -5 Q410 -5 382 20.5 Q354 46 354 91 L354 162 Z M602 162 Q602 208 630.5 233 Q659 258 701 258 Q743 258 771 233 Q799 208 799 162 L799 91 Q799 46 771 20.5 Q743 -5 701 -5 Q659 -5 630.5 20.5 Q602 46 602 91 L602 162 Z M496 160 Q496 184 485.5 197.5 Q475 211 452 211 Q429 211 418.5 197.5 Q408 184 408 160 L408 93 Q408 43 452 43 Q475 43 485.5 56.5 Q496 70 496 93 L496 160 Z M745 160 Q745 184 734.5 197.5 Q724 211 701 211 Q678 211 667.5 197.5 Q657 184 657 160 L657 93 Q657 43 701 43 Q724 43 734.5 56.5 Q745 70 745 93 L745 160 Z " />
<glyph glyph-name="guilsinglleft" unicode="&#x2039;" horiz-adv-x="276" d="M181 344 Q192 344 195 337.5 Q198 331 191 323 L105 217 L191 109 Q198 100 195 94 Q192 88 181 88 L167 88 Q155 88 146 98 L62 205 Q53 217 62 229 L146 334 Q155 344 167 344 L181 344 Z " />
<glyph glyph-name="guilsinglright" unicode="&#x203a;" horiz-adv-x="276" d="M110 344 Q122 344 131 334 L214 226 Q223 214 214 202 L131 98 Q122 88 110 88 L95 88 Q84 88 81 94.5 Q78 101 85 109 L171 214 L84 323 Q77 332 80.5 338 Q84 344 95 344 L110 344 Z " />
<glyph glyph-name="uni20AA" unicode="&#x20aa;" horiz-adv-x="573" d="M348 500 Q365 500 365 483 L365 146 Q365 129 348 129 L327 129 Q310 129 310 146 L310 428 Q310 445 293 445 L135 445 L135 17 Q135 0 118 0 L97 0 Q80 0 80 17 L80 445 L57 445 Q40 445 40 462 L40 483 Q40 500 57 500 L348 500 Z M525 500 Q543 500 540 482 L493 160 Q487 117 468.5 87 Q450 57 426 37.5 Q402 18 375 9 Q348 0 325 0 L215 0 Q198 0 198 17 L198 354 Q198 371 215 371 L230 371 Q247 371 247 354 L247 55 L325 55 Q346 55 365 64 Q384 73 399 87 Q414 101 423.5 117.5 Q433 134 436 150 L485 484 Q486 500 503 500 L525 500 Z " />
<glyph glyph-name="Euro" unicode="&#x20ac;" horiz-adv-x="482" d="M81 325 Q83 365 94.5 399 Q106 433 127.5 457.5 Q149 482 181.5 496 Q214 510 257 510 Q318 510 362 479 Q406 448 424 390 Q429 376 422.5 368 Q416 360 402 360 Q380 360 371 383 Q357 420 328 441 Q299 462 257 462 Q224 462 202 451.5 Q180 441 165.5 422.5 Q151 404 144.5 379 Q138 354 136 325 L265 325 Q292 325 292 308 Q292 290 265 290 L134 290 L134 220 L265 220 Q292 220 292 203 Q292 185 265 185 L136 185 Q137 156 143.5 130 Q150 104 164 85 Q178 66 201 55 Q224 44 257 44 Q299 44 328.5 65.5 Q358 87 372 123 Q381 146 403 146 L406 146 Q418 146 423.5 138 Q429 130 424 116 Q406 58 361.5 27 Q317 -4 257 -4 Q212 -4 180 10.5 Q148 25 126.5 50 Q105 75 94 110 Q83 145 81 185 L60 185 Q33 185 33 203 Q33 220 60 220 L80 220 L80 290 L60 290 Q33 290 33 308 Q33 325 60 325 L81 325 Z " />
<glyph glyph-name="trademark" unicode="&#x2122;" horiz-adv-x="822" d="M293 599 Q310 599 310 582 L310 580 Q310 563 293 563 L200 563 L200 274 Q200 257 183 257 L176 257 Q159 257 159 274 L159 563 L62 563 Q45 563 45 580 L45 582 Q45 599 62 599 L293 599 Z M713 599 Q730 599 730 582 L730 274 Q730 257 713 257 L706 257 Q689 257 689 274 L689 563 L687 563 L569 270 Q565 257 552 257 Q538 257 534 270 L415 563 L413 563 L413 274 Q413 257 396 257 L389 257 Q372 257 372 274 L372 582 Q372 599 389 599 L428 599 Q443 599 447 586 L553 327 L655 586 Q659 599 674 599 L713 599 Z " />
<glyph glyph-name="minus" unicode="&#x2212;" horiz-adv-x="375" d="M298 280 Q325 280 325 253 L325 252 Q325 225 298 225 L77 225 Q50 225 50 252 L50 253 Q50 280 77 280 L298 280 Z " />
<glyph glyph-name="fi" unicode="&#xfb01;" horiz-adv-x="415" d="M80 493 Q80 550 104 579 Q128 608 183 608 Q198 608 213 605 Q237 602 237 580 Q237 561 213 566 Q207 567 201 567.5 Q195 568 188 568 Q159 568 144 552.5 Q129 537 129 499 L129 432 L190 432 Q217 432 217 412 Q217 392 190 392 L129 392 L129 27 Q129 0 105 0 Q80 0 80 27 L80 392 L35 392 Q8 392 8 412 Q8 432 35 432 L80 432 L80 493 Z M298 572 Q298 599 323 599 Q348 599 348 572 L348 553 Q348 526 323 526 Q298 526 298 553 L298 572 Z M298 405 Q298 432 323 432 Q348 432 348 405 L348 27 Q348 0 323 0 Q298 0 298 27 L298 405 Z " />
<glyph glyph-name="fl" unicode="&#xfb02;" horiz-adv-x="415" d="M80 493 Q80 550 104 579 Q128 608 183 608 Q198 608 213 605 Q237 602 237 580 Q237 561 213 566 Q207 567 201 567.5 Q195 568 188 568 Q159 568 144 552.5 Q129 537 129 499 L129 432 L190 432 Q217 432 217 412 Q217 392 190 392 L129 392 L129 27 Q129 0 105 0 Q80 0 80 27 L80 392 L35 392 Q8 392 8 412 Q8 432 35 432 L80 432 L80 493 Z M298 572 Q298 599 323 599 Q348 599 348 572 L348 27 Q348 0 323 0 Q298 0 298 27 L298 572 Z " />
</font>
</svg>
