<?xml version="1.0" encoding="UTF-8"?>
<svg xmlns="http://www.w3.org/2000/svg" xmlns:xlink="http://www.w3.org/1999/xlink" version="1.2" >
<font id="NextExitRound">
<font-face  font-family="NextExitRound" units-per-em="1000" ascent="700" descent="-300" font-style="normal" font-weight="400" font-stretch="normal" cap-height="599" x-height="432" underline-position="-133" underline-thickness="20" />
<missing-glyph  horiz-adv-x="500" d="M63 0 L63 700 L438 700 L438 0 L63 0 Z M125 63 L375 63 L375 638 L125 638 L125 63 Z " />
<glyph glyph-name="&amp;#x0;" horiz-adv-x="160" d="" />
<glyph glyph-name="&amp;#xd;" unicode="&#xd;" horiz-adv-x="160" d="" />
<glyph glyph-name="space" unicode="&#x20;" horiz-adv-x="160" d="" />
<glyph glyph-name="exclam" unicode="&#x21;" horiz-adv-x="200" d="M117 500 Q150 500 150 467 L150 225 L134 178 Q125 151 100 151 Q75 151 66 178 L50 225 L50 467 Q50 500 83 500 L117 500 Z M117 100 Q150 100 150 67 L150 33 Q150 0 117 0 L83 0 Q50 0 50 33 L50 67 Q50 100 83 100 L117 100 Z " />
<glyph glyph-name="quotedbl" unicode="&#x22;" horiz-adv-x="350" d="M133 500 Q150 500 150 483 L150 413 Q150 401 140 392 L71 340 Q62 334 56 337 Q50 340 50 351 L50 483 Q50 500 67 500 L133 500 Z M283 500 Q300 500 300 483 L300 413 Q300 401 290 392 L221 340 Q212 334 206 337 Q200 340 200 351 L200 483 Q200 500 217 500 L283 500 Z " />
<glyph glyph-name="numbersign" unicode="&#x23;" horiz-adv-x="481" d="M362 500 Q398 500 393 465 L383 400 L425 400 Q461 400 455 365 L454 355 Q450 325 418 325 L372 325 L357 225 L399 225 Q434 225 429 190 L428 181 Q424 150 393 150 L345 150 L327 30 Q323 0 292 0 L276 0 Q240 0 245 35 L262 150 L179 150 L161 30 Q157 0 126 0 L109 0 Q73 0 78 35 L96 150 L55 150 Q20 150 25 185 L26 194 Q30 225 61 225 L107 225 L122 325 L81 325 Q46 325 51 360 L52 369 Q56 400 87 400 L133 400 L143 470 Q148 500 179 500 L196 500 Q232 500 227 465 L217 400 L299 400 L309 470 Q314 500 345 500 L362 500 Z M191 225 L273 225 L288 325 L206 325 L191 225 Z " />
<glyph glyph-name="dollar" unicode="&#x24;" horiz-adv-x="410" d="M209 575 Q242 575 242 542 L242 506 Q285 495 315.5 465 Q346 435 356 393 Q360 376 351 367 Q342 358 325 358 L287 358 Q276 358 270.5 366.5 Q265 375 258 386 Q238 417 205 417 Q198 417 188.5 414.5 Q179 412 170 406.5 Q161 401 155 392 Q149 383 149 370 Q149 353 165.5 341.5 Q182 330 207.5 319.5 Q233 309 262 296.5 Q291 284 316.5 265 Q342 246 358.5 217.5 Q375 189 375 147 Q375 119 365 93.5 Q355 68 337 48 Q319 28 295 14 Q271 0 242 -6 L242 -42 Q242 -75 209 -75 L200 -75 Q167 -75 167 -42 L167 -6 Q119 4 84.5 35.5 Q50 67 39 112 Q35 129 44 137.5 Q53 146 70 147 L116 147 Q131 147 138 140 Q145 133 152 119 Q160 105 174 96.5 Q188 88 205 88 Q230 88 247.5 105 Q265 122 265 147 Q265 170 249 184.5 Q233 199 209 210 Q185 221 157.5 231.5 Q130 242 106 258 Q82 274 66 297.5 Q50 321 50 358 Q50 412 83 452.5 Q116 493 167 505 L167 542 Q167 575 200 575 L209 575 Z " />
<glyph glyph-name="percent" unicode="&#x25;" horiz-adv-x="595" d="M37 408 Q37 456 66.5 480 Q96 504 138 504 Q180 504 210 480 Q240 456 240 408 L240 338 Q240 290 210 266 Q180 242 138 242 Q96 242 66.5 266 Q37 290 37 338 L37 408 Z M417 500 Q432 500 437 489 Q442 478 434 461 L228 24 Q216 0 189 0 L180 0 Q164 0 159 11 Q154 22 162 39 L369 476 Q381 500 408 500 L417 500 Z M174 405 Q174 445 138 445 Q103 445 103 405 L103 341 Q103 301 138 301 Q174 301 174 341 L174 405 Z M355 162 Q355 210 385 234 Q415 258 457 258 Q499 258 529 234 Q559 210 559 162 L559 92 Q559 44 529 20 Q499 -4 457 -4 Q415 -4 385 20 Q355 44 355 92 L355 162 Z M493 159 Q493 199 457 199 Q421 199 421 159 L421 95 Q421 55 457 55 Q493 55 493 95 L493 159 Z " />
<glyph glyph-name="ampersand" unicode="&#x26;" horiz-adv-x="554" d="M526 26 Q526 9 517.5 0.5 Q509 -8 492 -6 Q465 -3 441 10 Q417 23 377 55 Q346 23 308 7.5 Q270 -8 225 -8 Q183 -8 148 2.5 Q113 13 87.5 34 Q62 55 47.5 88 Q33 121 33 166 Q33 222 61 258.5 Q89 295 133 324 Q108 360 95 391.5 Q82 423 82 468 Q82 500 93.5 526 Q105 552 125 570 Q145 588 173 598 Q201 608 234 608 Q264 608 290 597.5 Q316 587 335.5 569 Q355 551 366 526.5 Q377 502 377 474 Q377 445 367 421 Q357 397 340.5 377 Q324 357 303 340 Q282 323 261 306 Q286 273 312.5 243 Q339 213 367 188 Q393 226 412 271 Q424 299 453 292 L481 285 Q516 275 502 243 Q490 213 475.5 184 Q461 155 442 129 Q455 117 468.5 108 Q482 99 497 94 Q511 89 518.5 81 Q526 73 526 58 L526 26 Z M229 540 Q212 540 195 523 Q178 506 178 476 Q178 450 187 425.5 Q196 401 210 378 Q236 398 258.5 423.5 Q281 449 281 478 Q281 503 268 521.5 Q255 540 229 540 Z M189 250 Q168 233 154.5 216.5 Q141 200 141 171 Q141 155 148.5 139.5 Q156 124 168 113 Q180 102 196 95 Q212 88 229 88 Q274 88 309 121 Q273 150 243.5 182 Q214 214 189 250 Z " />
<glyph glyph-name="quotesingle" unicode="&#x27;" horiz-adv-x="200" d="M133 500 Q150 500 150 483 L150 389 Q150 375 138 369 L70 335 Q50 325 50 347 L50 483 Q50 500 67 500 L133 500 Z " />
<glyph glyph-name="parenleft" unicode="&#x28;" horiz-adv-x="300" d="M206 574 Q226 574 232 563 Q238 552 230 535 Q219 513 205 480.5 Q191 448 179 410 Q167 372 158.5 331 Q150 290 150 250 Q150 210 158.5 169 Q167 128 179 90 Q191 52 205 19.5 Q219 -13 230 -35 Q238 -52 232 -63 Q226 -74 206 -74 L176 -74 Q150 -74 137 -51 Q127 -31 112.5 2 Q98 35 84 75.5 Q70 116 60 161 Q50 206 50 250 Q50 294 60 339 Q70 384 84 424.5 Q98 465 113 498 Q128 531 138 551 Q150 574 177 574 L206 574 Z " />
<glyph glyph-name="parenright" unicode="&#x29;" horiz-adv-x="300" d="M122 573 Q148 573 161 550 Q171 531 186 498 Q201 465 215.5 424.5 Q230 384 240 339 Q250 294 250 250 Q250 206 240.5 161 Q231 116 217 75 Q203 34 188.5 1 Q174 -32 164 -52 Q153 -75 125 -76 L96 -76 Q76 -75 70 -64.5 Q64 -54 72 -37 Q83 -15 96.5 18 Q110 51 122 89 Q134 127 142 168.5 Q150 210 150 250 Q150 290 141.5 331 Q133 372 120.5 409.5 Q108 447 94 479 Q80 511 68 533 Q50 571 92 573 L122 573 Z " />
<glyph glyph-name="asterisk" unicode="&#x2a;" horiz-adv-x="298" d="M157 500 Q174 500 174 483 L174 443 L208 463 Q223 472 232 457 L240 443 Q248 427 233 420 L199 400 L233 380 Q248 373 240 357 L232 343 Q223 328 208 337 L174 357 L174 317 Q174 300 157 300 L141 300 Q124 300 124 317 L124 357 L90 337 Q75 328 66 343 L58 357 Q50 373 65 380 L99 400 L65 420 Q50 428 59 443 L67 457 Q75 472 90 463 L124 443 L124 483 Q124 500 141 500 L157 500 Z " />
<glyph glyph-name="plus" unicode="&#x2b;" horiz-adv-x="400" d="M217 400 Q250 400 250 367 L250 300 L317 300 Q350 300 350 267 L350 233 Q350 200 317 200 L250 200 L250 133 Q250 100 217 100 L183 100 Q150 100 150 133 L150 200 L83 200 Q50 200 50 233 L50 267 Q50 300 83 300 L150 300 L150 367 Q150 400 183 400 L217 400 Z " />
<glyph glyph-name="comma" unicode="&#x2c;" horiz-adv-x="200" d="M133 100 Q150 100 150 83 L150 13 Q150 1 140 -8 L71 -60 Q62 -66 56 -63 Q50 -60 50 -49 L50 83 Q50 100 67 100 L133 100 Z " />
<glyph glyph-name="hyphen" unicode="&#x2d;" horiz-adv-x="355" d="M272 300 Q305 300 305 267 L305 233 Q305 200 272 200 L83 200 Q50 200 50 233 L50 267 Q50 300 83 300 L272 300 Z " />
<glyph glyph-name="period" unicode="&#x2e;" horiz-adv-x="200" d="M133 100 Q150 100 150 83 L150 17 Q150 0 133 0 L67 0 Q50 0 50 17 L50 83 Q50 100 67 100 L133 100 Z " />
<glyph glyph-name="slash" unicode="&#x2f;" horiz-adv-x="397" d="M360 600 Q379 600 386 589.5 Q393 579 386 562 L114 -76 Q102 -101 76 -101 L37 -101 Q18 -101 11 -90.5 Q4 -80 11 -63 L282 575 Q294 600 321 600 L360 600 Z " />
<glyph glyph-name="zero" unicode="0" horiz-adv-x="410" d="M45 350 Q45 383 57.5 412 Q70 441 92 463 Q114 485 143 497.5 Q172 510 205 510 Q238 510 267 497.5 Q296 485 318 463 Q340 441 352.5 412 Q365 383 365 350 L365 150 Q365 117 352.5 88 Q340 59 318 37 Q296 15 267 2.5 Q238 -10 205 -10 Q172 -10 143 2.5 Q114 15 92 37 Q70 59 57.5 88 Q45 117 45 150 L45 350 Z M265 350 Q265 375 247.5 392.5 Q230 410 205 410 Q180 410 162.5 392.5 Q145 375 145 350 L145 150 Q145 125 162.5 107.5 Q180 90 205 90 Q230 90 247.5 107.5 Q265 125 265 150 L265 350 Z " />
<glyph glyph-name="one" unicode="1" horiz-adv-x="261" d="M178 500 Q211 500 211 467 L211 33 Q211 0 178 0 L144 0 Q111 0 111 33 L111 394 L76 359 Q60 343 47.5 348 Q35 353 35 375 L35 400 Q35 424 52 441 L94 483 Q111 500 135 500 L178 500 Z " />
<glyph glyph-name="two" unicode="2" horiz-adv-x="396" d="M73 325 Q40 325 40 348 Q40 383 52.5 412.5 Q65 442 87 463.5 Q109 485 138 497.5 Q167 510 200 510 Q233 510 262.5 497.5 Q292 485 313.5 464 Q335 443 347.5 414.5 Q360 386 360 353 Q360 326 352.5 300 Q345 274 326 255 L176 100 L328 100 Q361 100 361 67 L361 33 Q361 0 328 0 L73 0 Q40 0 40 33 L40 76 Q40 100 56 117 L245 314 Q260 329 260 353 Q260 378 242.5 395 Q225 412 200 412 Q175 412 157.5 394.5 Q140 377 140 348 L140 358 Q140 325 107 325 L73 325 Z " />
<glyph glyph-name="three" unicode="3" horiz-adv-x="410" d="M83 325 Q50 325 50 353 Q50 386 62 415 Q74 444 94.5 465 Q115 486 143.5 498 Q172 510 205 510 Q238 510 266.5 498 Q295 486 316 465 Q337 444 348.5 416 Q360 388 360 357 Q360 328 349.5 304 Q339 280 324 260 Q348 234 361.5 209.5 Q375 185 375 147 Q375 114 361.5 85.5 Q348 57 325 36 Q302 15 271 2.5 Q240 -10 205 -10 Q176 -10 149 -1 Q122 8 99.5 24.5 Q77 41 61 64.5 Q45 88 39 117 Q35 134 44 143 Q53 152 70 152 L115 152 Q130 152 137.5 144.5 Q145 137 151 123 Q167 88 205 88 Q230 88 247.5 105 Q265 122 265 147 Q265 170 249.5 188 Q234 206 211 206 L222 206 Q189 206 189 239 L189 266 Q189 299 209 299 Q224 299 234.5 305 Q245 311 252 320 Q259 329 262 339 Q265 349 265 357 Q265 382 247.5 399.5 Q230 417 205 417 Q180 417 162.5 400.5 Q145 384 145 353 L145 358 Q145 325 112 325 L83 325 Z " />
<glyph glyph-name="four" unicode="4" horiz-adv-x="410" d="M224 500 Q243 500 250 489.5 Q257 479 250 462 L139 200 L240 200 L240 293 Q240 326 273 326 L307 326 Q340 326 340 293 L340 200 L357 200 Q390 200 390 167 L390 133 Q390 100 370 100 L340 100 L340 33 Q340 0 307 0 L273 0 Q240 0 240 33 L240 100 L63 100 Q30 100 30 133 L30 179 Q30 200 38 219 L146 475 Q158 500 185 500 L224 500 Z " />
<glyph glyph-name="five" unicode="5" horiz-adv-x="410" d="M327 500 Q360 500 360 467 L360 433 Q360 400 327 400 L155 400 L155 323 Q169 329 181.5 332 Q194 335 210 335 Q243 335 273 322.5 Q303 310 325.5 288 Q348 266 361.5 237 Q375 208 375 175 L375 150 Q375 117 361.5 88 Q348 59 325.5 37 Q303 15 273 2.5 Q243 -10 210 -10 Q182 -10 155.5 -0.5 Q129 9 107.5 26 Q86 43 70.5 65.5 Q55 88 49 115 Q45 132 54 141 Q63 150 80 150 L117 150 Q131 150 138 143 Q145 136 153 123 Q161 109 177 99.5 Q193 90 210 90 Q235 90 255 107.5 Q275 125 275 150 L275 175 Q275 200 255 217.5 Q235 235 210 235 Q199 235 190 232.5 Q181 230 174 227 Q163 222 154 218.5 Q145 215 132 215 L88 215 Q55 215 55 248 L55 467 Q55 500 88 500 L327 500 Z " />
<glyph glyph-name="six" unicode="6" horiz-adv-x="400" d="M227 500 Q246 500 253 489 Q260 478 252 461 L198 335 Q231 334 261 321.5 Q291 309 314 287 Q337 265 351 236.5 Q365 208 365 175 L365 150 Q365 117 351.5 88 Q338 59 315.5 37 Q293 15 263 2.5 Q233 -10 200 -10 Q167 -10 137 2.5 Q107 15 84.5 37 Q62 59 48.5 88 Q35 117 35 150 L35 175 Q35 191 46.5 225 Q58 259 75 301 Q92 343 111.5 388.5 Q131 434 148 474 Q160 500 187 500 L227 500 Z M265 175 Q265 200 245 217.5 Q225 235 200 235 Q175 235 155 217.5 Q135 200 135 175 L135 150 Q135 125 155 107.5 Q175 90 200 90 Q225 90 245 107.5 Q265 125 265 150 L265 175 Z " />
<glyph glyph-name="seven" unicode="7" horiz-adv-x="368" d="M310 500 Q343 500 343 467 L343 421 Q343 400 335 381 L185 25 Q173 0 146 0 L106 0 Q87 0 80 10.5 Q73 21 80 38 L234 400 L125 400 L125 358 Q125 325 92 325 L58 325 Q25 325 25 358 L25 467 Q25 500 58 500 L310 500 Z " />
<glyph glyph-name="eight" unicode="8" horiz-adv-x="410" d="M205 510 Q237 510 265.5 498 Q294 486 315 465.5 Q336 445 348 417.5 Q360 390 360 358 Q360 329 350 304.5 Q340 280 323 260 Q347 238 361 209 Q375 180 375 147 Q375 114 361.5 85.5 Q348 57 325 36 Q302 15 271 2.5 Q240 -10 205 -10 Q170 -10 139 2.5 Q108 15 85 36 Q62 57 48.5 85.5 Q35 114 35 147 Q35 180 49 209 Q63 238 87 260 Q70 280 60 304.5 Q50 329 50 358 Q50 390 62 417.5 Q74 445 95 465.5 Q116 486 144.5 498 Q173 510 205 510 Z M205 417 Q180 417 162.5 399.5 Q145 382 145 358 Q145 333 162.5 316 Q180 299 205 299 Q230 299 247.5 316 Q265 333 265 358 Q265 382 247.5 399.5 Q230 417 205 417 Z M205 206 Q180 206 162.5 188.5 Q145 171 145 147 Q145 122 162.5 105 Q180 88 205 88 Q230 88 247.5 105 Q265 122 265 147 Q265 171 247.5 188.5 Q230 206 205 206 Z " />
<glyph glyph-name="nine" unicode="9" horiz-adv-x="400" d="M35 350 Q35 383 48.5 412 Q62 441 84.5 463 Q107 485 137 497.5 Q167 510 200 510 Q233 510 263 497.5 Q293 485 315.5 463 Q338 441 351.5 412 Q365 383 365 350 L365 325 Q365 310 355 280 Q345 250 330 212 Q315 174 297 131.5 Q279 89 262 50 Q241 0 213 0 L173 0 Q154 0 147 11 Q140 22 148 39 L202 165 Q169 166 139 178.5 Q109 191 86 213 Q63 235 49 263.5 Q35 292 35 325 L35 350 Z M265 350 Q265 375 245 392.5 Q225 410 200 410 Q175 410 155 392.5 Q135 375 135 350 L135 325 Q135 300 155 282.5 Q175 265 200 265 Q225 265 245 282.5 Q265 300 265 325 L265 350 Z " />
<glyph glyph-name="colon" unicode="&#x3a;" horiz-adv-x="200" d="M133 300 Q150 300 150 283 L150 217 Q150 200 133 200 L67 200 Q50 200 50 217 L50 283 Q50 300 67 300 L133 300 Z M133 100 Q150 100 150 83 L150 17 Q150 0 133 0 L67 0 Q50 0 50 17 L50 83 Q50 100 67 100 L133 100 Z " />
<glyph glyph-name="semicolon" unicode="&#x3b;" horiz-adv-x="200" d="M133 300 Q150 300 150 283 L150 217 Q150 200 133 200 L67 200 Q50 200 50 217 L50 283 Q50 300 67 300 L133 300 Z M133 100 Q150 100 150 83 L150 13 Q150 1 140 -8 L71 -60 Q62 -66 56 -63 Q50 -60 50 -49 L50 83 Q50 100 67 100 L133 100 Z " />
<glyph glyph-name="less" unicode="&#x3c;" horiz-adv-x="516" d="M254 400 Q277 400 282 387.5 Q287 375 271 359 L211 300 L448 300 Q481 300 481 267 L481 233 Q481 200 448 200 L211 200 L270 141 Q286 125 281 112.5 Q276 100 254 100 L195 100 Q171 100 154 117 L43 227 Q20 250 43 273 L153 383 Q170 400 194 400 L254 400 Z " />
<glyph glyph-name="equal" unicode="&#x3d;" horiz-adv-x="375" d="M292 375 Q325 375 325 342 L325 308 Q325 275 292 275 L83 275 Q50 275 50 308 L50 342 Q50 375 83 375 L292 375 Z M292 225 Q325 225 325 192 L325 158 Q325 125 292 125 L83 125 Q50 125 50 158 L50 192 Q50 225 83 225 L292 225 Z " />
<glyph glyph-name="greater" unicode="&#x3e;" horiz-adv-x="516" d="M321 400 Q345 400 362 383 L473 273 Q496 250 473 227 L362 117 Q345 100 321 100 L262 100 Q240 100 234.5 112.5 Q229 125 245 141 L304 200 L68 200 Q35 200 35 233 L35 267 Q35 300 68 300 L304 300 L245 359 Q229 375 234 387.5 Q239 400 261 400 L321 400 Z " />
<glyph glyph-name="question" unicode="&#x3f;" horiz-adv-x="391" d="M68 326 Q35 326 35 348 Q35 383 47.5 412.5 Q60 442 81.5 463.5 Q103 485 132 497.5 Q161 510 194 510 Q227 510 256.5 497.5 Q286 485 308 464 Q330 443 343 414.5 Q356 386 356 353 Q356 326 347.5 300 Q339 274 320 255 L257 190 L257 174 Q257 141 224 141 L190 141 Q157 141 157 174 L157 202 Q157 226 173 243 L239 314 Q246 322 250.5 332 Q255 342 255 353 Q255 378 237 395 Q219 412 194 412 Q169 412 152 394.5 Q135 377 135 348 L135 359 Q135 326 102 326 L68 326 Z M224 100 Q257 100 257 67 L257 33 Q257 0 224 0 L190 0 Q157 0 157 33 L157 67 Q157 100 190 100 L224 100 Z " />
<glyph glyph-name="at" unicode="&#x40;" horiz-adv-x="664" d="M553 120 Q568 120 570 107.5 Q572 95 557 79 Q475 -8 349 -8 Q285 -8 228 15 Q171 38 128.5 79 Q86 120 61.5 176 Q37 232 37 299 Q37 365 61.5 421.5 Q86 478 128 519.5 Q170 561 226 584.5 Q282 608 345 608 Q399 608 449.5 590.5 Q500 573 539 540 Q578 507 602 460.5 Q626 414 626 357 Q626 288 601 242.5 Q576 197 542.5 169.5 Q509 142 474.5 130.5 Q440 119 421 119 Q404 119 391 129.5 Q378 140 377 161 L375 162 Q360 145 338.5 132 Q317 119 295 119 Q269 119 245 130.5 Q221 142 203 162 Q185 182 174.5 208.5 Q164 235 164 264 Q164 302 175.5 337 Q187 372 209 399.5 Q231 427 261.5 443.5 Q292 460 330 460 Q360 460 385 447.5 Q410 435 427 408 L430 421 Q437 450 467 450 L474 450 Q509 450 503 414 L469 247 Q467 241 465.5 233 Q464 225 464 217 Q464 209 466 204 Q468 199 476 199 Q490 199 504.5 207.5 Q519 216 530.5 233 Q542 250 549.5 275.5 Q557 301 557 334 Q557 384 541 422 Q525 460 496.5 485.5 Q468 511 428.5 524.5 Q389 538 343 538 Q292 538 251 520 Q210 502 180.5 470 Q151 438 135.5 394 Q120 350 120 299 Q120 245 137.5 201 Q155 157 186.5 126 Q218 95 261 78 Q304 61 356 61 Q396 61 432 73.5 Q468 86 497 106 Q507 113 516.5 116.5 Q526 120 538 120 L553 120 Z M340 374 Q303 374 278.5 345.5 Q254 317 254 276 Q254 247 270.5 227 Q287 207 316 207 Q336 207 352 215.5 Q368 224 379.5 238 Q391 252 397.5 269.5 Q404 287 404 306 Q404 336 386.5 355 Q369 374 340 374 Z " />
<glyph glyph-name="A" unicode="A" horiz-adv-x="507" d="M297 600 Q327 600 334 572 L485 37 Q490 20 482.5 10 Q475 0 457 0 L412 0 Q383 0 376 28 L349 129 L160 129 L133 28 Q124 0 96 0 L50 0 Q32 0 24.5 10 Q17 20 22 37 L175 572 Q182 600 212 600 L297 600 Z M185 224 L325 224 L257 485 L256 485 L185 224 Z " />
<glyph glyph-name="B" unicode="B" horiz-adv-x="554" d="M287 599 Q377 599 432 566 Q487 533 491 452 Q493 405 471 370.5 Q449 336 399 316 Q428 304 448 291 Q468 278 480.5 259.5 Q493 241 498.5 216.5 Q504 192 504 158 Q504 88 452 44 Q400 0 286 0 L98 0 Q65 0 65 33 L65 566 Q65 599 98 599 L287 599 Z M179 360 L294 360 Q336 360 356 381 Q376 402 376 433 Q376 465 356 485.5 Q336 506 294 506 L179 506 L179 360 Z M179 93 L294 93 Q344 93 366.5 115 Q389 137 389 180 Q389 223 366.5 245 Q344 267 294 267 L179 267 L179 93 Z " />
<glyph glyph-name="C" unicode="C" horiz-adv-x="507" d="M455 158 Q471 153 477 142.5 Q483 132 475 116 Q445 54 392 23 Q339 -8 266 -8 Q151 -8 88 72 Q25 152 25 300 Q25 448 88 528 Q151 608 266 608 Q416 608 464 483 Q470 467 464 456.5 Q458 446 442 442 L401 432 Q386 428 376.5 433.5 Q367 439 359 453 Q344 479 320.5 495 Q297 511 262 511 Q205 511 172.5 458.5 Q140 406 139 300 Q139 194 169.5 141 Q200 88 266 88 Q299 88 323 100.5 Q347 113 369 150 Q384 177 412 169 L455 158 Z " />
<glyph glyph-name="D" unicode="D" horiz-adv-x="554" d="M263 599 Q323 599 372.5 582 Q422 565 457.5 528.5 Q493 492 512.5 435.5 Q532 379 532 300 Q532 221 512.5 164 Q493 107 457.5 70.5 Q422 34 372.5 17 Q323 0 263 0 L98 0 Q65 0 65 33 L65 566 Q65 599 98 599 L263 599 Z M179 96 L256 96 Q305 96 336.5 113 Q368 130 386 158 Q404 186 410.5 223 Q417 260 417 300 Q417 340 410.5 377 Q404 414 386 442 Q368 470 336.5 486.5 Q305 503 256 503 L179 503 L179 96 Z " />
<glyph glyph-name="E" unicode="E" horiz-adv-x="507" d="M433 599 Q466 599 466 566 L466 536 Q466 503 433 503 L184 503 L184 360 L356 360 Q389 360 389 327 L389 297 Q389 264 356 264 L184 264 L184 96 L443 96 Q476 96 476 63 L476 33 Q476 0 443 0 L103 0 Q70 0 70 33 L70 566 Q70 599 103 599 L433 599 Z " />
<glyph glyph-name="F" unicode="F" horiz-adv-x="461" d="M414 599 Q447 599 447 566 L447 536 Q447 503 414 503 L179 503 L179 360 L346 360 Q379 360 379 327 L379 297 Q379 264 346 264 L179 264 L179 33 Q179 0 146 0 L98 0 Q65 0 65 33 L65 566 Q65 599 98 599 L414 599 Z " />
<glyph glyph-name="G" unicode="G" horiz-adv-x="554" d="M419 61 Q383 21 347 6.5 Q311 -8 263 -8 Q202 -8 157 15 Q112 38 83 78 Q54 118 39.5 172.5 Q25 227 25 291 Q25 348 37 404.5 Q49 461 78 506.5 Q107 552 155 580 Q203 608 275 608 Q353 608 403 575 Q453 542 479 488 Q487 472 481 461.5 Q475 451 458 446 L415 435 Q400 430 390 435 Q380 440 372 453 Q353 484 328 497.5 Q303 511 266 511 Q202 511 170.5 452.5 Q139 394 139 294 Q139 199 172.5 143.5 Q206 88 266 88 Q323 88 356.5 121.5 Q390 155 392 207 L311 207 Q278 207 278 240 L278 270 Q278 303 311 303 L469 303 Q502 303 502 270 L502 33 Q502 0 469 0 L452 0 Q419 0 419 33 L419 61 Z " />
<glyph glyph-name="H" unicode="H" horiz-adv-x="599" d="M497 599 Q530 599 530 566 L530 33 Q530 0 497 0 L448 0 Q415 0 415 33 L415 257 L184 257 L184 33 Q184 0 151 0 L103 0 Q70 0 70 33 L70 566 Q70 599 103 599 L151 599 Q184 599 184 566 L184 360 L415 360 L415 566 Q415 599 448 599 L497 599 Z " />
<glyph glyph-name="I" unicode="I" horiz-adv-x="276" d="M162 599 Q195 599 195 566 L195 33 Q195 0 162 0 L114 0 Q81 0 81 33 L81 566 Q81 599 114 599 L162 599 Z " />
<glyph glyph-name="J" unicode="J" horiz-adv-x="369" d="M266 599 Q299 599 299 566 L299 162 Q299 77 258 34.5 Q217 -8 137 -8 Q99 -8 69 6 Q39 20 16 46 Q-6 71 23 92 L49 111 Q62 121 72.5 118.5 Q83 116 95 104 Q104 95 114 91.5 Q124 88 137 88 Q157 88 170.5 103.5 Q184 119 184 159 L184 566 Q184 599 217 599 L266 599 Z " />
<glyph glyph-name="K" unicode="K" horiz-adv-x="554" d="M518 39 Q527 22 520.5 11 Q514 0 495 0 L439 0 Q411 0 400 24 L263 285 L179 180 L179 33 Q179 0 146 0 L98 0 Q65 0 65 33 L65 566 Q65 599 98 599 L146 599 Q179 599 179 566 L179 332 L364 579 Q380 599 404 599 L461 599 Q481 599 487 587.5 Q493 576 481 559 L341 374 L518 39 Z " />
<glyph glyph-name="L" unicode="L" horiz-adv-x="461" d="M146 599 Q179 599 179 566 L179 96 L407 96 Q440 96 440 63 L440 33 Q440 0 407 0 L98 0 Q65 0 65 33 L65 566 Q65 599 98 599 L146 599 Z " />
<glyph glyph-name="M" unicode="M" horiz-adv-x="691" d="M591 599 Q624 599 624 566 L624 33 Q624 0 591 0 L558 0 Q525 0 525 33 L525 471 L523 471 L396 28 Q389 0 359 0 L330 0 Q300 0 293 28 L168 471 L167 471 L167 33 Q167 0 134 0 L100 0 Q67 0 67 33 L67 566 Q67 599 100 599 L199 599 Q229 599 236 571 L344 181 L345 181 L453 571 Q460 599 490 599 L591 599 Z " />
<glyph glyph-name="N" unicode="N" horiz-adv-x="599" d="M499 599 Q532 599 532 566 L532 33 Q532 0 499 0 L448 0 Q422 0 409 23 L177 427 L175 427 L175 33 Q175 0 142 0 L100 0 Q67 0 67 33 L67 566 Q67 599 100 599 L161 599 Q187 599 200 576 L422 191 L424 191 L424 566 Q424 599 457 599 L499 599 Z " />
<glyph glyph-name="O" unicode="O" horiz-adv-x="554" d="M276 608 Q400 608 464 528 Q528 448 528 300 Q528 152 464 72 Q400 -8 276 -8 Q153 -8 89 72 Q25 152 25 300 Q25 448 89 528 Q153 608 276 608 Z M276 511 Q206 511 173 458.5 Q140 406 139 300 Q139 194 172 141 Q205 88 276 88 Q347 88 380 141 Q413 194 413 300 Q413 406 380 458.5 Q347 511 276 511 Z " />
<glyph glyph-name="P" unicode="P" horiz-adv-x="507" d="M276 599 Q373 599 430 556.5 Q487 514 487 421 Q487 327 430 284.5 Q373 242 276 242 L171 242 L171 33 Q171 0 138 0 L89 0 Q56 0 56 33 L56 566 Q56 599 89 599 L276 599 Z M171 335 L262 335 Q327 335 350 358 Q373 381 373 421 Q373 461 350 483.5 Q327 506 262 506 L171 506 L171 335 Z " />
<glyph glyph-name="Q" unicode="Q" horiz-adv-x="554" d="M544 -11 Q544 -28 535.5 -37 Q527 -46 510 -44 Q492 -42 478.5 -38 Q465 -34 453.5 -26 Q442 -18 430.5 -6.5 Q419 5 403 22 Q352 -8 276 -8 Q153 -8 89 72 Q25 152 25 300 Q25 448 89 528 Q153 608 276 608 Q400 608 464 528 Q528 448 528 300 Q528 160 468 79 Q487 63 514 55 Q528 51 536 43.5 Q544 36 544 20 L544 -11 Z M276 225 Q276 242 285.5 251 Q295 260 312 255 Q341 246 361.5 229 Q382 212 399 186 Q407 209 410 237 Q413 265 413 300 Q413 406 380 458.5 Q347 511 276 511 Q206 511 173 458.5 Q140 406 139 300 Q139 194 172 141 Q205 88 276 88 Q319 88 348 108 Q338 122 327.5 132.5 Q317 143 303 151 Q290 158 283 166 Q276 174 276 189 L276 225 Z " />
<glyph glyph-name="R" unicode="R" horiz-adv-x="554" d="M304 599 Q355 599 391 585 Q427 571 450.5 547 Q474 523 485 491 Q496 459 496 422 Q496 366 468.5 324.5 Q441 283 386 267 L499 39 Q507 22 500.5 11 Q494 0 474 0 L418 0 Q390 0 380 25 L278 244 L179 244 L179 33 Q179 0 146 0 L98 0 Q65 0 65 33 L65 566 Q65 599 98 599 L304 599 Z M179 337 L264 337 Q332 337 356.5 358 Q381 379 381 422 Q381 506 284 506 L179 506 L179 337 Z " />
<glyph glyph-name="S" unicode="S" horiz-adv-x="507" d="M96 163 Q123 174 140 147 Q160 117 186.5 99 Q213 81 255 81 Q298 81 327 99 Q356 117 356 161 Q356 191 333 210 Q310 229 276 245 Q242 261 201.5 276 Q161 291 127 312 Q93 333 70 363.5 Q47 394 47 440 Q47 480 62.5 511.5 Q78 543 105 564.5 Q132 586 167 597 Q202 608 241 608 Q304 608 355 581.5 Q406 555 436 504 Q445 489 439.5 477.5 Q434 466 418 461 L377 449 Q351 441 334 467 Q319 490 296 504 Q273 518 241 518 Q203 518 179 502.5 Q155 487 155 452 Q155 426 178 409 Q201 392 235 377.5 Q269 363 309.5 348 Q350 333 384 311 Q418 289 441 256.5 Q464 224 464 176 Q464 83 409 37.5 Q354 -8 254 -8 Q189 -8 132.5 21.5 Q76 51 45 104 Q37 118 41.5 129.5 Q46 141 61 148 L96 163 Z " />
<glyph glyph-name="T" unicode="T" horiz-adv-x="461" d="M412 600 Q445 600 445 567 L445 537 Q445 504 412 504 L288 504 L288 33 Q288 0 255 0 L206 0 Q173 0 173 33 L173 504 L50 504 Q17 504 17 537 L17 567 Q17 600 50 600 L412 600 Z " />
<glyph glyph-name="U" unicode="U" horiz-adv-x="599" d="M497 599 Q530 599 530 566 L530 224 Q530 158 511 113.5 Q492 69 460.5 42 Q429 15 387.5 3.5 Q346 -8 300 -8 Q254 -8 212.5 3.5 Q171 15 139.5 42 Q108 69 89 113.5 Q70 158 70 224 L70 566 Q70 599 103 599 L151 599 Q184 599 184 566 L184 219 Q184 146 212.5 117 Q241 88 300 88 Q358 88 386.5 117 Q415 146 415 219 L415 566 Q415 599 448 599 L497 599 Z " />
<glyph glyph-name="V" unicode="V" horiz-adv-x="461" d="M415 599 Q432 599 440 589 Q448 579 443 562 L302 28 Q295 0 266 0 L196 0 Q167 0 160 28 L18 562 Q13 579 21 589 Q29 599 46 599 L91 599 Q121 599 128 570 L227 158 L229 158 L333 571 Q340 599 369 599 L415 599 Z " />
<glyph glyph-name="W" unicode="W" horiz-adv-x="691" d="M637 599 Q654 599 662 589.5 Q670 580 666 563 L555 29 Q549 0 519 0 L463 0 Q433 0 427 29 L346 427 L344 427 L264 29 Q258 0 228 0 L172 0 Q142 0 136 29 L25 563 Q21 580 29 589.5 Q37 599 54 599 L94 599 Q124 599 130 569 L199 195 L201 195 L280 570 Q286 599 316 599 L374 599 Q404 599 410 569 L483 195 L485 195 L561 570 Q567 599 597 599 L637 599 Z " />
<glyph glyph-name="X" unicode="X" horiz-adv-x="461" d="M401 599 Q421 599 427.5 588 Q434 577 425 560 L293 307 L434 39 Q443 22 437 11 Q431 0 411 0 L357 0 Q330 0 318 24 L231 203 L143 24 Q132 0 104 0 L51 0 Q31 0 25 11 Q19 22 28 39 L168 307 L37 560 Q28 577 34.5 588 Q41 599 61 599 L114 599 Q141 599 153 575 L231 414 L308 575 Q320 599 347 599 L401 599 Z " />
<glyph glyph-name="Y" unicode="Y" horiz-adv-x="461" d="M410 599 Q430 599 436.5 588 Q443 577 435 560 L288 239 L288 33 Q288 0 255 0 L206 0 Q173 0 173 33 L173 239 L26 560 Q18 577 24.5 588 Q31 599 51 599 L101 599 Q127 599 139 574 L231 362 L323 574 Q335 599 361 599 L410 599 Z " />
<glyph glyph-name="Z" unicode="Z" horiz-adv-x="461" d="M404 599 Q437 599 437 566 L437 531 Q437 518 434 509 Q431 500 424 490 L148 96 L407 96 Q440 96 440 63 L440 33 Q440 0 407 0 L46 0 Q13 0 13 33 L13 75 Q13 87 16 96 Q19 105 26 116 L293 503 L65 503 Q32 503 32 536 L32 566 Q32 599 65 599 L404 599 Z " />
<glyph glyph-name="bracketleft" unicode="&#x5b;" horiz-adv-x="260" d="M192 650 Q225 650 225 617 L225 583 Q225 550 192 550 L150 550 L150 -50 L192 -50 Q225 -50 225 -83 L225 -117 Q225 -150 192 -150 L83 -150 Q50 -150 50 -117 L50 617 Q50 650 83 650 L192 650 Z " />
<glyph glyph-name="backslash" unicode="&#x5c;" horiz-adv-x="397" d="M77 600 Q103 600 115 575 L386 -63 Q393 -80 386 -90.5 Q379 -101 360 -101 L321 -101 Q295 -101 283 -76 L11 562 Q4 579 11 589.5 Q18 600 37 600 L77 600 Z " />
<glyph glyph-name="bracketright" unicode="&#x5d;" horiz-adv-x="260" d="M177 650 Q210 650 210 617 L210 -117 Q210 -150 177 -150 L68 -150 Q35 -150 35 -117 L35 -83 Q35 -50 68 -50 L110 -50 L110 550 L68 550 Q35 550 35 583 L35 617 Q35 650 68 650 L177 650 Z " />
<glyph glyph-name="asciicircum" unicode="&#x5e;" horiz-adv-x="498" d="M264 599 Q291 599 303 575 L421 327 Q429 310 422.5 299 Q416 288 397 288 L376 288 Q348 288 338 313 L249 506 L160 313 Q150 288 122 288 L101 288 Q82 288 75.5 299 Q69 310 77 327 L196 575 Q208 599 235 599 L264 599 Z " />
<glyph glyph-name="underscore" unicode="&#x5f;" horiz-adv-x="415" d="M398 -62 Q415 -62 415 -79 L415 -87 Q415 -104 398 -104 L17 -104 Q0 -104 0 -87 L0 -79 Q0 -62 17 -62 L398 -62 Z " />
<glyph glyph-name="grave" unicode="&#x60;" horiz-adv-x="231" d="M37 608 Q50 608 57 597 L115 507 Q120 498 117 492 Q114 486 104 486 L55 486 Q43 486 34 495 L-57 587 Q-65 595 -62.5 601.5 Q-60 608 -49 608 L37 608 Z " />
<glyph glyph-name="a" unicode="a" horiz-adv-x="415" d="M64 341 Q51 351 49 363 Q47 375 59 387 Q85 411 123 426 Q161 441 199 440 Q243 439 274 430 Q305 421 325.5 400.5 Q346 380 355.5 347 Q365 314 365 266 L365 33 Q365 0 332 0 L299 0 Q266 0 266 33 L266 37 Q235 16 204 4 Q173 -8 132 -8 Q103 -8 81 1.5 Q59 11 44.5 27 Q30 43 22.5 63.5 Q15 84 15 106 Q15 180 75.5 220.5 Q136 261 262 276 L262 312 Q262 337 244.5 350.5 Q227 364 199 364 Q174 364 156.5 355.5 Q139 347 125 334 Q103 312 79 329 L64 341 Z M262 207 Q236 202 210.5 196 Q185 190 164.5 180.5 Q144 171 131 156.5 Q118 142 118 119 Q118 94 132 81 Q146 68 168 68 Q192 68 219 84 Q246 100 262 114 L262 207 Z " />
<glyph glyph-name="b" unicode="b" horiz-adv-x="461" d="M123 599 Q156 599 156 566 L156 392 L158 392 Q173 412 204.5 426 Q236 440 262 440 Q304 440 336.5 422 Q369 404 390.5 374 Q412 344 423.5 305.5 Q435 267 435 227 Q435 177 424 134 Q413 91 391.5 59.5 Q370 28 337.5 10 Q305 -8 262 -8 Q227 -8 200 6 Q173 20 145 46 L141 29 Q134 0 104 0 L86 0 Q53 0 53 33 L53 566 Q53 599 86 599 L123 599 Z M156 138 Q156 112 175 97 Q186 88 199.5 81.5 Q213 75 236 75 Q282 75 307 111 Q332 147 332 216 Q332 285 307 321 Q282 357 236 357 Q218 357 203 351 Q188 345 175 335 Q156 321 156 295 L156 138 Z " />
<glyph glyph-name="c" unicode="c" horiz-adv-x="415" d="M351 116 Q365 108 368.5 96.5 Q372 85 363 71 Q334 28 296.5 9.5 Q259 -9 208 -8 Q119 -8 69.5 52.5 Q20 113 20 216 Q20 319 69.5 379.5 Q119 440 208 440 Q260 440 300.5 418 Q341 396 364 356 Q372 342 367 330.5 Q362 319 347 313 L321 303 Q295 292 278 319 Q267 336 251 346.5 Q235 357 208 357 Q164 357 143.5 322.5 Q123 288 123 216 Q123 144 144 109.5 Q165 75 211 75 Q237 75 254 86.5 Q271 98 285 116 Q303 143 330 128 L351 116 Z " />
<glyph glyph-name="d" unicode="d" horiz-adv-x="461" d="M375 599 Q408 599 408 566 L408 33 Q408 0 375 0 L352 0 Q321 0 318 31 L316 46 Q289 20 261.5 6 Q234 -8 199 -8 Q156 -8 124 10 Q92 28 70.5 59.5 Q49 91 38 134 Q27 177 27 227 Q27 267 38.5 305.5 Q50 344 71.5 374 Q93 404 125 422 Q157 440 199 440 Q225 440 256.5 426 Q288 412 304 392 L305 392 L305 566 Q305 599 338 599 L375 599 Z M305 296 Q305 321 286 336 Q274 345 259 351 Q244 357 226 357 Q179 357 154 321 Q129 285 129 216 Q129 147 154 111 Q179 75 226 75 Q249 75 262.5 81.5 Q276 88 287 97 Q305 112 305 137 L305 296 Z " />
<glyph glyph-name="e" unicode="e" horiz-adv-x="415" d="M354 98 Q368 90 370.5 77.5 Q373 65 362 52 Q333 20 294 6 Q255 -8 203 -8 Q118 -8 69 52.5 Q20 113 20 216 Q20 319 69.5 379 Q119 439 208 440 Q250 440 282.5 423.5 Q315 407 337.5 379.5 Q360 352 371.5 316.5 Q383 281 383 242 L383 232 Q383 199 350 199 L123 199 Q125 132 150.5 103.5 Q176 75 212 75 Q239 75 256.5 82.5 Q274 90 288 104 Q299 115 310 116.5 Q321 118 335 110 L354 98 Z M289 269 Q287 314 265.5 339 Q244 364 206 364 Q168 364 146.5 339 Q125 314 123 269 L289 269 Z " />
<glyph glyph-name="f" unicode="f" horiz-adv-x="276" d="M226 608 Q259 608 259 575 L259 558 Q259 525 231 525 Q199 525 186 514 Q173 503 173 478 L173 432 L227 432 Q260 432 260 399 L260 382 Q260 349 227 349 L173 349 L173 33 Q173 0 140 0 L103 0 Q70 0 70 33 L70 349 L43 349 Q10 349 10 382 L10 399 Q10 432 43 432 L69 432 L69 485 Q69 555 98 581.5 Q127 608 191 608 L226 608 Z " />
<glyph glyph-name="g" unicode="g" horiz-adv-x="415" d="M88 27 Q81 32 70 36.5 Q59 41 48.5 48.5 Q38 56 31 67.5 Q24 79 24 96 Q24 112 32 125.5 Q40 139 50.5 149 Q61 159 72.5 166 Q84 173 91 175 Q65 197 46 223.5 Q27 250 27 290 Q27 318 38 345 Q49 372 70.5 393 Q92 414 124 427 Q156 440 198 440 Q225 440 254.5 429.5 Q284 419 304 402 Q328 432 371 438 Q388 441 396.5 432 Q405 423 405 406 L405 403 Q405 372 372 369 Q362 368 353.5 366.5 Q345 365 339 360 Q349 346 355.5 327.5 Q362 309 362 284 Q362 223 321 183.5 Q280 144 199 144 Q165 144 142 140.5 Q119 137 119 118 Q119 101 140 95 Q161 89 192.5 87 Q224 85 261 82.5 Q298 80 329.5 69.5 Q361 59 382 36 Q403 13 403 -30 Q403 -53 391 -76 Q379 -99 354.5 -117 Q330 -135 292 -146.5 Q254 -158 203 -158 Q115 -158 62.5 -132 Q10 -106 10 -55 Q10 -15 35 5 Q60 25 88 25 L88 27 Z M197 364 Q164 364 143 343 Q122 322 122 292 Q122 262 143 241.5 Q164 221 197 221 Q226 221 246.5 241.5 Q267 262 267 292 Q267 322 246.5 343 Q226 364 197 364 Z M178 8 Q157 8 142.5 3 Q128 -2 120 -9.5 Q112 -17 108.5 -26 Q105 -35 105 -42 Q105 -67 129.5 -78.5 Q154 -90 219 -90 Q244 -90 261 -84.5 Q278 -79 288.5 -71.5 Q299 -64 303.5 -55.5 Q308 -47 308 -42 Q308 -35 301.5 -26 Q295 -17 280 -9.5 Q265 -2 240 3 Q215 8 178 8 Z " />
<glyph glyph-name="h" unicode="h" horiz-adv-x="461" d="M123 599 Q156 599 156 566 L156 385 Q180 405 211.5 422.5 Q243 440 281 440 Q346 440 377 400.5 Q408 361 408 295 L408 33 Q408 0 375 0 L338 0 Q305 0 305 33 L305 281 Q305 325 291.5 341 Q278 357 252 357 Q227 357 207 348 Q187 339 173 327 Q163 319 159.5 309.5 Q156 300 156 287 L156 33 Q156 0 123 0 L86 0 Q53 0 53 33 L53 566 Q53 599 86 599 L123 599 Z " />
<glyph glyph-name="i" unicode="i" horiz-adv-x="231" d="M134 608 Q167 608 167 575 L167 544 Q167 511 134 511 L97 511 Q64 511 64 544 L64 575 Q64 608 97 608 L134 608 Z M134 432 Q167 432 167 399 L167 33 Q167 0 134 0 L97 0 Q64 0 64 33 L64 399 Q64 432 97 432 L134 432 Z " />
<glyph glyph-name="j" unicode="j" horiz-adv-x="231" d="M145 608 Q178 608 178 575 L178 544 Q178 511 145 511 L108 511 Q75 511 75 544 L75 575 Q75 608 108 608 L145 608 Z M145 432 Q178 432 178 399 L178 -33 Q178 -99 149 -128.5 Q120 -158 56 -158 Q48 -158 41.5 -157.5 Q35 -157 29 -156 Q2 -153 2 -121 L2 -102 Q2 -93 7 -87 Q12 -81 18 -77.5 Q24 -74 29.5 -72 Q35 -70 36 -70 L37 -70 Q55 -70 65 -59 Q75 -48 75 -17 L75 399 Q75 432 108 432 L145 432 Z " />
<glyph glyph-name="k" unicode="k" horiz-adv-x="415" d="M123 599 Q156 599 156 566 L156 265 L159 265 L271 412 Q285 432 311 432 L353 432 Q374 432 380 420.5 Q386 409 372 392 L277 271 L393 39 Q402 22 395.5 11 Q389 0 369 0 L331 0 Q303 0 292 24 L208 193 L156 133 L156 33 Q156 0 123 0 L86 0 Q53 0 53 33 L53 566 Q53 599 86 599 L123 599 Z " />
<glyph glyph-name="l" unicode="l" horiz-adv-x="231" d="M134 599 Q167 599 167 566 L167 33 Q167 0 134 0 L97 0 Q64 0 64 33 L64 566 Q64 599 97 599 L134 599 Z " />
<glyph glyph-name="m" unicode="m" horiz-adv-x="691" d="M147 385 Q176 412 203.5 426 Q231 440 276 440 Q310 440 339.5 424 Q369 408 383 377 Q409 404 443 422 Q477 440 531 440 Q548 440 566.5 434 Q585 428 601 413.5 Q617 399 627 374 Q637 349 637 310 L637 33 Q637 0 604 0 L568 0 Q535 0 535 33 L535 301 Q535 327 523 341.5 Q511 356 483 357 Q468 358 450 348.5 Q432 339 415 326 Q397 311 397 286 L397 33 Q397 0 364 0 L327 0 Q294 0 294 33 L294 301 Q294 327 282.5 341.5 Q271 356 242 357 Q227 358 209 348.5 Q191 339 174 326 Q156 311 156 286 L156 33 Q156 0 123 0 L86 0 Q53 0 53 33 L53 399 Q53 432 86 432 L114 432 Q147 432 147 399 L147 385 Z " />
<glyph glyph-name="n" unicode="n" horiz-adv-x="461" d="M148 385 Q177 405 210 422.5 Q243 440 281 440 Q346 440 377 400.5 Q408 361 408 295 L408 33 Q408 0 375 0 L338 0 Q305 0 305 33 L305 281 Q305 325 291.5 341 Q278 357 252 357 Q227 357 207 348 Q187 339 173 327 Q163 319 159.5 309.5 Q156 300 156 287 L156 33 Q156 0 123 0 L86 0 Q53 0 53 33 L53 399 Q53 432 86 432 L115 432 Q148 432 148 399 L148 385 Z " />
<glyph glyph-name="o" unicode="o" horiz-adv-x="415" d="M208 440 Q296 440 345.5 379.5 Q395 319 395 216 Q395 113 345.5 52.5 Q296 -8 208 -8 Q119 -8 69.5 52.5 Q20 113 20 216 Q20 319 69.5 379.5 Q119 440 208 440 Z M208 357 Q164 357 143.5 322.5 Q123 288 123 216 Q123 144 143.5 109.5 Q164 75 208 75 Q251 75 271.5 109.5 Q292 144 292 216 Q292 288 271.5 322.5 Q251 357 208 357 Z " />
<glyph glyph-name="p" unicode="p" horiz-adv-x="461" d="M152 392 Q175 414 201 427 Q227 440 262 440 Q305 440 337.5 422 Q370 404 391.5 372.5 Q413 341 424 298 Q435 255 435 204 Q435 164 423.5 126 Q412 88 390.5 58 Q369 28 336.5 10 Q304 -8 262 -8 Q236 -8 204.5 5.5 Q173 19 158 40 L156 40 L156 -125 Q156 -158 123 -158 L86 -158 Q53 -158 53 -125 L53 399 Q53 432 86 432 L119 432 Q152 432 152 399 L152 392 Z M156 136 Q156 110 175 96 Q188 87 203 81 Q218 75 236 75 Q282 75 307 111 Q332 147 332 216 Q332 285 307 321 Q282 357 236 357 Q213 357 199.5 350 Q186 343 175 335 Q165 326 160.5 317 Q156 308 156 294 L156 136 Z " />
<glyph glyph-name="q" unicode="q" horiz-adv-x="461" d="M304 40 Q288 19 256.5 5.5 Q225 -8 199 -8 Q157 -8 125 10 Q93 28 71.5 58 Q50 88 38.5 126 Q27 164 27 204 Q27 255 38 298 Q49 341 70.5 372.5 Q92 404 124 422 Q156 440 199 440 Q234 440 261.5 426 Q289 412 316 385 L321 404 Q328 432 357 432 L375 432 Q408 432 408 399 L408 -125 Q408 -158 375 -158 L338 -158 Q305 -158 305 -125 L305 40 L304 40 Z M305 294 Q305 320 286 335 Q275 344 262 350.5 Q249 357 226 357 Q179 357 154 321 Q129 285 129 216 Q129 147 154 111 Q179 75 226 75 Q244 75 259 81 Q274 87 286 96 Q305 110 305 135 L305 294 Z " />
<glyph glyph-name="r" unicode="r" horiz-adv-x="276" d="M143 358 Q158 388 178.5 407.5 Q199 427 229 435 Q246 440 255 431 Q264 422 264 405 L264 365 Q264 332 255 332 L246 332 Q227 332 209 322.5 Q191 313 178 301 Q165 289 157 277.5 Q149 266 149 262 L149 33 Q149 0 116 0 L79 0 Q46 0 46 33 L46 399 Q46 432 79 432 L108 432 Q141 432 141 399 L141 358 L143 358 Z " />
<glyph glyph-name="s" unicode="s" horiz-adv-x="369" d="M61 111 Q86 128 108 106 Q124 89 143.5 78.5 Q163 68 188 68 Q215 68 232 81.5 Q249 95 249 117 Q249 136 233 147 Q217 158 193 167.5 Q169 177 141 187 Q113 197 89 213 Q65 229 49 253 Q33 277 33 315 Q33 345 45 368.5 Q57 392 76.5 407.5 Q96 423 122 431.5 Q148 440 176 440 Q211 440 244 429.5 Q277 419 303 398 Q317 387 316 374.5 Q315 362 302 351 L287 338 Q264 319 240 340 Q228 350 213.5 357 Q199 364 183 364 Q153 364 139 352.5 Q125 341 125 321 Q125 303 141 291.5 Q157 280 181 271 Q205 262 232.5 252.5 Q260 243 284 227 Q308 211 324 185.5 Q340 160 340 121 Q340 88 328 63.5 Q316 39 295 23 Q274 7 245 -0.5 Q216 -8 182 -8 Q94 -8 39 53 Q16 78 45 99 L61 111 Z " />
<glyph glyph-name="t" unicode="t" horiz-adv-x="276" d="M140 574 Q173 574 173 541 L173 432 L224 432 Q257 432 257 399 L257 382 Q257 349 224 349 L173 349 L173 105 Q173 87 181.5 81 Q190 75 210 75 Q222 75 234 78 Q257 83 257 46 L257 29 Q257 -2 226 -5 Q201 -8 176 -8 Q119 -8 94.5 18.5 Q70 45 70 91 L70 349 L43 349 Q10 349 10 382 L10 399 Q10 432 43 432 L70 432 L70 541 Q70 574 103 574 L140 574 Z " />
<glyph glyph-name="u" unicode="u" horiz-adv-x="461" d="M375 432 Q408 432 408 399 L408 33 Q408 0 375 0 L347 0 Q314 0 314 33 L314 46 Q285 26 252 9 Q219 -8 181 -8 Q116 -8 84.5 31 Q53 70 53 136 L53 399 Q53 432 86 432 L123 432 Q156 432 156 399 L156 151 Q156 107 169.5 91 Q183 75 209 75 Q243 75 267.5 90 Q292 105 305 120 L305 399 Q305 432 338 432 L375 432 Z " />
<glyph glyph-name="v" unicode="v" horiz-adv-x="369" d="M321 432 Q339 432 346.5 422 Q354 412 349 395 L245 28 Q238 0 208 0 L158 0 Q128 0 121 28 L18 395 Q13 412 21 422 Q29 432 46 432 L82 432 Q111 432 118 403 L183 139 L184 139 L250 403 Q257 432 286 432 L321 432 Z " />
<glyph glyph-name="w" unicode="w" horiz-adv-x="554" d="M507 432 Q544 432 536 395 L441 28 Q434 0 405 0 L371 0 Q341 0 334 29 L277 269 L276 269 L219 29 Q212 0 182 0 L149 0 Q120 0 113 28 L18 395 Q8 432 46 432 L76 432 Q106 432 112 403 L165 163 L167 163 L222 403 Q229 432 259 432 L295 432 Q325 432 331 403 L384 163 L386 163 L440 403 Q448 432 477 432 L507 432 Z " />
<glyph glyph-name="x" unicode="x" horiz-adv-x="369" d="M309 432 Q329 432 335.5 420.5 Q342 409 332 392 L234 224 L342 40 Q352 23 345.5 11.5 Q339 0 319 0 L282 0 Q256 0 243 23 L183 134 L126 24 Q115 0 87 0 L48 0 Q28 0 21.5 11 Q15 22 25 39 L130 224 L31 392 Q21 409 27.5 420.5 Q34 432 54 432 L95 432 Q123 432 134 408 L183 312 L232 408 Q243 432 271 432 L309 432 Z " />
<glyph glyph-name="y" unicode="y" horiz-adv-x="369" d="M322 432 Q360 432 349 395 L225 -1 Q210 -48 194 -78.5 Q178 -109 158.5 -126.5 Q139 -144 114.5 -151 Q90 -158 58 -158 Q50 -158 44 -158 Q38 -158 33 -157 Q8 -156 8 -123 L8 -104 Q8 -73 42 -73 L51 -73 Q78 -73 94 -65 Q110 -57 120 -39 Q128 -23 132 -12.5 Q136 -2 136 12 Q136 23 131.5 36.5 Q127 50 123 63 L19 395 Q8 432 46 432 L82 432 Q110 432 119 404 L183 166 L184 166 L250 404 Q257 432 287 432 L322 432 Z " />
<glyph glyph-name="z" unicode="z" horiz-adv-x="369" d="M319 432 Q352 432 352 399 L352 382 Q352 359 338 341 L144 83 L321 83 Q354 83 354 50 L354 33 Q354 0 321 0 L48 0 Q15 0 15 33 L15 50 Q15 73 29 91 L223 349 L65 349 Q32 349 32 382 L32 399 Q32 432 65 432 L319 432 Z " />
<glyph glyph-name="braceleft" unicode="&#x7b;" horiz-adv-x="309" d="M241 650 Q274 650 274 617 L274 583 Q274 550 241 550 L199 550 L199 325 Q199 313 194 303 Q189 294 179.5 286 Q170 278 152 275 Q170 273 179.5 265.5 Q189 258 193 249 Q198 238 199 225 L199 -50 L241 -50 Q274 -50 274 -83 L274 -117 Q274 -150 241 -150 L199 -150 Q178 -150 160 -142 Q142 -134 128.5 -120.5 Q115 -107 107 -89 Q99 -71 99 -50 L99 175 Q99 196 84.5 210.5 Q70 225 49 225 L58 225 Q25 225 25 258 L25 292 Q25 325 49 325 Q70 325 84.5 339.5 Q99 354 99 375 L99 550 Q99 571 107 589 Q115 607 128.5 620.5 Q142 634 160 642 Q178 650 199 650 L241 650 Z " />
<glyph glyph-name="verticalbar" unicode="&#x7c;" horiz-adv-x="200" d="M117 650 Q150 650 150 617 L150 -117 Q150 -150 117 -150 L83 -150 Q50 -150 50 -117 L50 617 Q50 650 83 650 L117 650 Z " />
<glyph glyph-name="braceright" unicode="&#x7d;" horiz-adv-x="309" d="M110 650 Q131 650 149 642 Q167 634 180.5 620.5 Q194 607 202 589 Q210 571 210 550 L210 375 Q210 354 224.5 339.5 Q239 325 260 325 L251 325 Q284 325 284 292 L284 258 Q284 225 272 225 L260 225 Q239 225 224.5 210.5 Q210 196 210 175 L210 -50 Q210 -71 202 -89 Q194 -107 180.5 -120.5 Q167 -134 149 -142 Q131 -150 110 -150 L68 -150 Q35 -150 35 -117 L35 -83 Q35 -50 68 -50 L110 -50 L110 225 Q111 238 116 248 Q120 258 129.5 265.5 Q139 273 157 274 Q139 277 129 285.5 Q119 294 115 303 Q110 313 110 325 L110 550 L68 550 Q35 550 35 583 L35 617 Q35 650 68 650 L110 650 Z " />
<glyph glyph-name="asciitilde" unicode="&#x7e;" horiz-adv-x="498" d="M67 193 Q58 218 70 237 Q84 257 105.5 272 Q127 287 161 287 Q184 287 208.5 278.5 Q233 270 256.5 259.5 Q280 249 301 240 Q322 231 338 231 Q352 231 363.5 237.5 Q375 244 385 255 Q398 269 409 268 Q420 267 427 249 L431 240 Q436 227 434.5 216.5 Q433 206 425 195 Q409 175 387.5 159.5 Q366 144 332 144 Q303 144 280.5 156 Q258 168 234 181 Q218 189 200 195 Q182 201 159 201 Q142 201 130.5 195 Q119 189 110 178 Q97 164 88 164 Q79 164 71 182 L67 193 Z " />
<glyph glyph-name="uni00A0" unicode="&#xa0;" horiz-adv-x="160" d="" />
<glyph glyph-name="exclamdown" unicode="&#xa1;" horiz-adv-x="276" d="M163 450 Q196 450 196 417 L196 365 Q196 332 163 332 L114 332 Q81 332 81 365 L81 417 Q81 450 114 450 L163 450 Z M146 247 Q178 247 180 215 L198 -115 Q200 -149 166 -149 L111 -149 Q77 -149 79 -115 L97 215 Q99 247 131 247 L146 247 Z " />
<glyph glyph-name="cent" unicode="&#xa2;" horiz-adv-x="507" d="M369 521 Q390 521 383 501 L352 415 Q391 393 412 356 Q420 342 415 330.5 Q410 319 394 313 L369 303 Q343 292 326 319 L320 327 L232 79 Q243 75 259 75 Q284 75 301.5 86.5 Q319 98 333 116 Q352 142 378 128 L399 116 Q413 108 416.5 96.5 Q420 85 411 71 Q382 28 344.5 9.5 Q307 -9 256 -8 Q227 -8 203 -2 L170 -90 Q166 -104 151 -104 L138 -104 Q117 -104 124 -85 L160 17 Q115 43 91.5 94 Q68 145 68 216 Q68 319 118 379.5 Q168 440 256 440 Q271 440 284.5 438 Q298 436 310 433 L337 507 Q341 521 356 521 L369 521 Z M281 354 Q271 357 256 357 Q212 357 187.5 322.5 Q163 288 163 216 Q163 139 192 105 L281 354 Z " />
<glyph glyph-name="sterling" unicode="&#xa3;" horiz-adv-x="411" d="M72 340 Q72 382 86.5 413.5 Q101 445 125.5 466.5 Q150 488 182.5 499 Q215 510 250 510 Q282 510 306.5 503.5 Q331 497 353 480 Q367 470 366.5 457.5 Q366 445 355 434 L337 416 Q326 405 315.5 405 Q305 405 291 413 Q275 422 250 422 Q214 422 192 401 Q170 380 170 335 L170 282 L217 282 Q250 282 250 249 L250 244 Q250 211 217 211 L170 211 L170 88 L346 88 Q379 88 379 55 L379 33 Q379 0 346 0 L105 0 Q72 0 72 33 L72 211 L61 211 Q28 211 28 244 L28 249 Q28 282 61 282 L72 282 L72 340 Z " />
<glyph glyph-name="currency" unicode="&#xa4;" horiz-adv-x="507" d="M134 474 Q160 491 190 500.5 Q220 510 253 510 Q286 510 316.5 500.5 Q347 491 372 474 L393 494 Q418 516 440 492 L446 486 Q469 463 446 440 L426 420 Q444 394 454 363.5 Q464 333 464 300 Q464 267 454 236 Q444 205 426 179 L446 159 Q469 136 446 113 L440 107 Q418 83 393 105 L372 125 Q347 108 316.5 98.5 Q286 89 253 89 Q220 89 190 98.5 Q160 108 134 125 L113 105 Q88 84 66 106 L60 112 Q37 137 61 159 L81 179 Q42 234 42 300 Q42 365 81 420 L61 440 Q37 462 60 487 L66 493 Q88 515 113 494 L134 474 Z M253 422 Q202 422 169.5 387.5 Q137 353 137 300 Q137 246 169.5 211.5 Q202 177 253 177 Q304 177 336.5 211.5 Q369 246 369 300 Q369 353 336.5 387.5 Q304 422 253 422 Z " />
<glyph glyph-name="yen" unicode="&#xa5;" horiz-adv-x="507" d="M440 599 Q460 599 466.5 588 Q473 577 464 560 L372 380 L417 380 Q450 380 450 347 L450 335 Q450 302 417 302 L333 302 L304 246 L417 246 Q450 246 450 213 L450 201 Q450 168 417 168 L300 168 L300 33 Q300 0 267 0 L239 0 Q206 0 206 33 L206 168 L89 168 Q56 168 56 201 L56 213 Q56 246 89 246 L203 246 L174 302 L89 302 Q56 302 56 335 L56 347 Q56 380 89 380 L135 380 L43 560 Q34 577 40.5 588 Q47 599 67 599 L99 599 Q127 599 138 575 L253 342 L369 575 Q380 599 408 599 L440 599 Z " />
<glyph glyph-name="brokenbar" unicode="&#xa6;" horiz-adv-x="248" d="M136 552 Q169 552 169 519 L169 339 Q169 306 136 306 L110 306 Q77 306 77 339 L77 519 Q77 552 110 552 L136 552 Z M136 194 Q169 194 169 161 L169 -19 Q169 -52 136 -52 L110 -52 Q77 -52 77 -19 L77 161 Q77 194 110 194 L136 194 Z " />
<glyph glyph-name="section" unicode="&#xa7;" horiz-adv-x="415" d="M116 34 Q130 45 140 31 Q151 17 166 7.5 Q181 -2 199 -2 Q220 -2 234 7.5 Q248 17 248 40 Q248 59 232.5 80 Q217 101 194 124 Q171 147 144.5 171 Q118 195 95 220 Q72 245 56.5 270.5 Q41 296 41 322 Q41 363 67 389.5 Q93 416 132 418 Q113 441 103 461.5 Q93 482 93 511 Q93 556 124 582 Q155 608 204 608 Q245 608 270.5 597 Q296 586 325 554 Q336 541 323 530 L293 506 Q279 497 269 508 Q257 521 243 530.5 Q229 540 212 540 Q195 540 183 530 Q171 520 171 505 Q171 488 186 469 Q201 450 223.5 428.5 Q246 407 272.5 383.5 Q299 360 321.5 335 Q344 310 359 283 Q374 256 374 228 Q374 215 369.5 200 Q365 185 354.5 171.5 Q344 158 327 148 Q310 138 284 134 Q303 114 314.5 89.5 Q326 65 326 37 Q326 11 316.5 -9 Q307 -29 290.5 -42.5 Q274 -56 252.5 -63 Q231 -70 207 -70 Q170 -70 140 -54 Q110 -38 86 -12 Q73 1 88 12 L116 34 Z M155 364 Q141 364 130.5 354 Q120 344 120 330 Q120 319 132.5 302 Q145 285 175 253 Q237 190 259 190 Q276 190 285.5 199 Q295 208 295 223 Q295 238 280 256.5 Q265 275 237 305 Q203 341 186 352.5 Q169 364 155 364 Z " />
<glyph glyph-name="dieresis" unicode="&#xa8;" horiz-adv-x="425" d="M143 605 Q160 605 160 588 L160 530 Q160 513 143 513 L99 513 Q82 513 82 530 L82 588 Q82 605 99 605 L143 605 Z M326 605 Q343 605 343 588 L343 530 Q343 513 326 513 L282 513 Q265 513 265 530 L265 588 Q265 605 282 605 L326 605 Z " />
<glyph glyph-name="copyright" unicode="&#xa9;" horiz-adv-x="612" d="M306 510 Q359 510 406 490 Q453 470 488 435 Q523 400 543 353 Q563 306 563 253 Q563 200 543 153 Q523 106 488 71 Q453 36 406 16 Q359 -4 306 -4 Q253 -4 206 16 Q159 36 124 71 Q89 106 69 153 Q49 200 49 253 Q49 306 69 353 Q89 400 124 435 Q159 470 206 490 Q253 510 306 510 Z M306 462 Q263 462 226 446 Q189 430 161 401.5 Q133 373 117 335 Q101 297 101 253 Q101 209 117 171 Q133 133 161 104.5 Q189 76 226 60 Q263 44 306 44 Q349 44 386.5 60 Q424 76 451.5 104.5 Q479 133 495 171 Q511 209 511 253 Q511 297 495 335 Q479 373 451.5 401.5 Q424 430 386.5 446 Q349 462 306 462 Z M391 161 Q404 148 389 137 Q372 124 353.5 117.5 Q335 111 310 111 Q253 111 218 149 Q183 187 183 253 Q183 318 218 356.5 Q253 395 310 395 Q335 395 353.5 388.5 Q372 382 389 369 Q404 358 391 345 L382 336 Q372 325 358 334 Q336 349 310 349 Q269 349 251.5 322 Q234 295 234 253 Q234 211 251.5 183.5 Q269 156 310 156 Q336 156 358 171 Q372 180 382 170 L391 161 Z " />
<glyph glyph-name="ordfeminine" unicode="&#xaa;" horiz-adv-x="249" d="M34 550 Q27 555 26 561.5 Q25 568 31 573 Q48 589 73.5 598.5 Q99 608 125 608 Q182 606 207 584 Q232 562 232 503 L232 361 Q232 344 215 344 L181 344 Q164 344 164 361 L164 367 Q147 353 127 346 Q107 339 81 339 Q43 339 24 360 Q5 381 5 408 Q5 452 43.5 476 Q82 500 161 509 L161 528 Q161 554 125 554 Q107 554 95 550.5 Q83 547 74 540 Q62 531 50 539 L34 550 Z M161 467 Q146 464 130.5 461 Q115 458 103 452.5 Q91 447 83.5 438 Q76 429 76 415 Q76 392 104 392 Q120 392 137 398 Q154 404 161 412 L161 467 Z " />
<glyph glyph-name="guillemotleft" unicode="&#xab;" horiz-adv-x="461" d="M216 349 Q227 349 230 343 Q233 337 226 328 L149 225 Q140 213 149 201 L226 104 Q233 95 230 89 Q227 83 216 83 L162 83 Q150 83 141 93 L59 201 Q50 213 59 225 L141 339 Q150 349 162 349 L216 349 Z M386 349 Q397 349 400 343 Q403 337 396 328 L319 225 Q310 213 319 201 L396 104 Q403 95 400 89 Q397 83 386 83 L332 83 Q320 83 311 93 L228 201 Q219 213 228 225 L311 339 Q320 349 332 349 L386 349 Z " />
<glyph glyph-name="logicalnot" unicode="&#xac;" horiz-adv-x="498" d="M432 352 Q465 352 465 319 L465 113 Q465 80 432 80 L408 80 Q375 80 375 113 L375 262 L66 262 Q33 262 33 295 L33 319 Q33 352 66 352 L432 352 Z " />
<glyph glyph-name="registered" unicode="&#xae;" horiz-adv-x="612" d="M306 510 Q359 510 406 490 Q453 470 488 435 Q523 400 543 353 Q563 306 563 253 Q563 200 543 153 Q523 106 488 71 Q453 36 406 16 Q359 -4 306 -4 Q253 -4 206 16 Q159 36 124 71 Q89 106 69 153 Q49 200 49 253 Q49 306 69 353 Q89 400 124 435 Q159 470 206 490 Q253 510 306 510 Z M306 462 Q263 462 225.5 446 Q188 430 160 401.5 Q132 373 116 335 Q100 297 100 253 Q100 209 116 171 Q132 133 160 104.5 Q188 76 225.5 59.5 Q263 43 306 43 Q349 43 386.5 59.5 Q424 76 451.5 104.5 Q479 133 495 171 Q511 209 511 253 Q511 297 495 335 Q479 373 451.5 401.5 Q424 430 386.5 446 Q349 462 306 462 Z M321 392 Q360 392 385 367 Q410 342 410 307 Q410 278 394.5 258.5 Q379 239 356 231 L406 134 Q418 114 394 114 L374 114 Q360 114 354 126 L303 224 L268 224 L268 131 Q268 114 251 114 L234 114 Q217 114 217 131 L217 375 Q217 392 234 392 L321 392 Z M268 265 L315 265 Q335 265 347.5 277 Q360 289 360 307 Q360 324 347.5 336.5 Q335 349 315 349 L268 349 L268 265 Z " />
<glyph glyph-name="overscore" unicode="&#xaf;" horiz-adv-x="231" d="M242 574 Q259 574 259 557 L259 530 Q259 513 242 513 L-11 513 Q-28 513 -28 530 L-28 557 Q-28 574 -11 574 L242 574 Z " />
<glyph glyph-name="degree" unicode="&#xb0;" horiz-adv-x="339" d="M170 514 Q197 514 220.5 503.5 Q244 493 262 475.5 Q280 458 290 434 Q300 410 300 383 Q300 356 290 332 Q280 308 262 290.5 Q244 273 220.5 262.5 Q197 252 170 252 Q143 252 119 262.5 Q95 273 77 290.5 Q59 308 49 332 Q39 356 39 383 Q39 410 49 434 Q59 458 77 475.5 Q95 493 119 503.5 Q143 514 170 514 Z M169 440 Q146 440 130 423.5 Q114 407 114 383 Q114 359 130 342.5 Q146 326 170 326 Q193 326 209.5 342.5 Q226 359 226 383 Q226 407 209 423.5 Q192 440 169 440 Z " />
<glyph glyph-name="plusminus" unicode="&#xb1;" horiz-adv-x="498" d="M261 432 Q294 432 294 399 L294 322 L432 322 Q465 322 465 289 L465 265 Q465 232 432 232 L294 232 L294 155 Q294 122 261 122 L237 122 Q204 122 204 155 L204 232 L66 232 Q33 232 33 265 L33 289 Q33 322 66 322 L204 322 L204 399 Q204 432 237 432 L261 432 Z M432 90 Q465 90 465 57 L465 33 Q465 0 432 0 L66 0 Q33 0 33 33 L33 57 Q33 90 66 90 L432 90 Z " />
<glyph glyph-name="twosuperior" unicode="&#xb2;" horiz-adv-x="251" d="M48 412 Q30 412 31 430 Q37 465 64 484 Q91 503 126 503 Q167 503 194 479 Q221 455 221 413 Q221 390 211.5 374.5 Q202 359 185 340 L111 260 L204 260 Q221 260 221 243 L221 217 Q221 200 204 200 L47 200 Q30 200 30 217 L30 248 Q30 261 38 269 L140 380 Q148 389 151.5 396 Q155 403 155 413 Q155 427 147.5 435 Q140 443 126 443 Q118 443 110.5 440 Q103 437 99 428 Q93 412 81 412 L48 412 Z " />
<glyph glyph-name="threesuperior" unicode="&#xb3;" horiz-adv-x="258" d="M52 414 Q33 414 36 432 Q42 465 68 484 Q94 503 129 503 Q171 503 198 478 Q225 453 225 414 Q225 389 215 376 Q205 363 193 355 Q207 347 217.5 331.5 Q228 316 228 289 Q228 242 198.5 219.5 Q169 197 129 197 Q95 197 66 214.5 Q37 232 31 272 Q30 290 48 290 L81 290 Q89 290 92.5 286.5 Q96 283 99 275 Q107 256 129 256 Q144 256 153 265 Q162 274 162 291 Q162 306 153 315.5 Q144 325 128 325 L136 325 Q119 325 119 342 L119 365 Q119 382 128 382 Q145 382 152 391.5 Q159 401 159 412 Q159 428 150 435.5 Q141 443 129 443 Q111 443 103 429 Q100 421 96.5 417.5 Q93 414 85 414 L52 414 Z " />
<glyph glyph-name="acute" unicode="&#xb4;" horiz-adv-x="425" d="M346 647 Q357 647 360 641 Q363 635 357 626 L284 520 Q277 509 264 509 L233 509 Q212 509 220 529 L269 634 Q275 647 289 647 L346 647 Z " />
<glyph glyph-name="paragraph" unicode="&#xb6;" horiz-adv-x="515" d="M453 599 Q486 599 486 566 L486 563 Q486 530 456 530 L426 530 L426 -23 Q426 -56 393 -56 L374 -56 Q341 -56 341 -23 L341 530 L267 530 L267 -23 Q267 -56 234 -56 L216 -56 Q183 -56 183 -23 L183 306 Q109 306 63.5 344.5 Q18 383 18 450 Q18 494 33 523 Q48 552 72.5 569 Q97 586 128.5 592.5 Q160 599 193 599 L453 599 Z " />
<glyph glyph-name="periodcentered" unicode="&#xb7;" horiz-adv-x="240" d="M166 303 Q183 303 183 286 L183 195 Q183 178 166 178 L74 178 Q57 178 57 195 L57 286 Q57 303 74 303 L166 303 Z " />
<glyph glyph-name="cedilla" unicode="&#xb8;" horiz-adv-x="231" d="M110 -52 Q118 -50 125 -49 Q132 -48 140 -48 Q169 -48 191 -63 Q213 -78 213 -111 Q213 -132 203 -147 Q193 -162 178 -171.5 Q163 -181 144.5 -185.5 Q126 -190 108 -190 Q88 -190 69.5 -185.5 Q51 -181 33 -174 Q16 -167 24 -152 L25 -149 Q32 -135 47 -139 Q58 -142 71.5 -144.5 Q85 -147 97 -147 Q117 -147 128.5 -140 Q140 -133 140 -112 Q140 -95 129.5 -90.5 Q119 -86 105 -86 Q96 -86 86 -88 Q76 -90 70 -91 L64 -86 Q53 -75 62 -62 L102 0 L146 0 L110 -52 Z " />
<glyph glyph-name="onesuperior" unicode="&#xb9;" horiz-adv-x="205" d="M140 500 Q157 500 157 483 L157 217 Q157 200 140 200 L107 200 Q90 200 90 217 L90 426 L48 389 Q40 381 33.5 384.5 Q27 388 27 399 L27 432 Q27 444 36 453 L81 492 Q89 500 102 500 L140 500 Z " />
<glyph glyph-name="ordmasculine" unicode="&#xba;" horiz-adv-x="249" d="M125 608 Q182 608 214 571.5 Q246 535 246 473 Q246 411 214 375 Q182 339 125 339 Q67 339 34.5 375 Q2 411 2 473 Q2 535 34.5 571.5 Q67 608 125 608 Z M125 554 Q99 554 86.5 534.5 Q74 515 74 473 Q74 431 86.5 411.5 Q99 392 125 392 Q150 392 162 411.5 Q174 431 174 473 Q174 515 162 534.5 Q150 554 125 554 Z " />
<glyph glyph-name="guillemotright" unicode="&#xbb;" horiz-adv-x="461" d="M130 349 Q142 349 151 339 L233 230 Q242 218 233 206 L151 93 Q142 83 130 83 L76 83 Q65 83 62 89 Q59 95 66 104 L143 206 Q152 218 143 230 L66 328 Q59 337 62 343 Q65 349 76 349 L130 349 Z M299 349 Q311 349 320 339 L403 230 Q412 218 403 206 L320 93 Q311 83 299 83 L245 83 Q234 83 231 89 Q228 95 235 104 L312 206 Q321 218 312 230 L235 328 Q228 337 231 343 Q234 349 245 349 L299 349 Z " />
<glyph glyph-name="onequarter" unicode="&#xbc;" horiz-adv-x="587" d="M140 500 Q157 500 157 483 L157 217 Q157 200 140 200 L107 200 Q90 200 90 217 L90 426 L48 389 Q40 381 33.5 384.5 Q27 388 27 399 L27 432 Q27 444 36 453 L81 492 Q89 500 102 500 L140 500 Z M417 500 Q438 500 430 480 L208 13 Q202 0 188 0 L153 0 Q132 0 140 20 L361 487 Q367 500 381 500 L417 500 Z M499 300 Q522 300 512 280 L421 103 L473 103 L473 129 Q473 146 490 146 L519 146 Q536 146 536 129 L536 103 L542 103 Q559 103 559 86 L559 57 Q559 40 548 40 L536 40 L536 17 Q536 0 519 0 L490 0 Q473 0 473 17 L473 40 L366 40 Q349 40 349 57 L349 92 Q349 104 354 113 L443 288 Q449 300 463 300 L499 300 Z " />
<glyph glyph-name="onehalf" unicode="&#xbd;" horiz-adv-x="605" d="M140 500 Q157 500 157 483 L157 217 Q157 200 140 200 L107 200 Q90 200 90 217 L90 426 L48 389 Q40 381 33.5 384.5 Q27 388 27 399 L27 432 Q27 444 36 453 L81 492 Q89 500 102 500 L140 500 Z M413 500 Q434 500 426 480 L205 13 Q199 0 185 0 L150 0 Q129 0 137 20 L358 487 Q364 500 378 500 L413 500 Z M402 212 Q384 212 385 230 Q391 265 418 284 Q445 303 480 303 Q521 303 548 279 Q575 255 575 213 Q575 190 565.5 174.5 Q556 159 539 140 L465 60 L558 60 Q575 60 575 43 L575 17 Q575 0 558 0 L401 0 Q384 0 384 17 L384 48 Q384 61 392 69 L494 180 Q502 189 506 196 Q510 203 510 213 Q510 227 502 235 Q494 243 480 243 Q472 243 465 240 Q458 237 454 228 Q451 220 447 216 Q443 212 435 212 L402 212 Z " />
<glyph glyph-name="threequarters" unicode="&#xbe;" horiz-adv-x="607" d="M52 414 Q33 414 36 432 Q42 465 68 484 Q94 503 129 503 Q171 503 198 478 Q225 453 225 414 Q225 389 215 376 Q205 363 193 355 Q207 347 217.5 331.5 Q228 316 228 289 Q228 242 198.5 219.5 Q169 197 129 197 Q95 197 66 214.5 Q37 232 31 272 Q30 290 48 290 L81 290 Q89 290 92.5 286.5 Q96 283 99 275 Q107 256 129 256 Q144 256 153 265 Q162 274 162 291 Q162 306 153 315.5 Q144 325 128 325 L136 325 Q119 325 119 342 L119 365 Q119 382 128 382 Q145 382 152 391.5 Q159 401 159 412 Q159 428 150 435.5 Q141 443 129 443 Q111 443 103 429 Q100 421 96.5 417.5 Q93 414 85 414 L52 414 Z M439 500 Q460 500 452 480 L231 13 Q225 0 211 0 L175 0 Q154 0 162 20 L384 487 Q390 500 404 500 L439 500 Z M519 300 Q542 300 532 280 L441 103 L493 103 L493 129 Q493 146 510 146 L539 146 Q556 146 556 129 L556 103 L562 103 Q579 103 579 86 L579 57 Q579 40 568 40 L556 40 L556 17 Q556 0 539 0 L510 0 Q493 0 493 17 L493 40 L386 40 Q369 40 369 57 L369 92 Q369 104 374 113 L464 288 Q470 300 484 300 L519 300 Z " />
<glyph glyph-name="questiondown" unicode="&#xbf;" horiz-adv-x="369" d="M227 450 Q260 450 260 417 L260 365 Q260 332 227 332 L178 332 Q145 332 145 365 L145 417 Q145 450 178 450 L227 450 Z M217 248 Q250 248 250 215 L250 203 Q250 167 233.5 136.5 Q217 106 197 77 Q177 49 160.5 22.5 Q144 -4 144 -30 Q144 -49 159.5 -62 Q175 -75 196 -75 Q217 -75 232 -62.5 Q247 -50 256 -33 Q263 -18 272 -12 Q281 -6 296 -10 L327 -19 Q343 -24 349.5 -34.5 Q356 -45 349 -60 Q328 -107 287.5 -132.5 Q247 -158 189 -158 Q159 -158 131.5 -149.5 Q104 -141 83.5 -124 Q63 -107 51 -82 Q39 -57 39 -25 Q39 17 57.5 46.5 Q76 76 99 102 Q122 129 140.5 155.5 Q159 182 159 217 L159 215 Q159 248 192 248 L217 248 Z " />
<glyph glyph-name="Agrave" unicode="&#xc0;" horiz-adv-x="507" d="M211 775 Q224 775 231 764 L289 674 Q294 665 291 659 Q288 653 278 653 L229 653 Q217 653 208 662 L117 754 Q109 762 111.5 768.5 Q114 775 125 775 L211 775 Z M297 600 Q327 600 334 572 L485 37 Q490 20 482.5 10 Q475 0 457 0 L412 0 Q383 0 376 28 L349 129 L160 129 L133 28 Q124 0 96 0 L50 0 Q32 0 24.5 10 Q17 20 22 37 L175 572 Q182 600 212 600 L297 600 Z M325 224 L257 485 L256 485 L185 224 L325 224 Z " />
<glyph glyph-name="Aacute" unicode="&#xc1;" horiz-adv-x="507" d="M352 814 Q363 814 366 808 Q369 802 363 793 L290 687 Q283 676 270 676 L239 676 Q218 676 226 696 L275 801 Q281 814 295 814 L352 814 Z M297 600 Q327 600 334 572 L485 37 Q490 20 482.5 10 Q475 0 457 0 L412 0 Q383 0 376 28 L349 129 L160 129 L133 28 Q124 0 96 0 L50 0 Q32 0 24.5 10 Q17 20 22 37 L175 572 Q182 600 212 600 L297 600 Z M185 224 L325 224 L257 485 L256 485 L185 224 Z " />
<glyph glyph-name="Acircumflex" unicode="&#xc2;" horiz-adv-x="507" d="M292 775 Q304 775 313 765 L384 674 Q391 665 388 659 Q385 653 374 653 L320 653 Q308 653 299 663 L254 721 L209 663 Q200 653 188 653 L134 653 Q123 653 120 659 Q117 665 124 674 L194 765 Q203 775 215 775 L292 775 Z M297 600 Q327 600 334 572 L485 37 Q490 20 482.5 10 Q475 0 457 0 L412 0 Q383 0 376 28 L349 129 L160 129 L133 28 Q124 0 96 0 L50 0 Q32 0 24.5 10 Q17 20 22 37 L175 572 Q182 600 212 600 L297 600 Z M185 224 L325 224 L257 485 L256 485 L185 224 Z " />
<glyph glyph-name="Atilde" unicode="&#xc3;" horiz-adv-x="507" d="M387 766 Q407 766 401 747 Q392 714 372.5 689.5 Q353 665 314 665 Q299 665 282.5 669.5 Q266 674 250 679.5 Q234 685 219 689.5 Q204 694 192 694 Q179 694 172 688 Q165 682 160 673 Q153 660 140 660 L121 660 Q101 660 106 679 Q115 712 137 736.5 Q159 761 197 761 Q214 761 230.5 756.5 Q247 752 262 746 Q277 740 290 735.5 Q303 731 313 731 Q324 731 333 737 Q342 743 347 752 Q355 766 366 766 L387 766 Z M297 600 Q327 600 334 572 L485 37 Q490 20 482.5 10 Q475 0 457 0 L412 0 Q383 0 376 28 L349 129 L160 129 L133 28 Q124 0 96 0 L50 0 Q32 0 24.5 10 Q17 20 22 37 L175 572 Q182 600 212 600 L297 600 Z M325 224 L257 485 L256 485 L185 224 L325 224 Z " />
<glyph glyph-name="Adieresis" unicode="&#xc4;" horiz-adv-x="507" d="M185 772 Q202 772 202 755 L202 697 Q202 680 185 680 L141 680 Q124 680 124 697 L124 755 Q124 772 141 772 L185 772 Z M368 772 Q385 772 385 755 L385 697 Q385 680 368 680 L324 680 Q307 680 307 697 L307 755 Q307 772 324 772 L368 772 Z M297 600 Q327 600 334 572 L485 37 Q490 20 482.5 10 Q475 0 457 0 L412 0 Q383 0 376 28 L349 129 L160 129 L133 28 Q124 0 96 0 L50 0 Q32 0 24.5 10 Q17 20 22 37 L175 572 Q182 600 212 600 L297 600 Z M185 224 L325 224 L257 485 L256 485 L185 224 Z " />
<glyph glyph-name="Aring" unicode="&#xc5;" horiz-adv-x="507" d="M254 832 Q292 832 318 806 Q344 780 344 742 Q344 704 318 678.5 Q292 653 254 653 Q217 653 191 678.5 Q165 704 165 742 Q165 780 191 806 Q217 832 254 832 Z M254 787 Q235 787 222.5 774 Q210 761 210 742 Q210 723 222.5 710 Q235 697 254 697 Q273 697 286 710 Q299 723 299 742 Q299 761 286 774 Q273 787 254 787 Z M297 600 Q327 600 334 572 L485 37 Q490 20 482.5 10 Q475 0 457 0 L412 0 Q383 0 376 28 L349 129 L160 129 L133 28 Q124 0 96 0 L50 0 Q32 0 24.5 10 Q17 20 22 37 L175 572 Q182 600 212 600 L297 600 Z M325 224 L257 485 L256 485 L185 224 L325 224 Z " />
<glyph glyph-name="AE" unicode="&#xc6;" horiz-adv-x="784" d="M710 599 Q743 599 743 566 L743 536 Q743 503 710 503 L491 503 L491 360 L633 360 Q666 360 666 327 L666 297 Q666 264 633 264 L491 264 L491 96 L719 96 Q752 96 752 63 L752 33 Q752 0 719 0 L377 0 L377 140 L194 140 L140 24 Q128 0 101 0 L50 0 Q30 0 23.5 11 Q17 22 26 39 L295 575 Q306 599 334 599 L710 599 Z M242 237 L377 237 L377 516 L375 516 L242 237 Z " />
<glyph glyph-name="Ccedilla" unicode="&#xc7;" horiz-adv-x="507" d="M455 158 Q471 153 477 142.5 Q483 132 475 116 Q418 -2 280 -8 L249 -52 Q257 -50 264 -49 Q271 -48 279 -48 Q308 -48 330 -63 Q352 -78 352 -111 Q352 -132 342 -147 Q332 -162 317 -171.5 Q302 -181 283.5 -185.5 Q265 -190 247 -190 Q227 -190 208.5 -185.5 Q190 -181 172 -174 Q155 -167 163 -152 L164 -149 Q171 -135 186 -139 Q197 -142 210.5 -144.5 Q224 -147 236 -147 Q256 -147 267.5 -140 Q279 -133 279 -112 Q279 -95 268.5 -90.5 Q258 -86 244 -86 Q235 -86 225 -88 Q215 -90 209 -91 L203 -86 Q192 -75 201 -62 L237 -7 Q135 4 80 83 Q25 162 25 300 Q25 448 88 528 Q151 608 266 608 Q416 608 464 483 Q470 467 464 456.5 Q458 446 442 442 L401 432 Q386 428 376.5 433.5 Q367 439 359 453 Q344 479 320.5 495 Q297 511 262 511 Q205 511 172.5 458.5 Q140 406 139 300 Q139 194 169.5 141 Q200 88 266 88 Q299 88 323 100.5 Q347 113 369 150 Q384 177 412 169 L455 158 Z " />
<glyph glyph-name="Egrave" unicode="&#xc8;" horiz-adv-x="507" d="M211 775 Q224 775 231 764 L289 674 Q294 665 291 659 Q288 653 278 653 L229 653 Q217 653 208 662 L117 754 Q109 762 111.5 768.5 Q114 775 125 775 L211 775 Z M433 599 Q466 599 466 566 L466 536 Q466 503 433 503 L184 503 L184 360 L356 360 Q389 360 389 327 L389 297 Q389 264 356 264 L184 264 L184 96 L443 96 Q476 96 476 63 L476 33 Q476 0 443 0 L103 0 Q70 0 70 33 L70 566 Q70 599 103 599 L433 599 Z " />
<glyph glyph-name="Eacute" unicode="&#xc9;" horiz-adv-x="507" d="M352 814 Q363 814 366 808 Q369 802 363 793 L290 687 Q283 676 270 676 L239 676 Q218 676 226 696 L275 801 Q281 814 295 814 L352 814 Z M433 599 Q466 599 466 566 L466 536 Q466 503 433 503 L184 503 L184 360 L356 360 Q389 360 389 327 L389 297 Q389 264 356 264 L184 264 L184 96 L443 96 Q476 96 476 63 L476 33 Q476 0 443 0 L103 0 Q70 0 70 33 L70 566 Q70 599 103 599 L433 599 Z " />
<glyph glyph-name="Ecircumflex" unicode="&#xca;" horiz-adv-x="507" d="M292 775 Q304 775 313 765 L384 674 Q391 665 388 659 Q385 653 374 653 L320 653 Q308 653 299 663 L254 721 L209 663 Q200 653 188 653 L134 653 Q123 653 120 659 Q117 665 124 674 L194 765 Q203 775 215 775 L292 775 Z M433 599 Q466 599 466 566 L466 536 Q466 503 433 503 L184 503 L184 360 L356 360 Q389 360 389 327 L389 297 Q389 264 356 264 L184 264 L184 96 L443 96 Q476 96 476 63 L476 33 Q476 0 443 0 L103 0 Q70 0 70 33 L70 566 Q70 599 103 599 L433 599 Z " />
<glyph glyph-name="Edieresis" unicode="&#xcb;" horiz-adv-x="507" d="M185 772 Q202 772 202 755 L202 697 Q202 680 185 680 L141 680 Q124 680 124 697 L124 755 Q124 772 141 772 L185 772 Z M368 772 Q385 772 385 755 L385 697 Q385 680 368 680 L324 680 Q307 680 307 697 L307 755 Q307 772 324 772 L368 772 Z M433 599 Q466 599 466 566 L466 536 Q466 503 433 503 L184 503 L184 360 L356 360 Q389 360 389 327 L389 297 Q389 264 356 264 L184 264 L184 96 L443 96 Q476 96 476 63 L476 33 Q476 0 443 0 L103 0 Q70 0 70 33 L70 566 Q70 599 103 599 L433 599 Z " />
<glyph glyph-name="Igrave" unicode="&#xcc;" horiz-adv-x="276" d="M95 775 Q108 775 115 764 L173 674 Q178 665 175 659 Q172 653 162 653 L113 653 Q101 653 92 662 L1 754 Q-7 762 -4.5 768.5 Q-2 775 9 775 L95 775 Z M162 599 Q195 599 195 566 L195 33 Q195 0 162 0 L114 0 Q81 0 81 33 L81 566 Q81 599 114 599 L162 599 Z " />
<glyph glyph-name="Iacute" unicode="&#xcd;" horiz-adv-x="276" d="M236 814 Q247 814 250 808 Q253 802 247 793 L174 687 Q167 676 154 676 L123 676 Q102 676 110 696 L159 801 Q165 814 179 814 L236 814 Z M162 599 Q195 599 195 566 L195 33 Q195 0 162 0 L114 0 Q81 0 81 33 L81 566 Q81 599 114 599 L162 599 Z " />
<glyph glyph-name="Icircumflex" unicode="&#xce;" horiz-adv-x="276" d="M176 775 Q188 775 197 765 L268 674 Q275 665 272 659 Q269 653 258 653 L204 653 Q192 653 183 663 L138 721 L93 663 Q84 653 72 653 L18 653 Q7 653 4 659 Q1 665 8 674 L78 765 Q87 775 99 775 L176 775 Z M162 599 Q195 599 195 566 L195 33 Q195 0 162 0 L114 0 Q81 0 81 33 L81 566 Q81 599 114 599 L162 599 Z " />
<glyph glyph-name="Idieresis" unicode="&#xcf;" horiz-adv-x="276" d="M68 772 Q85 772 85 755 L85 697 Q85 680 68 680 L24 680 Q7 680 7 697 L7 755 Q7 772 24 772 L68 772 Z M251 772 Q268 772 268 755 L268 697 Q268 680 251 680 L207 680 Q190 680 190 697 L190 755 Q190 772 207 772 L251 772 Z M162 599 Q195 599 195 566 L195 33 Q195 0 162 0 L114 0 Q81 0 81 33 L81 566 Q81 599 114 599 L162 599 Z " />
<glyph glyph-name="Eth" unicode="&#xd0;" horiz-adv-x="554" d="M263 599 Q323 599 372.5 582 Q422 565 457.5 528.5 Q493 492 512.5 435.5 Q532 379 532 300 Q532 221 512.5 164 Q493 107 457.5 70.5 Q422 34 372.5 17 Q323 0 263 0 L98 0 Q65 0 65 33 L65 257 L42 257 Q9 257 9 290 L9 327 Q9 360 42 360 L65 360 L65 566 Q65 599 98 599 L263 599 Z M179 360 L270 360 Q303 360 303 327 L303 290 Q303 257 270 257 L179 257 L179 96 L256 96 Q305 96 336.5 113 Q368 130 386 158 Q404 186 410.5 223 Q417 260 417 300 Q417 340 410.5 377 Q404 414 386 442 Q368 470 336.5 486.5 Q305 503 256 503 L179 503 L179 360 Z " />
<glyph glyph-name="Ntilde" unicode="&#xd1;" horiz-adv-x="599" d="M433 766 Q453 766 447 747 Q438 714 418.5 689.5 Q399 665 360 665 Q345 665 328.5 669.5 Q312 674 296 679.5 Q280 685 265 689.5 Q250 694 238 694 Q225 694 218 688 Q211 682 206 673 Q199 660 186 660 L167 660 Q147 660 152 679 Q161 712 183 736.5 Q205 761 243 761 Q260 761 276.5 756.5 Q293 752 308 746 Q323 740 336 735.5 Q349 731 359 731 Q370 731 379 737 Q388 743 393 752 Q401 766 412 766 L433 766 Z M499 599 Q532 599 532 566 L532 33 Q532 0 499 0 L448 0 Q422 0 409 23 L177 427 L175 427 L175 33 Q175 0 142 0 L100 0 Q67 0 67 33 L67 566 Q67 599 100 599 L161 599 Q187 599 200 576 L422 191 L424 191 L424 566 Q424 599 457 599 L499 599 Z " />
<glyph glyph-name="Ograve" unicode="&#xd2;" horiz-adv-x="554" d="M234 775 Q247 775 254 764 L312 674 Q317 665 314 659 Q311 653 301 653 L252 653 Q240 653 231 662 L140 754 Q132 762 134.5 768.5 Q137 775 148 775 L234 775 Z M276 608 Q400 608 464 528 Q528 448 528 300 Q528 152 464 72 Q400 -8 276 -8 Q153 -8 89 72 Q25 152 25 300 Q25 448 89 528 Q153 608 276 608 Z M276 511 Q206 511 173 458.5 Q140 406 139 300 Q139 194 172 141 Q205 88 276 88 Q347 88 380 141 Q413 194 413 300 Q413 406 380 458.5 Q347 511 276 511 Z " />
<glyph glyph-name="Oacute" unicode="&#xd3;" horiz-adv-x="554" d="M375 814 Q386 814 389 808 Q392 802 386 793 L313 687 Q306 676 293 676 L262 676 Q241 676 249 696 L298 801 Q304 814 318 814 L375 814 Z M276 608 Q400 608 464 528 Q528 448 528 300 Q528 152 464 72 Q400 -8 276 -8 Q153 -8 89 72 Q25 152 25 300 Q25 448 89 528 Q153 608 276 608 Z M276 511 Q206 511 173 458.5 Q140 406 139 300 Q139 194 172 141 Q205 88 276 88 Q347 88 380 141 Q413 194 413 300 Q413 406 380 458.5 Q347 511 276 511 Z " />
<glyph glyph-name="Ocircumflex" unicode="&#xd4;" horiz-adv-x="554" d="M315 775 Q327 775 336 765 L407 674 Q414 665 411 659 Q408 653 397 653 L343 653 Q331 653 322 663 L277 721 L232 663 Q223 653 211 653 L157 653 Q146 653 143 659 Q140 665 147 674 L217 765 Q226 775 238 775 L315 775 Z M276 608 Q400 608 464 528 Q528 448 528 300 Q528 152 464 72 Q400 -8 276 -8 Q153 -8 89 72 Q25 152 25 300 Q25 448 89 528 Q153 608 276 608 Z M276 511 Q206 511 173 458.5 Q140 406 139 300 Q139 194 172 141 Q205 88 276 88 Q347 88 380 141 Q413 194 413 300 Q413 406 380 458.5 Q347 511 276 511 Z " />
<glyph glyph-name="Otilde" unicode="&#xd5;" horiz-adv-x="554" d="M410 766 Q430 766 424 747 Q415 714 395.5 689.5 Q376 665 337 665 Q322 665 305.5 669.5 Q289 674 273 679.5 Q257 685 242 689.5 Q227 694 215 694 Q202 694 195 688 Q188 682 183 673 Q176 660 163 660 L144 660 Q124 660 129 679 Q138 712 160 736.5 Q182 761 220 761 Q237 761 253.5 756.5 Q270 752 285 746 Q300 740 313 735.5 Q326 731 336 731 Q347 731 356 737 Q365 743 370 752 Q378 766 389 766 L410 766 Z M276 608 Q400 608 464 528 Q528 448 528 300 Q528 152 464 72 Q400 -8 276 -8 Q153 -8 89 72 Q25 152 25 300 Q25 448 89 528 Q153 608 276 608 Z M276 511 Q206 511 173 458.5 Q140 406 139 300 Q139 194 172 141 Q205 88 276 88 Q347 88 380 141 Q413 194 413 300 Q413 406 380 458.5 Q347 511 276 511 Z " />
<glyph glyph-name="Odieresis" unicode="&#xd6;" horiz-adv-x="554" d="M208 772 Q225 772 225 755 L225 697 Q225 680 208 680 L164 680 Q147 680 147 697 L147 755 Q147 772 164 772 L208 772 Z M391 772 Q408 772 408 755 L408 697 Q408 680 391 680 L347 680 Q330 680 330 697 L330 755 Q330 772 347 772 L391 772 Z M276 608 Q400 608 464 528 Q528 448 528 300 Q528 152 464 72 Q400 -8 276 -8 Q153 -8 89 72 Q25 152 25 300 Q25 448 89 528 Q153 608 276 608 Z M276 511 Q206 511 173 458.5 Q140 406 139 300 Q139 194 172 141 Q205 88 276 88 Q347 88 380 141 Q413 194 413 300 Q413 406 380 458.5 Q347 511 276 511 Z " />
<glyph glyph-name="multiply" unicode="&#xd7;" horiz-adv-x="400" d="M318 344 Q341 321 318 298 L271 250 L318 202 Q341 179 318 156 L294 132 Q271 109 248 132 L200 179 L152 132 Q129 109 106 132 L82 156 Q59 179 82 202 L129 250 L82 298 Q59 321 82 344 L106 368 Q129 391 152 368 L200 321 L248 368 Q271 391 294 368 L318 344 Z " />
<glyph glyph-name="Oslash" unicode="&#xd8;" horiz-adv-x="554" d="M497 632 Q517 632 522.5 620.5 Q528 609 517 592 L469 520 Q528 440 528 300 Q528 152 464 72 Q400 -8 276 -8 Q194 -8 140 27 L99 -34 Q85 -55 59 -55 L38 -55 Q18 -55 12.5 -43.5 Q7 -32 18 -15 L82 82 Q25 160 25 300 Q25 448 89 528 Q153 608 276 608 Q355 608 410 573 L435 611 Q449 632 475 632 L497 632 Z M353 488 Q323 511 276 511 Q139 511 139 300 Q139 230 152 188 L353 488 Z M198 113 Q227 88 276 88 Q347 88 380 141 Q413 194 413 300 Q413 369 398 414 L198 113 Z " />
<glyph glyph-name="Ugrave" unicode="&#xd9;" horiz-adv-x="599" d="M257 775 Q270 775 277 764 L335 674 Q340 665 337 659 Q334 653 324 653 L275 653 Q263 653 254 662 L163 754 Q155 762 157.5 768.5 Q160 775 171 775 L257 775 Z M497 599 Q530 599 530 566 L530 224 Q530 158 511 113.5 Q492 69 460.5 42 Q429 15 387.5 3.5 Q346 -8 300 -8 Q254 -8 212.5 3.5 Q171 15 139.5 42 Q108 69 89 113.5 Q70 158 70 224 L70 566 Q70 599 103 599 L151 599 Q184 599 184 566 L184 219 Q184 146 212.5 117 Q241 88 300 88 Q358 88 386.5 117 Q415 146 415 219 L415 566 Q415 599 448 599 L497 599 Z " />
<glyph glyph-name="Uacute" unicode="&#xda;" horiz-adv-x="599" d="M398 814 Q409 814 412 808 Q415 802 409 793 L336 687 Q329 676 316 676 L285 676 Q264 676 272 696 L321 801 Q327 814 341 814 L398 814 Z M497 599 Q530 599 530 566 L530 224 Q530 158 511 113.5 Q492 69 460.5 42 Q429 15 387.5 3.5 Q346 -8 300 -8 Q254 -8 212.5 3.5 Q171 15 139.5 42 Q108 69 89 113.5 Q70 158 70 224 L70 566 Q70 599 103 599 L151 599 Q184 599 184 566 L184 219 Q184 146 212.5 117 Q241 88 300 88 Q358 88 386.5 117 Q415 146 415 219 L415 566 Q415 599 448 599 L497 599 Z " />
<glyph glyph-name="Ucircumflex" unicode="&#xdb;" horiz-adv-x="599" d="M338 775 Q350 775 359 765 L430 674 Q437 665 434 659 Q431 653 420 653 L366 653 Q354 653 345 663 L300 721 L255 663 Q246 653 234 653 L180 653 Q169 653 166 659 Q163 665 170 674 L240 765 Q249 775 261 775 L338 775 Z M497 599 Q530 599 530 566 L530 224 Q530 158 511 113.5 Q492 69 460.5 42 Q429 15 387.5 3.5 Q346 -8 300 -8 Q254 -8 212.5 3.5 Q171 15 139.5 42 Q108 69 89 113.5 Q70 158 70 224 L70 566 Q70 599 103 599 L151 599 Q184 599 184 566 L184 219 Q184 146 212.5 117 Q241 88 300 88 Q358 88 386.5 117 Q415 146 415 219 L415 566 Q415 599 448 599 L497 599 Z " />
<glyph glyph-name="Udieresis" unicode="&#xdc;" horiz-adv-x="599" d="M231 772 Q248 772 248 755 L248 697 Q248 680 231 680 L187 680 Q170 680 170 697 L170 755 Q170 772 187 772 L231 772 Z M414 772 Q431 772 431 755 L431 697 Q431 680 414 680 L370 680 Q353 680 353 697 L353 755 Q353 772 370 772 L414 772 Z M497 599 Q530 599 530 566 L530 224 Q530 158 511 113.5 Q492 69 460.5 42 Q429 15 387.5 3.5 Q346 -8 300 -8 Q254 -8 212.5 3.5 Q171 15 139.5 42 Q108 69 89 113.5 Q70 158 70 224 L70 566 Q70 599 103 599 L151 599 Q184 599 184 566 L184 219 Q184 146 212.5 117 Q241 88 300 88 Q358 88 386.5 117 Q415 146 415 219 L415 566 Q415 599 448 599 L497 599 Z " />
<glyph glyph-name="Yacute" unicode="&#xdd;" horiz-adv-x="461" d="M329 814 Q340 814 343 808 Q346 802 340 793 L267 687 Q260 676 247 676 L216 676 Q195 676 203 696 L252 801 Q258 814 272 814 L329 814 Z M410 599 Q430 599 436.5 588 Q443 577 435 560 L288 239 L288 33 Q288 0 255 0 L206 0 Q173 0 173 33 L173 239 L26 560 Q18 577 24.5 588 Q31 599 51 599 L101 599 Q127 599 139 574 L231 362 L323 574 Q335 599 361 599 L410 599 Z " />
<glyph glyph-name="Thorn" unicode="&#xde;" horiz-adv-x="507" d="M138 599 Q171 599 171 566 L171 489 L276 489 Q373 489 430 446.5 Q487 404 487 310 Q487 217 430 174.5 Q373 132 276 132 L171 132 L171 33 Q171 0 138 0 L89 0 Q56 0 56 33 L56 566 Q56 599 89 599 L138 599 Z M171 225 L262 225 Q327 225 350 247.5 Q373 270 373 310 Q373 351 350 373.5 Q327 396 262 396 L171 396 L171 225 Z " />
<glyph glyph-name="germandbls" unicode="&#xdf;" horiz-adv-x="415" d="M44 457 Q44 518 82.5 558.5 Q121 599 199 599 Q282 599 322 560 Q362 521 362 453 Q362 409 349.5 379 Q337 349 299 330 L299 329 Q343 316 370.5 276.5 Q398 237 398 164 Q398 115 387.5 82 Q377 49 357.5 29 Q338 9 310.5 0.5 Q283 -8 250 -8 Q242 -8 232 -6 Q222 -4 211 -1 Q196 4 192 15.5 Q188 27 193 41 L198 55 Q203 70 212.5 73.5 Q222 77 238 75 L245 75 Q295 75 295 169 Q295 192 292 212 Q289 232 280.5 247 Q272 262 258 270.5 Q244 279 221 279 L232 279 Q199 279 199 312 L199 329 Q199 362 212 362 Q235 362 248.5 380 Q262 398 262 436 Q262 516 201 516 Q147 516 147 453 L147 33 Q147 0 114 0 L77 0 Q44 0 44 33 L44 457 Z " />
<glyph glyph-name="agrave" unicode="&#xe0;" horiz-adv-x="415" d="M165 608 Q178 608 185 597 L243 507 Q248 498 245 492 Q242 486 232 486 L183 486 Q171 486 162 495 L71 587 Q63 595 65.5 601.5 Q68 608 79 608 L165 608 Z M64 341 Q51 351 49 363 Q47 375 59 387 Q85 411 123 426 Q161 441 199 440 Q243 439 274 430 Q305 421 325.5 400.5 Q346 380 355.5 347 Q365 314 365 266 L365 33 Q365 0 332 0 L299 0 Q266 0 266 33 L266 37 Q235 16 204 4 Q173 -8 132 -8 Q103 -8 81 1.5 Q59 11 44.5 27 Q30 43 22.5 63.5 Q15 84 15 106 Q15 180 75.5 220.5 Q136 261 262 276 L262 312 Q262 337 244.5 350.5 Q227 364 199 364 Q174 364 156.5 355.5 Q139 347 125 334 Q103 312 79 329 L64 341 Z M262 207 Q236 202 210.5 196 Q185 190 164.5 180.5 Q144 171 131 156.5 Q118 142 118 119 Q118 94 132 81 Q146 68 168 68 Q192 68 219 84 Q246 100 262 114 L262 207 Z " />
<glyph glyph-name="aacute" unicode="&#xe1;" horiz-adv-x="415" d="M306 647 Q317 647 320 641 Q323 635 317 626 L244 520 Q237 509 224 509 L193 509 Q172 509 180 529 L229 634 Q235 647 249 647 L306 647 Z M64 341 Q51 351 49 363 Q47 375 59 387 Q85 411 123 426 Q161 441 199 440 Q243 439 274 430 Q305 421 325.5 400.5 Q346 380 355.5 347 Q365 314 365 266 L365 33 Q365 0 332 0 L299 0 Q266 0 266 33 L266 37 Q235 16 204 4 Q173 -8 132 -8 Q103 -8 81 1.5 Q59 11 44.5 27 Q30 43 22.5 63.5 Q15 84 15 106 Q15 180 75.5 220.5 Q136 261 262 276 L262 312 Q262 337 244.5 350.5 Q227 364 199 364 Q174 364 156.5 355.5 Q139 347 125 334 Q103 312 79 329 L64 341 Z M262 207 Q236 202 210.5 196 Q185 190 164.5 180.5 Q144 171 131 156.5 Q118 142 118 119 Q118 94 132 81 Q146 68 168 68 Q192 68 219 84 Q246 100 262 114 L262 207 Z " />
<glyph glyph-name="acircumflex" unicode="&#xe2;" horiz-adv-x="415" d="M246 608 Q258 608 267 598 L338 507 Q345 498 342 492 Q339 486 328 486 L274 486 Q262 486 253 496 L208 554 L163 496 Q154 486 142 486 L88 486 Q77 486 74 492 Q71 498 78 507 L148 598 Q157 608 169 608 L246 608 Z M64 341 Q51 351 49 363 Q47 375 59 387 Q85 411 123 426 Q161 441 199 440 Q243 439 274 430 Q305 421 325.5 400.5 Q346 380 355.5 347 Q365 314 365 266 L365 33 Q365 0 332 0 L299 0 Q266 0 266 33 L266 37 Q235 16 204 4 Q173 -8 132 -8 Q103 -8 81 1.5 Q59 11 44.5 27 Q30 43 22.5 63.5 Q15 84 15 106 Q15 180 75.5 220.5 Q136 261 262 276 L262 312 Q262 337 244.5 350.5 Q227 364 199 364 Q174 364 156.5 355.5 Q139 347 125 334 Q103 312 79 329 L64 341 Z M262 207 Q236 202 210.5 196 Q185 190 164.5 180.5 Q144 171 131 156.5 Q118 142 118 119 Q118 94 132 81 Q146 68 168 68 Q192 68 219 84 Q246 100 262 114 L262 207 Z " />
<glyph glyph-name="atilde" unicode="&#xe3;" horiz-adv-x="415" d="M341 599 Q361 599 355 580 Q346 547 326.5 522.5 Q307 498 268 498 Q253 498 236.5 502.5 Q220 507 204 512.5 Q188 518 173 522.5 Q158 527 146 527 Q133 527 126 521 Q119 515 114 506 Q107 493 94 493 L75 493 Q55 493 60 512 Q69 545 91 569.5 Q113 594 151 594 Q168 594 184.5 589.5 Q201 585 216 579 Q231 573 244 568.5 Q257 564 267 564 Q278 564 287 570 Q296 576 301 585 Q309 599 320 599 L341 599 Z M64 341 Q51 351 49 363 Q47 375 59 387 Q85 411 123 426 Q161 441 199 440 Q243 439 274 430 Q305 421 325.5 400.5 Q346 380 355.5 347 Q365 314 365 266 L365 33 Q365 0 332 0 L299 0 Q266 0 266 33 L266 37 Q235 16 204 4 Q173 -8 132 -8 Q103 -8 81 1.5 Q59 11 44.5 27 Q30 43 22.5 63.5 Q15 84 15 106 Q15 180 75.5 220.5 Q136 261 262 276 L262 312 Q262 337 244.5 350.5 Q227 364 199 364 Q174 364 156.5 355.5 Q139 347 125 334 Q103 312 79 329 L64 341 Z M262 207 Q236 202 210.5 196 Q185 190 164.5 180.5 Q144 171 131 156.5 Q118 142 118 119 Q118 94 132 81 Q146 68 168 68 Q192 68 219 84 Q246 100 262 114 L262 207 Z " />
<glyph glyph-name="adieresis" unicode="&#xe4;" horiz-adv-x="415" d="M138 605 Q155 605 155 588 L155 530 Q155 513 138 513 L94 513 Q77 513 77 530 L77 588 Q77 605 94 605 L138 605 Z M321 605 Q338 605 338 588 L338 530 Q338 513 321 513 L277 513 Q260 513 260 530 L260 588 Q260 605 277 605 L321 605 Z M64 341 Q51 351 49 363 Q47 375 59 387 Q85 411 123 426 Q161 441 199 440 Q243 439 274 430 Q305 421 325.5 400.5 Q346 380 355.5 347 Q365 314 365 266 L365 33 Q365 0 332 0 L299 0 Q266 0 266 33 L266 37 Q235 16 204 4 Q173 -8 132 -8 Q103 -8 81 1.5 Q59 11 44.5 27 Q30 43 22.5 63.5 Q15 84 15 106 Q15 180 75.5 220.5 Q136 261 262 276 L262 312 Q262 337 244.5 350.5 Q227 364 199 364 Q174 364 156.5 355.5 Q139 347 125 334 Q103 312 79 329 L64 341 Z M262 207 Q236 202 210.5 196 Q185 190 164.5 180.5 Q144 171 131 156.5 Q118 142 118 119 Q118 94 132 81 Q146 68 168 68 Q192 68 219 84 Q246 100 262 114 L262 207 Z " />
<glyph glyph-name="aring" unicode="&#xe5;" horiz-adv-x="415" d="M208 665 Q246 665 272 639 Q298 613 298 575 Q298 537 272 511.5 Q246 486 208 486 Q171 486 145 511.5 Q119 537 119 575 Q119 613 145 639 Q171 665 208 665 Z M208 620 Q189 620 176.5 607 Q164 594 164 575 Q164 556 176.5 543 Q189 530 208 530 Q227 530 240 543 Q253 556 253 575 Q253 594 240 607 Q227 620 208 620 Z M64 341 Q51 351 49 363 Q47 375 59 387 Q85 411 123 426 Q161 441 199 440 Q243 439 274 430 Q305 421 325.5 400.5 Q346 380 355.5 347 Q365 314 365 266 L365 33 Q365 0 332 0 L299 0 Q266 0 266 33 L266 37 Q235 16 204 4 Q173 -8 132 -8 Q103 -8 81 1.5 Q59 11 44.5 27 Q30 43 22.5 63.5 Q15 84 15 106 Q15 180 75.5 220.5 Q136 261 262 276 L262 312 Q262 337 244.5 350.5 Q227 364 199 364 Q174 364 156.5 355.5 Q139 347 125 334 Q103 312 79 329 L64 341 Z M262 207 Q236 202 210.5 196 Q185 190 164.5 180.5 Q144 171 131 156.5 Q118 142 118 119 Q118 94 132 81 Q146 68 168 68 Q192 68 219 84 Q246 100 262 114 L262 207 Z " />
<glyph glyph-name="ae" unicode="&#xe6;" horiz-adv-x="646" d="M64 341 Q51 351 49 363 Q47 375 59 387 Q85 411 123 426.5 Q161 442 199 440 Q247 438 277 426.5 Q307 415 325 393 Q369 440 442 440 Q486 440 519.5 423.5 Q553 407 576 379.5 Q599 352 611 316.5 Q623 281 623 242 L623 232 Q623 199 590 199 L360 199 L360 156 Q360 120 385 97.5 Q410 75 450 75 Q478 75 495.5 82.5 Q513 90 527 104 Q538 115 549 116.5 Q560 118 574 110 L593 98 Q607 90 610 77.5 Q613 65 602 52 Q573 20 533.5 6 Q494 -8 442 -8 Q407 -8 369.5 5.5 Q332 19 306 59 Q275 37 250.5 23.5 Q226 10 205.5 3 Q185 -4 167 -6 Q149 -8 132 -8 Q103 -8 81 1.5 Q59 11 44.5 27 Q30 43 22.5 63.5 Q15 84 15 106 Q15 180 76 220.5 Q137 261 266 276 L266 312 Q266 337 246.5 350.5 Q227 364 199 364 Q174 364 156.5 355.5 Q139 347 125 334 Q103 312 79 329 L64 341 Z M528 269 Q526 314 504.5 339 Q483 364 445 364 Q406 364 384 339 Q362 314 360 269 L528 269 Z M266 207 Q239 202 212.5 196 Q186 190 165 180.5 Q144 171 131 156.5 Q118 142 118 119 Q118 94 132 81 Q146 68 168 68 Q192 68 219.5 84 Q247 100 266 114 L266 207 Z " />
<glyph glyph-name="ccedilla" unicode="&#xe7;" horiz-adv-x="415" d="M351 116 Q365 108 368.5 96.5 Q372 85 363 71 Q337 34 306 15.5 Q275 -3 234 -7 L203 -52 Q211 -50 218 -49 Q225 -48 233 -48 Q262 -48 284 -63 Q306 -78 306 -111 Q306 -132 296 -147 Q286 -162 271 -171.5 Q256 -181 237.5 -185.5 Q219 -190 201 -190 Q181 -190 162.5 -185.5 Q144 -181 126 -174 Q109 -167 117 -152 L118 -149 Q125 -135 140 -139 Q151 -142 164.5 -144.5 Q178 -147 190 -147 Q210 -147 221.5 -140 Q233 -133 233 -112 Q233 -95 222.5 -90.5 Q212 -86 198 -86 Q189 -86 179 -88 Q169 -90 163 -91 L157 -86 Q146 -75 155 -62 L190 -7 Q109 -1 64.5 58.5 Q20 118 20 216 Q20 319 69.5 379.5 Q119 440 208 440 Q260 440 300.5 418 Q341 396 364 356 Q372 342 367 330.5 Q362 319 347 313 L321 303 Q295 292 278 319 Q267 336 251 346.5 Q235 357 208 357 Q164 357 143.5 322.5 Q123 288 123 216 Q123 144 144 109.5 Q165 75 211 75 Q237 75 254 86.5 Q271 98 285 116 Q303 143 330 128 L351 116 Z " />
<glyph glyph-name="egrave" unicode="&#xe8;" horiz-adv-x="415" d="M165 608 Q178 608 185 597 L243 507 Q248 498 245 492 Q242 486 232 486 L183 486 Q171 486 162 495 L71 587 Q63 595 65.5 601.5 Q68 608 79 608 L165 608 Z M354 98 Q368 90 370.5 77.5 Q373 65 362 52 Q333 20 294 6 Q255 -8 203 -8 Q118 -8 69 52.5 Q20 113 20 216 Q20 319 69.5 379 Q119 439 208 440 Q250 440 282.5 423.5 Q315 407 337.5 379.5 Q360 352 371.5 316.5 Q383 281 383 242 L383 232 Q383 199 350 199 L123 199 Q125 132 150.5 103.5 Q176 75 212 75 Q239 75 256.5 82.5 Q274 90 288 104 Q299 115 310 116.5 Q321 118 335 110 L354 98 Z M289 269 Q287 314 265.5 339 Q244 364 206 364 Q168 364 146.5 339 Q125 314 123 269 L289 269 Z " />
<glyph glyph-name="eacute" unicode="&#xe9;" horiz-adv-x="415" d="M306 647 Q317 647 320 641 Q323 635 317 626 L244 520 Q237 509 224 509 L193 509 Q172 509 180 529 L229 634 Q235 647 249 647 L306 647 Z M354 98 Q368 90 370.5 77.5 Q373 65 362 52 Q333 20 294 6 Q255 -8 203 -8 Q118 -8 69 52.5 Q20 113 20 216 Q20 319 69.5 379 Q119 439 208 440 Q250 440 282.5 423.5 Q315 407 337.5 379.5 Q360 352 371.5 316.5 Q383 281 383 242 L383 232 Q383 199 350 199 L123 199 Q125 132 150.5 103.5 Q176 75 212 75 Q239 75 256.5 82.5 Q274 90 288 104 Q299 115 310 116.5 Q321 118 335 110 L354 98 Z M289 269 Q287 314 265.5 339 Q244 364 206 364 Q168 364 146.5 339 Q125 314 123 269 L289 269 Z " />
<glyph glyph-name="ecircumflex" unicode="&#xea;" horiz-adv-x="415" d="M246 608 Q258 608 267 598 L338 507 Q345 498 342 492 Q339 486 328 486 L274 486 Q262 486 253 496 L208 554 L163 496 Q154 486 142 486 L88 486 Q77 486 74 492 Q71 498 78 507 L148 598 Q157 608 169 608 L246 608 Z M354 98 Q368 90 370.5 77.5 Q373 65 362 52 Q333 20 294 6 Q255 -8 203 -8 Q118 -8 69 52.5 Q20 113 20 216 Q20 319 69.5 379 Q119 439 208 440 Q250 440 282.5 423.5 Q315 407 337.5 379.5 Q360 352 371.5 316.5 Q383 281 383 242 L383 232 Q383 199 350 199 L123 199 Q125 132 150.5 103.5 Q176 75 212 75 Q239 75 256.5 82.5 Q274 90 288 104 Q299 115 310 116.5 Q321 118 335 110 L354 98 Z M289 269 Q287 314 265.5 339 Q244 364 206 364 Q168 364 146.5 339 Q125 314 123 269 L289 269 Z " />
<glyph glyph-name="edieresis" unicode="&#xeb;" horiz-adv-x="415" d="M138 605 Q155 605 155 588 L155 530 Q155 513 138 513 L94 513 Q77 513 77 530 L77 588 Q77 605 94 605 L138 605 Z M321 605 Q338 605 338 588 L338 530 Q338 513 321 513 L277 513 Q260 513 260 530 L260 588 Q260 605 277 605 L321 605 Z M354 98 Q368 90 370.5 77.5 Q373 65 362 52 Q333 20 294 6 Q255 -8 203 -8 Q118 -8 69 52.5 Q20 113 20 216 Q20 319 69.5 379 Q119 439 208 440 Q250 440 282.5 423.5 Q315 407 337.5 379.5 Q360 352 371.5 316.5 Q383 281 383 242 L383 232 Q383 199 350 199 L123 199 Q125 132 150.5 103.5 Q176 75 212 75 Q239 75 256.5 82.5 Q274 90 288 104 Q299 115 310 116.5 Q321 118 335 110 L354 98 Z M289 269 Q287 314 265.5 339 Q244 364 206 364 Q168 364 146.5 339 Q125 314 123 269 L289 269 Z " />
<glyph glyph-name="igrave" unicode="&#xec;" horiz-adv-x="231" d="M73 608 Q86 608 93 597 L151 507 Q156 498 153 492 Q150 486 140 486 L91 486 Q79 486 70 495 L-21 587 Q-29 595 -26.5 601.5 Q-24 608 -13 608 L73 608 Z M134 432 Q167 432 167 399 L167 33 Q167 0 134 0 L97 0 Q64 0 64 33 L64 399 Q64 432 97 432 L134 432 Z " />
<glyph glyph-name="iacute" unicode="&#xed;" horiz-adv-x="231" d="M214 647 Q225 647 228 641 Q231 635 225 626 L152 520 Q145 509 132 509 L101 509 Q80 509 88 529 L137 634 Q143 647 157 647 L214 647 Z M134 432 Q167 432 167 399 L167 33 Q167 0 134 0 L97 0 Q64 0 64 33 L64 399 Q64 432 97 432 L134 432 Z " />
<glyph glyph-name="icircumflex" unicode="&#xee;" horiz-adv-x="231" d="M154 608 Q166 608 175 598 L246 507 Q253 498 250 492 Q247 486 236 486 L182 486 Q170 486 161 496 L116 554 L71 496 Q62 486 50 486 L-4 486 Q-15 486 -18 492 Q-21 498 -14 507 L56 598 Q65 608 77 608 L154 608 Z M134 432 Q167 432 167 399 L167 33 Q167 0 134 0 L97 0 Q64 0 64 33 L64 399 Q64 432 97 432 L134 432 Z " />
<glyph glyph-name="idieresis" unicode="&#xef;" horiz-adv-x="231" d="M46 605 Q63 605 63 588 L63 530 Q63 513 46 513 L2 513 Q-15 513 -15 530 L-15 588 Q-15 605 2 605 L46 605 Z M229 605 Q246 605 246 588 L246 530 Q246 513 229 513 L185 513 Q168 513 168 530 L168 588 Q168 605 185 605 L229 605 Z M134 432 Q167 432 167 399 L167 33 Q167 0 134 0 L97 0 Q64 0 64 33 L64 399 Q64 432 97 432 L134 432 Z " />
<glyph glyph-name="eth" unicode="&#xf0;" horiz-adv-x="415" d="M180 591 Q205 600 224 584 Q231 578 237.5 572 Q244 566 251 559 L305 585 Q334 599 349 573 Q364 547 334 531 L291 510 Q339 444 367 362.5 Q395 281 395 203 Q395 157 382 118 Q369 79 345 51 Q321 23 286.5 7.5 Q252 -8 208 -8 Q164 -8 129 7.5 Q94 23 70 51 Q46 79 33 118 Q20 157 20 203 Q20 249 33 287.5 Q46 326 70 354 Q94 382 129 397.5 Q164 413 208 413 Q216 413 223.5 412.5 Q231 412 242 409 Q235 426 226.5 441.5 Q218 457 208 471 L152 444 Q123 430 108 457 Q93 482 123 498 L168 520 Q162 528 155.5 534 Q149 540 143 547 Q131 558 135 568.5 Q139 579 159 584 L180 591 Z M208 330 Q123 330 123 203 Q123 140 143.5 107.5 Q164 75 208 75 Q251 75 271.5 107.5 Q292 140 292 203 Q292 330 208 330 Z " />
<glyph glyph-name="ntilde" unicode="&#xf1;" horiz-adv-x="461" d="M364 599 Q384 599 378 580 Q369 547 349.5 522.5 Q330 498 291 498 Q276 498 259.5 502.5 Q243 507 227 512.5 Q211 518 196 522.5 Q181 527 169 527 Q156 527 149 521 Q142 515 137 506 Q130 493 117 493 L98 493 Q78 493 83 512 Q92 545 114 569.5 Q136 594 174 594 Q191 594 207.5 589.5 Q224 585 239 579 Q254 573 267 568.5 Q280 564 290 564 Q301 564 310 570 Q319 576 324 585 Q332 599 343 599 L364 599 Z M148 385 Q177 405 210 422.5 Q243 440 281 440 Q346 440 377 400.5 Q408 361 408 295 L408 33 Q408 0 375 0 L338 0 Q305 0 305 33 L305 281 Q305 325 291.5 341 Q278 357 252 357 Q227 357 207 348 Q187 339 173 327 Q163 319 159.5 309.5 Q156 300 156 287 L156 33 Q156 0 123 0 L86 0 Q53 0 53 33 L53 399 Q53 432 86 432 L115 432 Q148 432 148 399 L148 385 Z " />
<glyph glyph-name="ograve" unicode="&#xf2;" horiz-adv-x="415" d="M165 608 Q178 608 185 597 L243 507 Q248 498 245 492 Q242 486 232 486 L183 486 Q171 486 162 495 L71 587 Q63 595 65.5 601.5 Q68 608 79 608 L165 608 Z M208 440 Q296 440 345.5 379.5 Q395 319 395 216 Q395 113 345.5 52.5 Q296 -8 208 -8 Q119 -8 69.5 52.5 Q20 113 20 216 Q20 319 69.5 379.5 Q119 440 208 440 Z M208 357 Q164 357 143.5 322.5 Q123 288 123 216 Q123 144 143.5 109.5 Q164 75 208 75 Q251 75 271.5 109.5 Q292 144 292 216 Q292 288 271.5 322.5 Q251 357 208 357 Z " />
<glyph glyph-name="oacute" unicode="&#xf3;" horiz-adv-x="415" d="M306 647 Q317 647 320 641 Q323 635 317 626 L244 520 Q237 509 224 509 L193 509 Q172 509 180 529 L229 634 Q235 647 249 647 L306 647 Z M208 440 Q296 440 345.5 379.5 Q395 319 395 216 Q395 113 345.5 52.5 Q296 -8 208 -8 Q119 -8 69.5 52.5 Q20 113 20 216 Q20 319 69.5 379.5 Q119 440 208 440 Z M208 357 Q164 357 143.5 322.5 Q123 288 123 216 Q123 144 143.5 109.5 Q164 75 208 75 Q251 75 271.5 109.5 Q292 144 292 216 Q292 288 271.5 322.5 Q251 357 208 357 Z " />
<glyph glyph-name="ocircumflex" unicode="&#xf4;" horiz-adv-x="415" d="M246 608 Q258 608 267 598 L338 507 Q345 498 342 492 Q339 486 328 486 L274 486 Q262 486 253 496 L208 554 L163 496 Q154 486 142 486 L88 486 Q77 486 74 492 Q71 498 78 507 L148 598 Q157 608 169 608 L246 608 Z M208 440 Q296 440 345.5 379.5 Q395 319 395 216 Q395 113 345.5 52.5 Q296 -8 208 -8 Q119 -8 69.5 52.5 Q20 113 20 216 Q20 319 69.5 379.5 Q119 440 208 440 Z M208 357 Q164 357 143.5 322.5 Q123 288 123 216 Q123 144 143.5 109.5 Q164 75 208 75 Q251 75 271.5 109.5 Q292 144 292 216 Q292 288 271.5 322.5 Q251 357 208 357 Z " />
<glyph glyph-name="otilde" unicode="&#xf5;" horiz-adv-x="415" d="M341 599 Q361 599 355 580 Q346 547 326.5 522.5 Q307 498 268 498 Q253 498 236.5 502.5 Q220 507 204 512.5 Q188 518 173 522.5 Q158 527 146 527 Q133 527 126 521 Q119 515 114 506 Q107 493 94 493 L75 493 Q55 493 60 512 Q69 545 91 569.5 Q113 594 151 594 Q168 594 184.5 589.5 Q201 585 216 579 Q231 573 244 568.5 Q257 564 267 564 Q278 564 287 570 Q296 576 301 585 Q309 599 320 599 L341 599 Z M208 440 Q296 440 345.5 379.5 Q395 319 395 216 Q395 113 345.5 52.5 Q296 -8 208 -8 Q119 -8 69.5 52.5 Q20 113 20 216 Q20 319 69.5 379.5 Q119 440 208 440 Z M208 357 Q164 357 143.5 322.5 Q123 288 123 216 Q123 144 143.5 109.5 Q164 75 208 75 Q251 75 271.5 109.5 Q292 144 292 216 Q292 288 271.5 322.5 Q251 357 208 357 Z " />
<glyph glyph-name="odieresis" unicode="&#xf6;" horiz-adv-x="415" d="M138 605 Q155 605 155 588 L155 530 Q155 513 138 513 L94 513 Q77 513 77 530 L77 588 Q77 605 94 605 L138 605 Z M321 605 Q338 605 338 588 L338 530 Q338 513 321 513 L277 513 Q260 513 260 530 L260 588 Q260 605 277 605 L321 605 Z M208 440 Q296 440 345.5 379.5 Q395 319 395 216 Q395 113 345.5 52.5 Q296 -8 208 -8 Q119 -8 69.5 52.5 Q20 113 20 216 Q20 319 69.5 379.5 Q119 440 208 440 Z M208 357 Q164 357 143.5 322.5 Q123 288 123 216 Q123 144 143.5 109.5 Q164 75 208 75 Q251 75 271.5 109.5 Q292 144 292 216 Q292 288 271.5 322.5 Q251 357 208 357 Z " />
<glyph glyph-name="divide" unicode="&#xf7;" horiz-adv-x="453" d="M240 445 Q273 445 273 412 L273 385 Q273 352 240 352 L213 352 Q180 352 180 385 L180 412 Q180 445 213 445 L240 445 Z M378 276 Q411 276 411 243 L411 229 Q411 196 378 196 L74 196 Q41 196 41 229 L41 243 Q41 276 74 276 L378 276 Z M240 121 Q273 121 273 88 L273 61 Q273 28 240 28 L213 28 Q180 28 180 61 L180 88 Q180 121 213 121 L240 121 Z " />
<glyph glyph-name="oslash" unicode="&#xf8;" horiz-adv-x="415" d="M372 508 Q388 508 392.5 497 Q397 486 387 469 L341 384 Q395 324 395 216 Q395 113 345.5 52.5 Q296 -8 208 -8 Q167 -8 133 6 L97 -60 Q84 -83 58 -83 L46 -83 Q29 -83 24.5 -72 Q20 -61 30 -44 L78 44 Q20 105 20 216 Q20 319 69.5 379.5 Q119 440 208 440 Q253 440 287 423 L321 485 Q334 508 360 508 L372 508 Z M246 348 Q230 357 208 357 Q164 357 143.5 322.5 Q123 288 123 216 Q123 193 124.5 174.5 Q126 156 131 140 L246 348 Z M174 81 Q188 75 208 75 Q251 75 271.5 109.5 Q292 144 292 216 Q292 256 286 284 L174 81 Z " />
<glyph glyph-name="ugrave" unicode="&#xf9;" horiz-adv-x="461" d="M188 608 Q201 608 208 597 L266 507 Q271 498 268 492 Q265 486 255 486 L206 486 Q194 486 185 495 L94 587 Q86 595 88.5 601.5 Q91 608 102 608 L188 608 Z M375 432 Q408 432 408 399 L408 33 Q408 0 375 0 L347 0 Q314 0 314 33 L314 46 Q285 26 252 9 Q219 -8 181 -8 Q116 -8 84.5 31 Q53 70 53 136 L53 399 Q53 432 86 432 L123 432 Q156 432 156 399 L156 151 Q156 107 169.5 91 Q183 75 209 75 Q243 75 267.5 90 Q292 105 305 120 L305 399 Q305 432 338 432 L375 432 Z " />
<glyph glyph-name="uacute" unicode="&#xfa;" horiz-adv-x="461" d="M329 647 Q340 647 343 641 Q346 635 340 626 L267 520 Q260 509 247 509 L216 509 Q195 509 203 529 L252 634 Q258 647 272 647 L329 647 Z M375 432 Q408 432 408 399 L408 33 Q408 0 375 0 L347 0 Q314 0 314 33 L314 46 Q285 26 252 9 Q219 -8 181 -8 Q116 -8 84.5 31 Q53 70 53 136 L53 399 Q53 432 86 432 L123 432 Q156 432 156 399 L156 151 Q156 107 169.5 91 Q183 75 209 75 Q243 75 267.5 90 Q292 105 305 120 L305 399 Q305 432 338 432 L375 432 Z " />
<glyph glyph-name="ucircumflex" unicode="&#xfb;" horiz-adv-x="461" d="M269 608 Q281 608 290 598 L361 507 Q368 498 365 492 Q362 486 351 486 L297 486 Q285 486 276 496 L231 554 L186 496 Q177 486 165 486 L111 486 Q100 486 97 492 Q94 498 101 507 L171 598 Q180 608 192 608 L269 608 Z M375 432 Q408 432 408 399 L408 33 Q408 0 375 0 L347 0 Q314 0 314 33 L314 46 Q285 26 252 9 Q219 -8 181 -8 Q116 -8 84.5 31 Q53 70 53 136 L53 399 Q53 432 86 432 L123 432 Q156 432 156 399 L156 151 Q156 107 169.5 91 Q183 75 209 75 Q243 75 267.5 90 Q292 105 305 120 L305 399 Q305 432 338 432 L375 432 Z " />
<glyph glyph-name="udieresis" unicode="&#xfc;" horiz-adv-x="461" d="M162 605 Q179 605 179 588 L179 530 Q179 513 162 513 L118 513 Q101 513 101 530 L101 588 Q101 605 118 605 L162 605 Z M345 605 Q362 605 362 588 L362 530 Q362 513 345 513 L301 513 Q284 513 284 530 L284 588 Q284 605 301 605 L345 605 Z M375 432 Q408 432 408 399 L408 33 Q408 0 375 0 L347 0 Q314 0 314 33 L314 46 Q285 26 252 9 Q219 -8 181 -8 Q116 -8 84.5 31 Q53 70 53 136 L53 399 Q53 432 86 432 L123 432 Q156 432 156 399 L156 151 Q156 107 169.5 91 Q183 75 209 75 Q243 75 267.5 90 Q292 105 305 120 L305 399 Q305 432 338 432 L375 432 Z " />
<glyph glyph-name="yacute" unicode="&#xfd;" horiz-adv-x="369" d="M283 647 Q294 647 297 641 Q300 635 294 626 L221 520 Q214 509 201 509 L170 509 Q149 509 157 529 L206 634 Q212 647 226 647 L283 647 Z M322 432 Q360 432 349 395 L225 -1 Q210 -48 194 -78.5 Q178 -109 158.5 -126.5 Q139 -144 114.5 -151 Q90 -158 58 -158 Q50 -158 44 -158 Q38 -158 33 -157 Q8 -156 8 -123 L8 -104 Q8 -73 42 -73 L51 -73 Q78 -73 94 -65 Q110 -57 120 -39 Q128 -23 132 -12.5 Q136 -2 136 12 Q136 23 131.5 36.5 Q127 50 123 63 L19 395 Q8 432 46 432 L82 432 Q110 432 119 404 L183 166 L184 166 L250 404 Q257 432 287 432 L322 432 Z " />
<glyph glyph-name="thorn" unicode="&#xfe;" horiz-adv-x="461" d="M119 599 Q152 599 152 566 L152 392 Q175 414 201 427 Q227 440 262 440 Q305 440 337.5 422 Q370 404 391.5 372.5 Q413 341 424 298 Q435 255 435 204 Q435 164 423.5 126 Q412 88 390.5 58 Q369 28 336.5 10 Q304 -8 262 -8 Q236 -8 204.5 5.5 Q173 19 158 40 L156 40 L156 -125 Q156 -158 123 -158 L86 -158 Q53 -158 53 -125 L53 566 Q53 599 86 599 L119 599 Z M156 136 Q156 110 175 96 Q188 87 203 81 Q218 75 236 75 Q282 75 307 111 Q332 147 332 216 Q332 285 307 321 Q282 357 236 357 Q213 357 199.5 350 Q186 343 175 335 Q165 326 160.5 317 Q156 308 156 294 L156 136 Z " />
<glyph glyph-name="ydieresis" unicode="&#xff;" horiz-adv-x="369" d="M115 605 Q132 605 132 588 L132 530 Q132 513 115 513 L71 513 Q54 513 54 530 L54 588 Q54 605 71 605 L115 605 Z M298 605 Q315 605 315 588 L315 530 Q315 513 298 513 L254 513 Q237 513 237 530 L237 588 Q237 605 254 605 L298 605 Z M322 432 Q360 432 349 395 L225 -1 Q210 -48 194 -78.5 Q178 -109 158.5 -126.5 Q139 -144 114.5 -151 Q90 -158 58 -158 Q50 -158 44 -158 Q38 -158 33 -157 Q8 -156 8 -123 L8 -104 Q8 -73 42 -73 L51 -73 Q78 -73 94 -65 Q110 -57 120 -39 Q128 -23 132 -12.5 Q136 -2 136 12 Q136 23 131.5 36.5 Q127 50 123 63 L19 395 Q8 432 46 432 L82 432 Q110 432 119 404 L183 166 L184 166 L250 404 Q257 432 287 432 L322 432 Z " />
<glyph glyph-name="dotlessi" unicode="&#x131;" horiz-adv-x="231" d="M134 432 Q167 432 167 399 L167 33 Q167 0 134 0 L97 0 Q64 0 64 33 L64 399 Q64 432 97 432 L134 432 Z " />
<glyph glyph-name="Lslash" unicode="&#x141;" horiz-adv-x="461" d="M146 599 Q179 599 179 566 L179 370 L272 408 Q289 415 299.5 408 Q310 401 310 382 L310 368 Q310 340 284 330 L179 287 L179 96 L407 96 Q440 96 440 63 L440 33 Q440 0 407 0 L98 0 Q65 0 65 33 L65 241 L38 230 Q21 222 10.5 229.5 Q0 237 0 256 L0 269 Q0 296 25 308 L65 324 L65 566 Q65 599 98 599 L146 599 Z " />
<glyph glyph-name="lslash" unicode="&#x142;" horiz-adv-x="231" d="M134 599 Q167 599 167 566 L167 398 L192 410 Q209 419 220 412.5 Q231 406 231 386 L231 374 Q231 346 207 335 L167 315 L167 33 Q167 0 134 0 L97 0 Q64 0 64 33 L64 263 L39 251 Q22 242 11 248.5 Q0 255 0 275 L0 287 Q0 315 24 326 L64 346 L64 566 Q64 599 97 599 L134 599 Z " />
<glyph glyph-name="OE" unicode="&#x152;" horiz-adv-x="784" d="M429 0 Q393 0 357 -4 Q321 -8 284 -8 Q139 -8 75 70.5 Q11 149 11 300 Q11 450 75 529 Q139 608 284 608 Q310 608 344.5 603.5 Q379 599 415 599 L716 599 Q749 599 749 566 L749 536 Q749 503 716 503 L496 503 L496 360 L642 360 Q675 360 675 327 L675 297 Q675 264 642 264 L496 264 L496 96 L731 96 Q764 96 764 63 L764 33 Q764 0 731 0 L429 0 Z M381 378 Q381 418 374.5 444 Q368 470 354.5 485 Q341 500 319 505.5 Q297 511 266 511 Q237 511 211.5 503.5 Q186 496 166.5 473 Q147 450 136 409 Q125 368 125 300 Q125 233 136 191 Q147 149 166.5 126.5 Q186 104 211.5 96 Q237 88 266 88 Q297 88 319 94 Q341 100 354.5 115 Q368 130 374.5 155.5 Q381 181 381 221 L381 378 Z " />
<glyph glyph-name="oe" unicode="&#x153;" horiz-adv-x="646" d="M593 98 Q607 90 610 77.5 Q613 65 602 52 Q573 20 536 6 Q499 -8 455 -8 Q412 -8 380.5 7 Q349 22 328 49 Q305 20 271 6 Q237 -8 193 -8 Q151 -8 117 7.5 Q83 23 59.5 52.5 Q36 82 23 123.5 Q10 165 10 216 Q10 267 23 308.5 Q36 350 59.5 379.5 Q83 409 117 424.5 Q151 440 193 440 Q235 440 269 426.5 Q303 413 326 384 Q348 412 379 426 Q410 440 448 440 Q490 440 522.5 423.5 Q555 407 577.5 379.5 Q600 352 611.5 316.5 Q623 281 623 242 L623 232 Q623 199 590 199 L370 199 Q372 132 393.5 103.5 Q415 75 461 75 Q482 75 497.5 82.5 Q513 90 527 104 Q538 115 549 116.5 Q560 118 574 110 L593 98 Z M528 269 Q526 314 505 339 Q484 364 449 364 Q414 364 393 339 Q372 314 370 269 L528 269 Z M194 357 Q153 357 133 322.5 Q113 288 113 216 Q113 144 133 109.5 Q153 75 194 75 Q235 75 255.5 109.5 Q276 144 276 216 Q276 288 255.5 322.5 Q235 357 194 357 Z " />
<glyph glyph-name="Scaron" unicode="&#x160;" horiz-adv-x="507" d="M374 775 Q385 775 388 769 Q391 763 384 754 L313 663 Q304 653 292 653 L215 653 Q203 653 194 663 L124 754 Q117 763 120 769 Q123 775 134 775 L188 775 Q200 775 209 765 L254 707 L299 765 Q308 775 320 775 L374 775 Z M96 163 Q123 174 140 147 Q160 117 186.5 99 Q213 81 255 81 Q298 81 327 99 Q356 117 356 161 Q356 191 333 210 Q310 229 276 245 Q242 261 201.5 276 Q161 291 127 312 Q93 333 70 363.5 Q47 394 47 440 Q47 480 62.5 511.5 Q78 543 105 564.5 Q132 586 167 597 Q202 608 241 608 Q304 608 355 581.5 Q406 555 436 504 Q445 489 439.5 477.5 Q434 466 418 461 L377 449 Q351 441 334 467 Q319 490 296 504 Q273 518 241 518 Q203 518 179 502.5 Q155 487 155 452 Q155 426 178 409 Q201 392 235 377.5 Q269 363 309.5 348 Q350 333 384 311 Q418 289 441 256.5 Q464 224 464 176 Q464 83 409 37.5 Q354 -8 254 -8 Q189 -8 132.5 21.5 Q76 51 45 104 Q37 118 41.5 129.5 Q46 141 61 148 L96 163 Z " />
<glyph glyph-name="scaron" unicode="&#x161;" horiz-adv-x="369" d="M305 608 Q316 608 319 602 Q322 596 315 587 L244 496 Q235 486 223 486 L146 486 Q134 486 125 496 L55 587 Q48 596 51 602 Q54 608 65 608 L119 608 Q131 608 140 598 L185 540 L230 598 Q239 608 251 608 L305 608 Z M61 111 Q86 128 108 106 Q124 89 143.5 78.5 Q163 68 188 68 Q215 68 232 81.5 Q249 95 249 117 Q249 136 233 147 Q217 158 193 167.5 Q169 177 141 187 Q113 197 89 213 Q65 229 49 253 Q33 277 33 315 Q33 345 45 368.5 Q57 392 76.5 407.5 Q96 423 122 431.5 Q148 440 176 440 Q211 440 244 429.5 Q277 419 303 398 Q317 387 316 374.5 Q315 362 302 351 L287 338 Q264 319 240 340 Q228 350 213.5 357 Q199 364 183 364 Q153 364 139 352.5 Q125 341 125 321 Q125 303 141 291.5 Q157 280 181 271 Q205 262 232.5 252.5 Q260 243 284 227 Q308 211 324 185.5 Q340 160 340 121 Q340 88 328 63.5 Q316 39 295 23 Q274 7 245 -0.5 Q216 -8 182 -8 Q94 -8 39 53 Q16 78 45 99 L61 111 Z " />
<glyph glyph-name="Ydieresis" unicode="&#x178;" horiz-adv-x="461" d="M162 772 Q179 772 179 755 L179 697 Q179 680 162 680 L118 680 Q101 680 101 697 L101 755 Q101 772 118 772 L162 772 Z M345 772 Q362 772 362 755 L362 697 Q362 680 345 680 L301 680 Q284 680 284 697 L284 755 Q284 772 301 772 L345 772 Z M410 599 Q430 599 436.5 588 Q443 577 435 560 L288 239 L288 33 Q288 0 255 0 L206 0 Q173 0 173 33 L173 239 L26 560 Q18 577 24.5 588 Q31 599 51 599 L101 599 Q127 599 139 574 L231 362 L323 574 Q335 599 361 599 L410 599 Z " />
<glyph glyph-name="Zcaron" unicode="&#x17d;" horiz-adv-x="461" d="M351 775 Q362 775 365 769 Q368 763 361 754 L290 663 Q281 653 269 653 L192 653 Q180 653 171 663 L101 754 Q94 763 97 769 Q100 775 111 775 L165 775 Q177 775 186 765 L231 707 L276 765 Q285 775 297 775 L351 775 Z M404 599 Q437 599 437 566 L437 531 Q437 518 434 509 Q431 500 424 490 L148 96 L407 96 Q440 96 440 63 L440 33 Q440 0 407 0 L46 0 Q13 0 13 33 L13 75 Q13 87 16 96 Q19 105 26 116 L293 503 L65 503 Q32 503 32 536 L32 566 Q32 599 65 599 L404 599 Z " />
<glyph glyph-name="zcaron" unicode="&#x17e;" horiz-adv-x="369" d="M305 608 Q316 608 319 602 Q322 596 315 587 L244 496 Q235 486 223 486 L146 486 Q134 486 125 496 L55 587 Q48 596 51 602 Q54 608 65 608 L119 608 Q131 608 140 598 L185 540 L230 598 Q239 608 251 608 L305 608 Z M319 432 Q352 432 352 399 L352 382 Q352 359 338 341 L144 83 L321 83 Q354 83 354 50 L354 33 Q354 0 321 0 L48 0 Q15 0 15 33 L15 50 Q15 73 29 91 L223 349 L65 349 Q32 349 32 382 L32 399 Q32 432 65 432 L319 432 Z " />
<glyph glyph-name="florin" unicode="&#x192;" horiz-adv-x="507" d="M236 382 Q247 442 259.5 485 Q272 528 289.5 555.5 Q307 583 332 595.5 Q357 608 394 608 Q403 608 411 607.5 Q419 607 427 606 Q459 601 454 568 L451 546 Q449 529 439.5 524 Q430 519 413 521 L407 521 Q372 521 359 485 Q346 449 338 382 L390 382 Q423 382 423 349 L423 337 Q423 304 390 304 L324 304 Q300 195 286.5 109.5 Q273 24 253.5 -34.5 Q234 -93 201 -124.5 Q168 -156 107 -158 Q99 -158 91.5 -158 Q84 -158 77 -156 Q48 -151 54 -118 L58 -96 Q64 -67 97 -70 Q99 -71 102.5 -71 Q106 -71 109 -71 Q123 -71 132.5 -62 Q142 -53 152.5 -15.5 Q163 22 178 97 Q193 172 217 304 L170 304 Q137 304 137 337 L137 349 Q137 382 170 382 L236 382 Z " />
<glyph glyph-name="circumflex" unicode="&#x2c6;" horiz-adv-x="231" d="M153 608 Q165 608 174 598 L245 507 Q252 498 249 492 Q246 486 235 486 L181 486 Q169 486 160 496 L115 554 L70 496 Q61 486 49 486 L-5 486 Q-16 486 -19 492 Q-22 498 -15 507 L55 598 Q64 608 76 608 L153 608 Z " />
<glyph glyph-name="caron" unicode="&#x2c7;" horiz-adv-x="231" d="M235 608 Q246 608 249 602 Q252 596 245 587 L174 496 Q165 486 153 486 L76 486 Q64 486 55 496 L-15 587 Q-22 596 -19 602 Q-16 608 -5 608 L49 608 Q61 608 70 598 L115 540 L160 598 Q169 608 181 608 L235 608 Z " />
<glyph glyph-name="breve" unicode="&#x2d8;" horiz-adv-x="231" d="M237 608 Q257 608 252 589 Q240 536 203.5 511 Q167 486 110 486 Q56 486 20.5 512.5 Q-15 539 -23 590 Q-26 608 -7 608 L15 608 Q29 608 33 593 Q42 567 66 558 Q90 549 116 549 Q146 549 166.5 558 Q187 567 197 593 Q202 608 216 608 L237 608 Z " />
<glyph glyph-name="dotaccent" unicode="&#x2d9;" horiz-adv-x="231" d="M148 591 Q165 591 165 574 L165 512 Q165 495 148 495 L83 495 Q66 495 66 512 L66 574 Q66 591 83 591 L148 591 Z " />
<glyph glyph-name="ring" unicode="&#x2da;" horiz-adv-x="231" d="M115 665 Q153 665 179 639 Q205 613 205 575 Q205 537 179 511.5 Q153 486 115 486 Q78 486 52 511.5 Q26 537 26 575 Q26 613 52 639 Q78 665 115 665 Z M115 620 Q96 620 83.5 607 Q71 594 71 575 Q71 556 83.5 543 Q96 530 115 530 Q134 530 147 543 Q160 556 160 575 Q160 594 147 607 Q134 620 115 620 Z " />
<glyph glyph-name="ogonek" unicode="&#x2db;" horiz-adv-x="231" d="M214 7 Q198 1 177.5 -8 Q157 -17 139 -30 Q121 -43 109 -59 Q97 -75 97 -96 Q97 -116 109.5 -126 Q122 -136 140 -136 Q156 -136 173 -128 Q190 -120 205 -111 Q220 -102 229 -117 L229 -118 Q237 -132 223 -141 Q197 -157 169.5 -168 Q142 -179 111 -179 Q76 -179 50 -161 Q24 -143 24 -105 Q24 -74 43 -52.5 Q62 -31 90.5 -16.5 Q119 -2 152.5 6 Q186 14 214 17 L214 7 Z " />
<glyph glyph-name="tilde" unicode="&#x2dc;" horiz-adv-x="231" d="M248 599 Q268 599 262 580 Q253 547 233.5 522.5 Q214 498 175 498 Q160 498 143.5 502.5 Q127 507 111 512.5 Q95 518 80 522.5 Q65 527 53 527 Q40 527 33 521 Q26 515 21 506 Q14 493 1 493 L-18 493 Q-38 493 -33 512 Q-24 545 -2 569.5 Q20 594 58 594 Q75 594 91.5 589.5 Q108 585 123 579 Q138 573 151 568.5 Q164 564 174 564 Q185 564 194 570 Q203 576 208 585 Q216 599 227 599 L248 599 Z " />
<glyph glyph-name="hungarumlaut" unicode="&#x2dd;" horiz-adv-x="231" d="M126 608 Q137 608 140 601.5 Q143 595 135 587 L53 495 Q44 486 32 486 L-14 486 Q-24 486 -27.5 491.5 Q-31 497 -26 506 L21 596 Q27 608 41 608 L126 608 Z M286 608 Q297 608 299.5 601.5 Q302 595 294 587 L203 495 Q194 486 182 486 L134 486 Q124 486 121 492 Q118 498 123 507 L181 597 Q188 608 201 608 L286 608 Z " />
<glyph glyph-name="mu" unicode="&#x3bc;" horiz-adv-x="461" d="M375 432 Q408 432 408 399 L408 33 Q408 0 375 0 L347 0 Q314 0 314 33 L314 46 Q285 26 252 9 Q219 -8 181 -8 Q174 -8 168 -7.5 Q162 -7 156 -7 L156 -125 Q156 -158 123 -158 L86 -158 Q53 -158 53 -125 L53 399 Q53 432 86 432 L123 432 Q156 432 156 399 L156 151 Q156 107 169.5 91 Q183 75 209 75 Q234 75 254 84 Q274 93 288 104 Q298 112 301.5 121.5 Q305 131 305 144 L305 399 Q305 432 338 432 L375 432 Z " />
<glyph glyph-name="uni05BE" unicode="&#x5be;" horiz-adv-x="270" d="M187 500 Q220 500 220 467 L220 433 Q220 400 187 400 L83 400 Q50 400 50 433 L50 467 Q50 500 83 500 L187 500 Z " />
<glyph glyph-name="uni05D0" unicode="&#x5d0;" horiz-adv-x="492" d="M398 500 Q431 500 431 467 L431 270 Q431 245 412 229 L345 172 L420 39 Q430 22 423.5 11 Q417 0 397 0 L353 0 Q327 0 314 23 L196 238 L170 216 Q151 200 151 175 L151 33 Q151 0 118 0 L83 0 Q50 0 50 33 L50 222 Q50 247 69 263 L146 327 L72 461 Q62 478 68.5 489 Q75 500 95 500 L138 500 Q164 500 177 477 L295 263 L312 276 Q331 292 331 317 L331 467 Q331 500 364 500 L398 500 Z " />
<glyph glyph-name="uni05D1" unicode="&#x5d1;" horiz-adv-x="445" d="M337 500 Q370 500 370 467 L370 100 L382 100 Q415 100 415 67 L415 33 Q415 0 382 0 L73 0 Q40 0 40 33 L40 67 Q40 100 73 100 L270 100 L270 400 L93 400 Q60 400 60 433 L60 467 Q60 500 93 500 L337 500 Z " />
<glyph glyph-name="uni05D2" unicode="&#x5d2;" horiz-adv-x="357" d="M230 500 Q262 500 266 470 L332 35 Q337 0 301 0 L267 0 Q237 0 232 30 L210 179 L143 25 Q131 0 105 0 L67 0 Q48 0 40.5 10.5 Q33 21 41 38 L98 175 Q110 200 137 200 L205 200 L176 400 L90 400 Q57 400 57 433 L57 467 Q57 500 90 500 L230 500 Z " />
<glyph glyph-name="uni05D3" unicode="&#x5d3;" horiz-adv-x="430" d="M367 500 Q400 500 400 467 L400 433 Q400 400 380 400 L350 400 L350 33 Q350 0 317 0 L283 0 Q250 0 250 33 L250 400 L53 400 Q20 400 20 433 L20 467 Q20 500 53 500 L367 500 Z " />
<glyph glyph-name="uni05D4" unicode="&#x5d4;" horiz-adv-x="470" d="M387 500 Q420 500 420 467 L420 33 Q420 0 387 0 L353 0 Q320 0 320 33 L320 400 L83 400 Q50 400 50 433 L50 467 Q50 500 83 500 L387 500 Z M117 276 Q150 276 150 243 L150 33 Q150 0 117 0 L83 0 Q50 0 50 33 L50 243 Q50 276 83 276 L117 276 Z " />
<glyph glyph-name="uni05D5" unicode="&#x5d5;" horiz-adv-x="260" d="M177 500 Q210 500 210 467 L210 33 Q210 0 177 0 L143 0 Q110 0 110 33 L110 400 L73 400 Q40 400 40 433 L40 467 Q40 500 73 500 L177 500 Z " />
<glyph glyph-name="uni05D6" unicode="&#x5d6;" horiz-adv-x="280" d="M217 500 Q250 500 250 467 L250 433 Q250 400 227 400 L194 400 Q186 377 181.5 359.5 Q177 342 177 317 Q177 295 184 269.5 Q191 244 200 218.5 Q209 193 216 167.5 Q223 142 223 118 Q223 95 219 71 Q215 47 211 29 Q205 0 175 0 L141 0 Q124 0 116.5 9.5 Q109 19 113 36 Q117 54 120 76 Q123 98 123 118 Q123 142 116 167.5 Q109 193 100 218.5 Q91 244 84 269.5 Q77 295 77 317 Q77 342 81.5 359.5 Q86 377 94 400 L63 400 Q30 400 30 433 L30 467 Q30 500 63 500 L217 500 Z " />
<glyph glyph-name="uni05D7" unicode="&#x5d7;" horiz-adv-x="460" d="M377 500 Q410 500 410 467 L410 33 Q410 0 377 0 L343 0 Q310 0 310 33 L310 400 L180 400 L180 33 Q180 0 147 0 L113 0 Q80 0 80 33 L80 400 L63 400 Q30 400 30 433 L30 467 Q30 500 63 500 L377 500 Z " />
<glyph glyph-name="uni05D8" unicode="&#x5d8;" horiz-adv-x="500" d="M350 500 Q371 500 389 492 Q407 484 420.5 470.5 Q434 457 442 439 Q450 421 450 400 L450 33 Q450 0 417 0 L83 0 Q50 0 50 33 L50 467 Q50 500 83 500 L117 500 Q150 500 150 467 L150 100 L350 100 L350 367 Q350 400 317 400 L309 400 L298 330 Q294 300 262 300 L233 300 Q197 300 202 335 L223 470 Q228 500 259 500 L350 500 Z " />
<glyph glyph-name="uni05D9" unicode="&#x5d9;" horiz-adv-x="245" d="M162 500 Q195 500 195 467 L195 258 Q195 225 162 225 L128 225 Q95 225 95 258 L95 400 L58 400 Q25 400 25 433 L25 467 Q25 500 58 500 L162 500 Z " />
<glyph glyph-name="uni05DA" unicode="&#x5da;" horiz-adv-x="390" d="M307 500 Q340 500 340 467 L340 -67 Q340 -100 307 -100 L273 -100 Q240 -100 240 -67 L240 400 L73 400 Q40 400 40 433 L40 467 Q40 500 73 500 L307 500 Z " />
<glyph glyph-name="uni05DB" unicode="&#x5db;" horiz-adv-x="420" d="M337 500 Q370 500 370 467 L370 100 Q370 79 362 61 Q354 43 340.5 29.5 Q327 16 309 8 Q291 0 270 0 L83 0 Q50 0 50 33 L50 67 Q50 100 83 100 L270 100 L270 400 L83 400 Q50 400 50 433 L50 467 Q50 500 83 500 L337 500 Z " />
<glyph glyph-name="uni05DC" unicode="&#x5dc;" horiz-adv-x="405" d="M92 600 Q125 600 125 567 L125 500 L322 500 Q355 500 355 467 L355 175 Q355 144 340.5 112.5 Q326 81 302 56 Q278 31 248 15.5 Q218 0 187 0 L165 0 Q132 0 132 33 L132 67 Q132 100 165 100 L187 100 Q198 100 209.5 107.5 Q221 115 231.5 125.5 Q242 136 248.5 148.5 Q255 161 255 171 L255 400 L58 400 Q25 400 25 433 L25 567 Q25 600 58 600 L92 600 Z " />
<glyph glyph-name="uni05DD" unicode="&#x5dd;" horiz-adv-x="460" d="M377 500 Q410 500 410 467 L410 33 Q410 0 377 0 L113 0 Q80 0 80 33 L80 400 L63 400 Q30 400 30 433 L30 467 Q30 500 63 500 L377 500 Z M180 100 L310 100 L310 400 L180 400 L180 100 Z " />
<glyph glyph-name="uni05DE" unicode="&#x5de;" horiz-adv-x="490" d="M407 500 Q440 500 440 467 L440 33 Q440 0 407 0 L298 0 Q265 0 265 33 L265 67 Q265 100 298 100 L340 100 L340 400 L180 400 L180 33 Q180 0 147 0 L113 0 Q80 0 80 33 L80 400 L63 400 Q30 400 30 433 L30 467 Q30 500 63 500 L147 500 Q180 500 180 467 L180 450 L254 490 Q265 495 274 497.5 Q283 500 295 500 L407 500 Z " />
<glyph glyph-name="uni05DF" unicode="&#x5df;" horiz-adv-x="260" d="M177 500 Q210 500 210 467 L210 -67 Q210 -100 177 -100 L143 -100 Q110 -100 110 -67 L110 400 L73 400 Q40 400 40 433 L40 467 Q40 500 73 500 L177 500 Z " />
<glyph glyph-name="uni05E0" unicode="&#x5e0;" horiz-adv-x="290" d="M207 500 Q240 500 240 467 L240 100 Q240 79 232 61 Q224 43 210.5 29.5 Q197 16 179 8 Q161 0 140 0 L53 0 Q20 0 20 33 L20 67 Q20 100 53 100 L140 100 L140 400 L103 400 Q70 400 70 433 L70 467 Q70 500 103 500 L207 500 Z " />
<glyph glyph-name="uni05E1" unicode="&#x5e1;" horiz-adv-x="469" d="M408 500 Q444 500 439 465 L384 100 Q378 59 351 29.5 Q324 0 265 0 L122 0 Q90 0 88 32 L74 400 L58 400 Q25 400 25 433 L25 467 Q25 500 58 500 L408 500 Z M184 100 L252 100 Q284 100 288 130 L329 400 L174 400 L184 100 Z " />
<glyph glyph-name="uni05E2" unicode="&#x5e2;" horiz-adv-x="462" d="M401 500 Q437 500 432 465 L375 100 Q368 58 342.5 29 Q317 0 275 0 L68 0 Q35 0 35 33 L35 67 Q35 100 68 100 L115 100 L60 465 Q55 500 91 500 L124 500 Q156 500 160 470 L216 100 L244 100 Q276 100 280 130 L330 470 Q335 500 366 500 L401 500 Z " />
<glyph glyph-name="uni05E3" unicode="&#x5e3;" horiz-adv-x="430" d="M347 500 Q380 500 380 467 L380 -67 Q380 -100 347 -100 L313 -100 Q280 -100 280 -67 L280 400 L140 400 L140 325 L157 325 Q190 325 190 292 L190 258 Q190 225 157 225 L73 225 Q40 225 40 258 L40 467 Q40 500 73 500 L347 500 Z " />
<glyph glyph-name="uni05E4" unicode="&#x5e4;" horiz-adv-x="460" d="M377 500 Q410 500 410 467 L410 100 Q410 79 402 61 Q394 43 380.5 29.5 Q367 16 349 8 Q331 0 310 0 L83 0 Q50 0 50 33 L50 67 Q50 100 83 100 L277 100 Q310 100 310 133 L310 400 L150 400 L150 325 L197 325 Q230 325 230 292 L230 258 Q230 225 197 225 L83 225 Q50 225 50 258 L50 467 Q50 500 83 500 L377 500 Z " />
<glyph glyph-name="uni05E5" unicode="&#x5e5;" horiz-adv-x="420" d="M357 500 Q390 500 390 467 L390 350 Q390 325 371 309 L180 149 L180 -67 Q180 -100 147 -100 L113 -100 Q80 -100 80 -67 L80 400 L68 400 Q35 400 35 433 L35 467 Q35 500 68 500 L147 500 Q180 500 180 467 L180 281 L271 356 Q290 372 290 397 L290 467 Q290 500 323 500 L357 500 Z " />
<glyph glyph-name="uni05E6" unicode="&#x5e6;" horiz-adv-x="449" d="M378 500 Q414 500 409 465 L377 255 Q373 225 341 225 L326 225 L398 119 Q405 108 408 99 Q411 90 411 78 L411 33 Q411 0 378 0 L53 0 Q20 0 20 33 L20 67 Q20 100 53 100 L291 100 L47 460 Q36 477 42 488.5 Q48 500 68 500 L115 500 Q141 500 155 479 L281 293 L307 470 Q312 500 343 500 L378 500 Z " />
<glyph glyph-name="uni05E7" unicode="&#x5e7;" horiz-adv-x="450" d="M367 500 Q400 500 400 467 L400 150 Q400 119 388 91.5 Q376 64 356 44 Q336 24 308.5 12 Q281 0 250 0 L240 0 Q207 0 207 33 L207 67 Q207 100 240 100 L250 100 Q271 100 285.5 114.5 Q300 129 300 150 L300 400 L83 400 Q50 400 50 433 L50 467 Q50 500 83 500 L367 500 Z M117 310 Q150 310 150 277 L150 -67 Q150 -100 117 -100 L83 -100 Q50 -100 50 -67 L50 277 Q50 310 83 310 L117 310 Z " />
<glyph glyph-name="uni05E8" unicode="&#x5e8;" horiz-adv-x="385" d="M235 500 Q256 500 274 492 Q292 484 305.5 470.5 Q319 457 327 439 Q335 421 335 400 L335 33 Q335 0 302 0 L268 0 Q235 0 235 33 L235 367 Q235 400 202 400 L68 400 Q35 400 35 433 L35 467 Q35 500 68 500 L235 500 Z " />
<glyph glyph-name="uni05E9" unicode="&#x5e9;" horiz-adv-x="537" d="M476 500 Q512 500 507 465 L462 170 Q455 126 434.5 94 Q414 62 387 41 Q360 20 329.5 10 Q299 0 272 0 L132 0 Q101 0 96 30 L30 465 Q25 500 61 500 L95 500 Q127 500 131 470 L167 231 L203 470 Q208 500 239 500 L274 500 Q310 500 305 465 L273 255 Q269 225 237 225 L168 225 L187 100 L272 100 Q289 100 304.5 106.5 Q320 113 332 123.5 Q344 134 351.5 146 Q359 158 360 168 L405 470 Q410 500 441 500 L476 500 Z " />
<glyph glyph-name="uni05EA" unicode="&#x5ea;" horiz-adv-x="470" d="M387 500 Q420 500 420 467 L420 33 Q420 0 387 0 L353 0 Q320 0 320 33 L320 400 L190 400 L190 33 Q190 0 157 0 L68 0 Q35 0 35 33 L35 67 Q35 100 68 100 L90 100 L90 400 L78 400 Q45 400 45 433 L45 467 Q45 500 78 500 L387 500 Z " />
<glyph glyph-name="gereshhebrew" unicode="&#x5f3;" horiz-adv-x="200" d="M133 500 Q150 500 150 483 L150 413 Q150 401 140 392 L71 340 Q62 334 56 337 Q50 340 50 351 L50 483 Q50 500 67 500 L133 500 Z " />
<glyph glyph-name="gershayimhebrew" unicode="&#x5f4;" horiz-adv-x="350" d="M133 500 Q150 500 150 483 L150 413 Q150 401 140 392 L71 340 Q62 334 56 337 Q50 340 50 351 L50 483 Q50 500 67 500 L133 500 Z M283 500 Q300 500 300 483 L300 413 Q300 401 290 392 L221 340 Q212 334 206 337 Q200 340 200 351 L200 483 Q200 500 217 500 L283 500 Z " />
<glyph glyph-name="hyphen1" unicode="&#x2010;" horiz-adv-x="355" d="M272 300 Q305 300 305 267 L305 233 Q305 200 272 200 L83 200 Q50 200 50 233 L50 267 Q50 300 83 300 L272 300 Z " />
<glyph glyph-name="endash" unicode="&#x2013;" horiz-adv-x="470" d="M387 300 Q420 300 420 267 L420 233 Q420 200 387 200 L83 200 Q50 200 50 233 L50 267 Q50 300 83 300 L387 300 Z " />
<glyph glyph-name="emdash" unicode="&#x2014;" horiz-adv-x="580" d="M497 300 Q530 300 530 267 L530 233 Q530 200 497 200 L83 200 Q50 200 50 233 L50 267 Q50 300 83 300 L497 300 Z " />
<glyph glyph-name="quoteleft" unicode="&#x2018;" horiz-adv-x="231" d="M145 608 Q165 608 158 589 L123 483 L156 483 Q173 483 173 466 L173 382 Q173 365 156 365 L75 365 Q58 365 58 382 L58 472 Q58 484 62 493 L105 595 Q111 608 125 608 L145 608 Z " />
<glyph glyph-name="quoteright" unicode="&#x2019;" horiz-adv-x="231" d="M156 599 Q173 599 173 582 L173 492 Q173 480 169 471 L126 370 Q120 357 106 357 L86 357 Q66 357 73 376 L108 481 L75 481 Q58 481 58 498 L58 582 Q58 599 75 599 L156 599 Z " />
<glyph glyph-name="quotesinglbase" unicode="&#x201a;" horiz-adv-x="231" d="M156 118 Q173 118 173 101 L173 11 Q173 -1 169 -10 L126 -112 Q120 -125 106 -125 L86 -125 Q66 -125 73 -106 L108 0 L75 0 Q58 0 58 17 L58 101 Q58 118 75 118 L156 118 Z " />
<glyph glyph-name="quotedblleft" unicode="&#x201c;" horiz-adv-x="369" d="M122 608 Q142 608 135 589 L100 483 L132 483 Q149 483 149 466 L149 382 Q149 365 132 365 L52 365 Q35 365 35 382 L35 472 Q35 484 39 493 L82 595 Q88 608 102 608 L122 608 Z M307 608 Q327 608 320 589 L285 483 L317 483 Q334 483 334 466 L334 382 Q334 365 317 365 L237 365 Q220 365 220 382 L220 472 Q220 484 224 493 L267 595 Q273 608 287 608 L307 608 Z " />
<glyph glyph-name="quotedblright" unicode="&#x201d;" horiz-adv-x="369" d="M132 599 Q149 599 149 582 L149 481 L101 370 Q95 357 81 357 L62 357 Q41 357 48 376 L84 481 L51 481 Q34 481 34 498 L34 582 Q34 599 51 599 L132 599 Z M317 599 Q334 599 334 582 L334 492 Q334 480 330 471 L287 370 Q281 357 267 357 L247 357 Q227 357 234 376 L269 481 L236 481 Q219 481 219 498 L219 582 Q219 599 236 599 L317 599 Z " />
<glyph glyph-name="quotedblbase" unicode="&#x201e;" horiz-adv-x="369" d="M132 118 Q149 118 149 101 L149 11 Q149 -1 145 -10 L101 -112 Q95 -125 81 -125 L62 -125 Q54 -125 50 -116 Q48 -111 48 -106 L84 0 L51 0 Q34 0 34 17 L34 101 Q34 118 51 118 L132 118 Z M317 118 Q334 118 334 101 L334 11 Q334 -1 330 -10 L287 -112 Q281 -125 267 -125 L248 -125 Q240 -125 236 -116 Q234 -111 234 -106 L269 0 L236 0 Q219 0 219 17 L219 101 Q219 118 236 118 L317 118 Z " />
<glyph glyph-name="dagger" unicode="&#x2020;" horiz-adv-x="487" d="M265 599 Q298 599 298 566 L298 444 L406 444 Q439 444 439 411 L439 378 Q439 345 406 345 L298 345 L298 33 Q298 0 265 0 L222 0 Q189 0 189 33 L189 345 L81 345 Q48 345 48 378 L48 411 Q48 444 81 444 L189 444 L189 566 Q189 599 222 599 L265 599 Z " />
<glyph glyph-name="daggerdbl" unicode="&#x2021;" horiz-adv-x="487" d="M265 599 Q298 599 298 566 L298 444 L406 444 Q439 444 439 411 L439 378 Q439 345 406 345 L298 345 L298 93 L406 93 Q439 93 439 60 L439 28 Q439 -5 406 -5 L298 -5 L298 -128 Q298 -161 265 -161 L222 -161 Q189 -161 189 -128 L189 -5 L81 -5 Q48 -5 48 28 L48 60 Q48 93 81 93 L189 93 L189 345 L81 345 Q48 345 48 378 L48 411 Q48 444 81 444 L189 444 L189 566 Q189 599 222 599 L265 599 Z " />
<glyph glyph-name="bullet" unicode="&#x2022;" horiz-adv-x="415" d="M207 449 Q238 449 265.5 437.5 Q293 426 313 405.5 Q333 385 345 358 Q357 331 357 300 Q357 269 345 241.5 Q333 214 313 193.5 Q293 173 265.5 161 Q238 149 207 149 Q176 149 148.5 161 Q121 173 101 193.5 Q81 214 69 241.5 Q57 269 57 300 Q57 331 69 358 Q81 385 101 405.5 Q121 426 148.5 437.5 Q176 449 207 449 Z " />
<glyph glyph-name="ellipsis" unicode="&#x2026;" horiz-adv-x="830" d="M181 118 Q198 118 198 101 L198 17 Q198 0 181 0 L97 0 Q80 0 80 17 L80 101 Q80 118 97 118 L181 118 Z M457 118 Q474 118 474 101 L474 17 Q474 0 457 0 L373 0 Q356 0 356 17 L356 101 Q356 118 373 118 L457 118 Z M733 118 Q750 118 750 101 L750 17 Q750 0 733 0 L649 0 Q632 0 632 17 L632 101 Q632 118 649 118 L733 118 Z " />
<glyph glyph-name="perthousand" unicode="&#x2030;" horiz-adv-x="850" d="M37 408 Q37 456 66.5 480 Q96 504 138 504 Q180 504 210 480 Q240 456 240 408 L240 338 Q240 290 210 266 Q180 242 138 242 Q96 242 66.5 266 Q37 290 37 338 L37 408 Z M417 500 Q432 500 437 489 Q442 478 434 461 L228 24 Q216 0 189 0 L180 0 Q164 0 159 11 Q154 22 162 39 L369 476 Q381 500 408 500 L417 500 Z M174 405 Q174 445 138 445 Q103 445 103 405 L103 341 Q103 301 138 301 Q174 301 174 341 L174 405 Z M355 162 Q355 210 385 234 Q415 258 457 258 Q499 258 529 234 Q559 210 559 162 L559 92 Q559 44 529 20 Q499 -4 457 -4 Q415 -4 385 20 Q355 44 355 92 L355 162 Z M610 162 Q610 210 639.5 234 Q669 258 711 258 Q753 258 783 234 Q813 210 813 162 L813 92 Q813 44 783 20 Q753 -4 711 -4 Q669 -4 639.5 20 Q610 44 610 92 L610 162 Z M493 159 Q493 199 457 199 Q421 199 421 159 L421 95 Q421 55 457 55 Q493 55 493 95 L493 159 Z M747 159 Q747 199 711 199 Q676 199 676 159 L676 95 Q676 55 711 55 Q747 55 747 94 L747 159 Z " />
<glyph glyph-name="guilsinglleft" unicode="&#x2039;" horiz-adv-x="276" d="M201 349 Q212 349 215 343 Q218 337 211 328 L134 225 Q125 213 134 201 L211 104 Q218 95 215 89 Q212 83 201 83 L147 83 Q135 83 126 93 L43 201 Q34 213 43 225 L126 339 Q135 349 147 349 L201 349 Z " />
<glyph glyph-name="guilsinglright" unicode="&#x203a;" horiz-adv-x="276" d="M130 349 Q143 349 151 338 L233 225 Q242 213 233 201 L151 93 Q142 83 130 83 L76 83 Q65 83 62 89 Q59 95 66 104 L143 201 Q152 213 143 225 L66 328 Q59 337 62 343 Q65 349 76 349 L130 349 Z " />
<glyph glyph-name="uni20AA" unicode="&#x20aa;" horiz-adv-x="763" d="M497 500 Q530 500 530 467 L530 208 Q530 175 497 175 L463 175 Q430 175 430 208 L430 400 L180 400 L180 33 Q180 0 147 0 L113 0 Q80 0 80 33 L80 400 L73 400 Q40 400 40 433 L40 467 Q40 500 73 500 L497 500 Z M697 500 Q733 500 728 465 L682 170 Q675 126 654.5 94 Q634 62 607 41 Q580 20 549.5 10 Q519 0 492 0 L288 0 Q255 0 255 33 L255 293 Q255 326 288 326 L322 326 Q355 326 355 293 L355 133 Q355 100 388 100 L492 100 Q509 100 524.5 106.5 Q540 113 552 123.5 Q564 134 571.5 146 Q579 158 580 168 L626 470 Q631 500 662 500 L697 500 Z " />
<glyph glyph-name="Euro" unicode="&#x20ac;" horiz-adv-x="486" d="M80 340 Q87 417 135.5 463.5 Q184 510 264 510 Q326 510 373 479.5 Q420 449 440 387 Q445 370 437 360 Q429 350 411 350 L377 350 Q363 350 354.5 356.5 Q346 363 339 377 Q329 397 311 409.5 Q293 422 264 422 Q224 422 204 399 Q184 376 180 340 L253 340 Q286 340 286 311 Q286 281 253 281 L176 281 L176 227 L253 227 Q286 227 286 198 Q286 168 253 168 L180 168 Q183 131 203 107.5 Q223 84 264 84 Q293 84 311 96.5 Q329 109 340 129 Q346 143 354.5 149.5 Q363 156 377 156 L411 156 Q429 156 437 146 Q445 136 440 119 Q419 57 372 26.5 Q325 -4 264 -4 Q183 -4 135 43 Q87 90 80 168 L61 168 Q28 168 28 198 Q28 227 61 227 L77 227 L77 281 L61 281 Q28 281 28 311 Q28 340 61 340 L80 340 Z " />
<glyph glyph-name="trademark" unicode="&#x2122;" horiz-adv-x="830" d="M284 599 Q301 599 301 582 L301 547 Q301 530 284 530 L201 530 L201 274 Q201 257 184 257 L135 257 Q118 257 118 274 L118 530 L35 530 Q18 530 18 547 L18 582 Q18 599 35 599 L284 599 Z M755 599 Q772 599 772 582 L772 274 Q772 257 755 257 L706 257 Q689 257 689 274 L689 491 L686 492 L608 271 Q604 257 588 257 L554 257 Q538 257 534 271 L456 491 L452 491 L452 274 Q452 257 435 257 L386 257 Q369 257 369 274 L369 582 Q369 599 386 599 L478 599 Q494 599 498 585 L570 385 L572 385 L643 585 Q647 599 663 599 L755 599 Z " />
<glyph glyph-name="minus" unicode="&#x2212;" horiz-adv-x="400" d="M317 300 Q350 300 350 267 L350 233 Q350 200 317 200 L83 200 Q50 200 50 233 L50 267 Q50 300 83 300 L317 300 Z " />
<glyph glyph-name="fi" unicode="&#xfb01;" horiz-adv-x="461" d="M226 608 Q259 608 259 575 L259 558 Q259 525 231 525 Q199 525 186 514 Q173 503 173 478 L173 432 L227 432 Q260 432 260 399 L260 382 Q260 349 227 349 L173 349 L173 33 Q173 0 140 0 L103 0 Q70 0 70 33 L70 349 L43 349 Q10 349 10 382 L10 399 Q10 432 43 432 L69 432 L69 485 Q69 555 98 581.5 Q127 608 191 608 L226 608 Z M375 608 Q408 608 408 575 L408 544 Q408 511 375 511 L338 511 Q305 511 305 544 L305 575 Q305 608 338 608 L375 608 Z M375 432 Q408 432 408 399 L408 33 Q408 0 375 0 L338 0 Q305 0 305 33 L305 399 Q305 432 338 432 L375 432 Z " />
<glyph glyph-name="fl" unicode="&#xfb02;" horiz-adv-x="461" d="M226 608 Q259 608 259 575 L259 558 Q259 525 231 525 Q199 525 186 514 Q173 503 173 478 L173 432 L227 432 Q260 432 260 399 L260 382 Q260 349 227 349 L173 349 L173 33 Q173 0 140 0 L103 0 Q70 0 70 33 L70 349 L43 349 Q10 349 10 382 L10 399 Q10 432 43 432 L69 432 L69 485 Q69 555 98 581.5 Q127 608 191 608 L226 608 Z M375 599 Q408 599 408 566 L408 33 Q408 0 375 0 L338 0 Q305 0 305 33 L305 566 Q305 599 338 599 L375 599 Z " />
</font>
</svg>
